<?xml version="1.0" encoding="UTF-8" standalone="no"?>
<svg
   width="258.83mm"
   height="129.42mm"
   version="1.1"
   viewBox="0 0 258.83 129.42"
   id="svg106"
   sodipodi:docname="NAFOlogo.svg"
   inkscape:version="1.2.1 (9c6d41e410, 2022-07-14)"
   xmlns:inkscape="http://www.inkscape.org/namespaces/inkscape"
   xmlns:sodipodi="http://sodipodi.sourceforge.net/DTD/sodipodi-0.dtd"
   xmlns:xlink="http://www.w3.org/1999/xlink"
   xmlns="http://www.w3.org/2000/svg"
   xmlns:svg="http://www.w3.org/2000/svg">
  <defs
     id="defs110">
    <rect
       x="-136.92789"
       y="37.844193"
       width="712.01375"
       height="450.17666"
       id="rect324" />
  </defs>
  <sodipodi:namedview
     id="namedview108"
     pagecolor="#ffffff"
     bordercolor="#000000"
     borderopacity="0.25"
     inkscape:showpageshadow="2"
     inkscape:pageopacity="0.0"
     inkscape:pagecheckerboard="0"
     inkscape:deskcolor="#d1d1d1"
     inkscape:document-units="mm"
     showgrid="false"
     inkscape:zoom="1.3871638"
     inkscape:cx="568.78648"
     inkscape:cy="244.74399"
     inkscape:window-width="1916"
     inkscape:window-height="1028"
     inkscape:window-x="0"
     inkscape:window-y="0"
     inkscape:window-maximized="1"
     inkscape:current-layer="svg106" />
  <rect
     y="-5.4932e-6"
     width="258.82"
     height="129.41"
     fill="#fff"
     style="paint-order:markers fill stroke"
     id="rect80" />
  <path
     d="m195.09 65.684v7.1177h-1.9411v-7.1177h-63.736v63.734h129.41v-63.734z"
     fill-rule="evenodd"
     stroke-width="1.2256"
     id="path82" />
  <g
     transform="rotate(180,-164.05,-11.537)"
     id="g88">
    <use
       transform="translate(-457.5,-152.49)"
       width="100%"
       height="100%"
       xlink:href="#g"
       id="use84" />
    <use
       transform="translate(-457.5,-152.49)"
       width="100%"
       height="100%"
       xlink:href="#h"
       id="use86" />
  </g>
  <path
     id="g"
     d="m64.705 64.708-7.8776 8.5549 7.019 32.612-9.8262-30.773-33.461-10.39h-4.383v0.97098h-16.176v63.732l63.732 4e-3v-16.178h0.97151zm-34.133 6.3071 1.5994 0.49765c2.6749 12.894 12.801 23.056 25.669 25.765l0.51469 1.6071c-14.093-2.6105-25.198-13.748-27.784-27.868z"
     fill="#0b89c6"
     stroke-width="1.2256" />
  <path
     id="h"
     d="m0.014722 0.0072544v63.735h16.177v0.96842h48.529l-8.5409-7.8869-32.562 7.0299 30.731-9.8411 10.373-33.509v-4.3201h-0.97151v-16.177zm58.411 30.519-0.49659 1.6009c-12.881 2.6765-23.03 12.82-25.735 25.707l-1.6025 0.51315c2.609-14.114 13.729-25.236 27.834-27.821z"
     fill="#004489"
     stroke-width="1.2256" />
  <path
     d="m129.42 0.01v63.73h63.736v-7.1116h1.9411v7.1116h63.736v-63.73z"
     fill-rule="evenodd"
     stroke-width="1.2256"
     id="path92" />
  <path
     d="m 172.44154,19.727663 c 0,-0.737307 -0.0776,-1.086558 -0.31045,-1.086558 h -0.15522 c -0.50447,0 -1.24178,0.03881 -2.25073,0.116417 -1.00894,0.07761 -1.78506,0.116417 -2.28953,0.116417 -0.50447,0 -1.24178,-0.0388 -2.25073,-0.116417 -1.00894,-0.07761 -1.78506,-0.116417 -2.28953,-0.116417 h -0.0776 c -0.23283,0 -0.38806,0.155223 -0.38806,0.465668 0,0.582085 0.0388,0.89253 0.11642,0.970141 0.0776,0.07761 0.19403,0.116417 0.34925,0.116417 1.47462,0.116417 2.36715,0.232834 2.7164,0.426862 0.62089,0.349251 0.93133,1.125364 0.93133,2.367145 V 40.255851 L 148.30443,19.184384 c -0.31045,-0.34925 -0.54328,-0.543279 -0.6985,-0.543279 0.0388,0 -0.34925,0.03881 -1.16417,0.116417 -0.97014,0.07761 -1.78506,0.116417 -2.40595,0.116417 -0.38806,0 -0.97014,-0.0388 -1.74626,-0.116417 -0.77611,-0.07761 -1.397,-0.116417 -1.78506,-0.116417 h -0.11641 c -0.27164,0 -0.42686,0.155223 -0.42686,0.504474 0,0.582084 0.0388,0.89253 0.15522,0.970141 0.54328,0.0388 1.12536,0.116417 1.66864,0.155222 1.12536,0.155223 2.17312,0.620891 3.10445,1.397004 v 20.334157 c 0,1.241783 -0.34925,2.017895 -0.97014,2.367145 -0.34925,0.194027 -1.24178,0.34925 -2.67759,0.426863 -0.31044,0 -0.46567,0.155221 -0.46567,0.465667 0,0.737306 0.15523,1.086559 0.38806,1.086559 h 0.0776 c 0.50447,0 1.28059,-0.03881 2.28953,-0.116417 1.00895,-0.07761 1.78506,-0.116419 2.28954,-0.116419 0.50447,0 1.24178,0.03881 2.25072,0.116419 1.00895,0.07761 1.74626,0.116417 2.25073,0.116417 h 0.11642 c 0.23283,0 0.34925,-0.116417 0.34925,-0.426863 0,-0.62089 -0.0388,-0.970142 -0.0776,-1.008946 -0.15522,-0.07761 -0.27164,-0.116417 -0.38806,-0.116417 -1.43581,-0.07761 -2.32834,-0.232836 -2.67759,-0.426863 -0.62089,-0.34925 -0.97014,-1.086559 -0.97014,-2.328338 V 22.909725 l 20.6446,23.787862 c 0.31045,0.34925 0.54328,0.504473 0.69851,0.504473 0.19402,0 0.31044,-0.232833 0.31044,-0.698502 V 23.103755 c 0,-1.280587 0.31045,-2.095505 0.93134,-2.444756 0.38805,-0.194028 1.28058,-0.349251 2.71639,-0.465668 0.31045,0 0.46567,-0.155222 0.46567,-0.465668 z"
     id="path480"
     style="font-size:146.667px;font-family:'Garamond Libre';-inkscape-font-specification:'Garamond Libre';white-space:pre;shape-padding:14.3503;fill:#ffffff;stroke-width:0.264583" />
  <path
     d="m 200.26874,45.882668 c 0,-0.54328 -0.0388,-0.89253 -0.0776,-0.97014 -0.11642,-0.116417 -0.42686,-0.155223 -1.00895,-0.155223 -0.62089,0 -1.12536,-0.155223 -1.51342,-0.388057 -0.62089,-0.388056 -1.16417,-1.086559 -1.55222,-2.095505 L 186.842,18.641105 c -0.0776,-0.194028 -0.15522,-0.310445 -0.23283,-0.310445 -0.0776,0 -0.85373,0.465668 -2.36715,1.358198 l -7.83874,22.584885 c -0.54328,1.513419 -1.43581,2.328339 -2.7552,2.444755 -0.31045,0 -0.6597,0.03881 -0.97014,0.03881 -0.34925,0.03881 -0.54328,0.232833 -0.54328,0.504473 0,0.737306 0.15522,1.086559 0.38806,1.086559 h 0.0776 c 0.46567,0 1.20297,-0.03881 2.13431,-0.116417 0.93133,-0.07761 1.66864,-0.116419 2.13431,-0.116419 0.46567,0 1.20297,0.03881 2.13431,0.116419 0.93133,0.07761 1.62984,0.116417 2.13431,0.116417 h 0.0776 c 0.23283,0 0.38806,-0.116417 0.38806,-0.426863 0,-0.582086 -0.0388,-0.931336 -0.11642,-0.970142 -0.58208,-0.116417 -1.20297,-0.194027 -1.78506,-0.271637 -1.00895,-0.155223 -1.51342,-0.698503 -1.51342,-1.552229 0,-0.42686 0.11642,-0.931333 0.34925,-1.591029 l 2.0567,-6.208903 h 9.11933 l 2.59997,6.946209 c 0.19403,0.504473 0.27164,0.931336 0.27164,1.24178 0,0.737309 -0.46566,1.125365 -1.4358,1.202975 -0.31045,0 -0.62089,0.03881 -0.93134,0.03881 -0.38806,0.03881 -0.58208,0.232833 -0.58208,0.504473 0,0.737306 0.11641,1.086559 0.38805,1.086559 h 0.0388 c 0.54328,0 1.3582,-0.03881 2.44475,-0.116417 1.08656,-0.07761 1.90148,-0.116419 2.44476,-0.116419 0.54328,0 1.31939,0.03881 2.40595,0.116419 1.08656,0.07761 1.86267,0.116417 2.40595,0.116417 h 0.11642 c 0.23283,0 0.38805,-0.116417 0.38805,-0.465669 z M 189.13152,33.697695 h -8.03277 l 3.80296,-11.292442 z"
     id="path482"
     style="font-size:146.667px;font-family:'Garamond Libre';-inkscape-font-specification:'Garamond Libre';white-space:pre;shape-padding:14.3503;fill:#ffffff;stroke-width:0.264583" />
  <path
     d="m 221.64003,24.190314 v -5.00593 c 0,-0.34925 -0.0776,-0.504473 -0.27164,-0.504473 -7.64471,0.155223 -11.91333,0.194028 -12.88347,0.194028 -0.23284,0 -2.59998,-0.07761 -7.14024,-0.232834 -0.31045,0 -0.46567,0.155223 -0.46567,0.465668 0,0.582085 0.0388,0.89253 0.11642,0.970141 0.11641,0.116417 0.58208,0.155223 1.35819,0.194028 0.77612,0.03881 1.3582,0.155223 1.74626,0.388057 0.58208,0.388057 0.89253,1.047752 0.89253,2.056699 v 19.558045 c 0,0.970143 -0.31045,1.668643 -0.89253,2.056699 -0.38806,0.232833 -0.97014,0.349253 -1.74626,0.388056 -0.77611,0.03881 -1.24178,0.07761 -1.35819,0.19403 -0.0776,0.0388 -0.11642,0.194027 -0.11642,0.34925 0,0.737306 0.15522,1.086559 0.38806,1.086559 h 0.0776 c 0.58208,0 1.51342,-0.03881 2.71639,-0.116417 1.20298,-0.07761 2.09551,-0.116419 2.67759,-0.116419 0.58209,0 1.51342,0.03881 2.7164,0.116419 1.20297,0.07761 2.0955,0.116417 2.67759,0.116417 h 0.11641 c 0.23284,0 0.34925,-0.116417 0.34925,-0.426863 0,-0.582086 -0.0388,-0.970142 -0.0776,-1.008946 -0.11641,-0.116417 -0.54328,-0.116417 -1.28058,-0.155223 -0.81492,-0.03881 -1.43581,-0.19403 -1.82387,-0.426863 -0.62089,-0.388056 -0.93133,-1.086556 -0.93133,-2.056699 v -9.429771 h 4.8507 2.67759 c 0.73731,0 1.24178,0.194027 1.59103,0.582083 0.54328,1.125366 0.85373,2.017895 0.93134,2.638785 0.0776,0.07761 0.15522,0.116417 0.31044,0.116417 h 0.73731 c 0.23284,-0.03881 0.38806,-0.155223 0.38806,-0.426863 0,-0.42686 -0.0388,-1.047753 -0.0776,-1.901476 -0.0388,-0.853723 -0.0776,-1.474615 -0.0776,-1.901475 0,-0.426863 0.0388,-1.047753 0.0776,-1.901479 0.0388,-0.853723 0.0776,-1.435809 0.0776,-1.862669 0,-0.310446 -0.15522,-0.465669 -0.46567,-0.465669 -0.58208,0 -0.89253,0.03881 -0.97014,0.07761 -0.0776,0.15522 -0.15522,0.271639 -0.15522,0.388056 l -0.0776,0.27164 c -0.27163,0.970139 -0.62089,1.668642 -1.12536,1.979086 -0.62089,0.388056 -1.59103,0.582086 -2.91042,0.582086 h -5.78204 v -6.713376 c 0,-1.785061 0.23283,-2.871619 0.6985,-3.259675 0.42686,-0.388057 1.51342,-0.582085 3.33728,-0.582085 3.49251,0 5.66563,0.194028 6.51935,0.582085 0.6985,0.310445 1.08656,1.008946 1.20298,2.095505 0.11642,0.97014 0.27164,1.435809 0.50447,1.435809 0.62089,0 0.89253,-0.155223 0.89253,-0.388056 z"
     id="path484"
     style="font-size:146.667px;font-family:'Garamond Libre';-inkscape-font-specification:'Garamond Libre';white-space:pre;shape-padding:14.3503;fill:#ffffff;stroke-width:0.264583" />
  <path
     d="m 251.46393,31.79622 c 0,-3.880565 -1.43581,-7.101433 -4.26862,-9.701412 -2.7552,-2.483562 -6.13129,-3.764148 -10.05066,-3.764148 -4.30743,0 -7.99396,1.397003 -11.0208,4.19101 -3.10446,2.832813 -4.61787,6.441738 -4.61787,10.710359 0,3.880564 1.397,7.101432 4.26862,9.662604 2.7552,2.483562 6.09248,3.764148 10.01185,3.764148 4.30743,0 7.99396,-1.358197 11.02081,-4.152204 3.10445,-2.832812 4.65667,-6.441737 4.65667,-10.710357 z m -3.95817,1.241779 c 0,3.376091 -0.89253,6.131293 -2.7164,8.382021 -1.94028,2.405949 -4.57907,3.608925 -7.87754,3.608925 -3.57013,0 -6.40294,-1.280586 -8.49844,-3.919371 -1.94028,-2.444755 -2.94923,-5.471597 -2.94923,-9.119328 0,-3.376091 0.89253,-6.170096 2.71639,-8.420824 1.94029,-2.40595 4.54027,-3.608925 7.83875,-3.608925 3.57011,0 6.44173,1.280587 8.53724,3.919371 1.94028,2.405949 2.94923,5.471596 2.94923,9.158131 z"
     id="path486"
     style="font-size:146.667px;font-family:'Garamond Libre';-inkscape-font-specification:'Garamond Libre';white-space:pre;shape-padding:14.3503;fill:#ffffff;stroke-width:0.264583" />
  <path
     d="m 169.88223,95.967349 c 0,-3.880565 -1.43581,-7.101433 -4.26862,-9.701411 -2.7552,-2.483562 -6.13129,-3.764148 -10.05066,-3.764148 -4.30743,0 -7.99397,1.397003 -11.02081,4.191011 -3.10445,2.832811 -4.61787,6.441736 -4.61787,10.710357 0,3.880572 1.397,7.101462 4.26862,9.662642 2.7552,2.48356 6.09249,3.76415 10.01186,3.76415 4.30743,0 7.99396,-1.3582 11.0208,-4.15221 3.10445,-2.83282 4.65668,-6.44177 4.65668,-10.710391 z m -3.95818,1.241782 c 0,3.376089 -0.89253,6.131309 -2.71639,8.382049 -1.94028,2.40596 -4.57907,3.60893 -7.87755,3.60893 -3.57012,0 -6.40293,-1.28059 -8.49843,-3.91938 -1.94029,-2.44477 -2.94923,-5.471617 -2.94923,-9.119352 0,-3.376091 0.89253,-6.170099 2.71639,-8.420825 1.94028,-2.405951 4.54026,-3.608924 7.83874,-3.608924 3.57012,0 6.44174,1.280586 8.53724,3.919368 1.94029,2.405951 2.94923,5.471596 2.94923,9.158134 z"
     id="path488"
     style="font-size:146.667px;font-family:'Garamond Libre';-inkscape-font-specification:'Garamond Libre';white-space:pre;shape-padding:14.3503;fill:#ffffff;stroke-width:0.264583" />
  <path
     d="m 191.01016,88.361443 v -5.005927 c 0,-0.349253 -0.0776,-0.504473 -0.27164,-0.504473 -7.64471,0.15522 -11.91333,0.194027 -12.88347,0.194027 -0.23283,0 -2.59998,-0.07761 -7.14024,-0.232834 -0.31044,0 -0.46567,0.155223 -0.46567,0.465667 0,0.582086 0.0388,0.892529 0.11642,0.970142 0.11642,0.116417 0.58209,0.155223 1.3582,0.194027 0.77611,0.03881 1.3582,0.155223 1.74625,0.388057 0.58209,0.388056 0.89253,1.047752 0.89253,2.056699 v 19.558082 c 0,0.97014 -0.31044,1.66864 -0.89253,2.0567 -0.38805,0.23283 -0.97014,0.34925 -1.74625,0.38806 -0.77611,0.0388 -1.24178,0.0776 -1.3582,0.19402 -0.0776,0.0388 -0.11642,0.19403 -0.11642,0.34926 0,0.7373 0.15523,1.08655 0.38806,1.08655 h 0.0776 c 0.58209,0 1.51342,-0.0388 2.7164,-0.11641 1.20297,-0.0776 2.0955,-0.11642 2.67759,-0.11642 0.58208,0 1.51342,0.0388 2.71639,0.11642 1.20298,0.0776 2.09551,0.11641 2.67759,0.11641 h 0.11642 c 0.23283,0 0.34925,-0.11641 0.34925,-0.42686 0,-0.58208 -0.0388,-0.97014 -0.0776,-1.00895 -0.11642,-0.11641 -0.54328,-0.11641 -1.28059,-0.15522 -0.81492,-0.0388 -1.43581,-0.19403 -1.82386,-0.42686 -0.62089,-0.38806 -0.93134,-1.08656 -0.93134,-2.0567 v -9.429809 h 4.85071 2.67759 c 0.7373,0 1.24178,0.19403 1.59103,0.582086 0.54328,1.125363 0.85372,2.017896 0.93133,2.638783 0.0776,0.0776 0.15523,0.11642 0.31045,0.11642 h 0.7373 c 0.23284,-0.0388 0.38806,-0.15522 0.38806,-0.426867 0,-0.42686 -0.0388,-1.04775 -0.0776,-1.901473 -0.0388,-0.853726 -0.0776,-1.474615 -0.0776,-1.901478 0,-0.426861 0.0388,-1.047753 0.0776,-1.901476 0.0388,-0.853726 0.0776,-1.435809 0.0776,-1.862672 0,-0.310444 -0.15522,-0.465667 -0.46567,-0.465667 -0.58208,0 -0.89253,0.03881 -0.97014,0.07761 -0.0776,0.155223 -0.15522,0.271639 -0.15522,0.388056 l -0.0776,0.27164 c -0.27164,0.970142 -0.62089,1.668642 -1.12536,1.979088 -0.6209,0.388057 -1.59104,0.582084 -2.91043,0.582084 h -5.78204 v -6.713376 c 0,-1.785059 0.23283,-2.871618 0.6985,-3.259675 0.42686,-0.388056 1.51342,-0.582083 3.33729,-0.582083 3.49251,0 5.66562,0.194027 6.51935,0.582083 0.6985,0.310446 1.08655,1.008949 1.20297,2.095505 0.11642,0.970143 0.27164,1.435809 0.50447,1.435809 0.62089,0 0.89253,-0.155223 0.89253,-0.388056 z"
     id="path490"
     style="font-size:146.667px;font-family:'Garamond Libre';-inkscape-font-specification:'Garamond Libre';white-space:pre;shape-padding:14.3503;fill:#ffffff;stroke-width:0.264583" />
  <path
     d="m 218.87264,110.05384 c 0,-0.54328 -0.0388,-0.89253 -0.0776,-0.97015 -0.11642,-0.11641 -0.42687,-0.15522 -1.00895,-0.15522 -0.62089,0 -1.12536,-0.15522 -1.51342,-0.38806 -0.62089,-0.38805 -1.16417,-1.08655 -1.55223,-2.0955 l -9.27455,-23.632674 c -0.0776,-0.194029 -0.15522,-0.310446 -0.23283,-0.310446 -0.0776,0 -0.85373,0.465669 -2.36714,1.358199 l -7.83874,22.584921 c -0.54328,1.51342 -1.43581,2.32834 -2.75521,2.44476 -0.31044,0 -0.65969,0.0388 -0.97014,0.0388 -0.34925,0.0388 -0.54328,0.23284 -0.54328,0.50448 0,0.7373 0.15523,1.08655 0.38806,1.08655 h 0.0776 c 0.46567,0 1.20298,-0.0388 2.13431,-0.11641 0.93134,-0.0776 1.66865,-0.11642 2.13431,-0.11642 0.46567,0 1.20298,0.0388 2.13431,0.11642 0.93134,0.0776 1.62984,0.11641 2.13431,0.11641 h 0.0776 c 0.23284,0 0.38806,-0.11641 0.38806,-0.42686 0,-0.58208 -0.0388,-0.93133 -0.11642,-0.97014 -0.58208,-0.11642 -1.20297,-0.19403 -1.78506,-0.27164 -1.00894,-0.15522 -1.51341,-0.6985 -1.51341,-1.55223 0,-0.42686 0.11641,-0.93133 0.34925,-1.59103 l 2.05669,-6.208937 h 9.11933 l 2.59998,6.946247 c 0.19403,0.50447 0.27164,0.93133 0.27164,1.24178 0,0.73731 -0.46567,1.12536 -1.43581,1.20298 -0.31045,0 -0.62089,0.0388 -0.93134,0.0388 -0.38805,0.0388 -0.58208,0.23284 -0.58208,0.50448 0,0.7373 0.11642,1.08655 0.38806,1.08655 h 0.0388 c 0.54328,0 1.3582,-0.0388 2.44476,-0.11641 1.08656,-0.0776 1.90148,-0.11642 2.44475,-0.11642 0.54328,0 1.31939,0.0388 2.40595,0.11642 1.08656,0.0776 1.86268,0.11641 2.40595,0.11641 h 0.11642 c 0.23283,0 0.38806,-0.11641 0.38806,-0.46566 z M 207.73542,97.868827 h -8.03277 l 3.80295,-11.292443 z"
     id="path492"
     style="font-size:146.667px;font-family:'Garamond Libre';-inkscape-font-specification:'Garamond Libre';white-space:pre;shape-padding:14.3503;fill:#ffffff;stroke-width:0.264583" />
  <path
     d="m 251.20122,83.898793 c 0,-0.737307 -0.0776,-1.086557 -0.31045,-1.086557 h -0.15522 c -0.50447,0 -1.24178,0.03881 -2.25073,0.116417 -1.00894,0.07761 -1.78506,0.116417 -2.28953,0.116417 -0.50447,0 -1.24178,-0.03881 -2.25073,-0.116417 -1.00894,-0.07761 -1.78506,-0.116417 -2.28953,-0.116417 h -0.0776 c -0.23283,0 -0.38806,0.155223 -0.38806,0.465667 0,0.582086 0.0388,0.892529 0.11642,0.970142 0.0776,0.07761 0.19403,0.116417 0.34925,0.116417 1.47462,0.116417 2.36715,0.232833 2.7164,0.426863 0.62089,0.34925 0.93133,1.125363 0.93133,2.367142 V 104.427 L 227.06411,83.355516 c -0.31045,-0.349253 -0.54328,-0.54328 -0.6985,-0.54328 0.0388,0 -0.34925,0.03881 -1.16417,0.116417 -0.97014,0.07761 -1.78506,0.116417 -2.40595,0.116417 -0.38806,0 -0.97014,-0.03881 -1.74626,-0.116417 -0.77611,-0.07761 -1.397,-0.116417 -1.78506,-0.116417 h -0.11641 c -0.27164,0 -0.42687,0.155223 -0.42687,0.504473 0,0.582084 0.0388,0.89253 0.15523,0.97014 0.54328,0.03881 1.12536,0.116419 1.66864,0.155223 1.12536,0.155223 2.17312,0.620893 3.10445,1.397006 v 20.334192 c 0,1.24178 -0.34925,2.01789 -0.97014,2.36714 -0.34925,0.19403 -1.24178,0.34926 -2.67759,0.42687 -0.31044,0 -0.46567,0.15522 -0.46567,0.46567 0,0.7373 0.15523,1.08655 0.38806,1.08655 h 0.0776 c 0.50447,0 1.28059,-0.0388 2.28953,-0.11641 1.00895,-0.0776 1.78506,-0.11642 2.28954,-0.11642 0.50447,0 1.24178,0.0388 2.25072,0.11642 1.00895,0.0776 1.74626,0.11641 2.25073,0.11641 h 0.11642 c 0.23283,0 0.34925,-0.11641 0.34925,-0.42686 0,-0.62089 -0.0388,-0.97014 -0.0776,-1.00895 -0.15522,-0.0776 -0.27164,-0.11641 -0.38806,-0.11641 -1.43581,-0.0776 -2.32834,-0.23284 -2.67759,-0.42687 -0.62089,-0.34925 -0.97014,-1.08655 -0.97014,-2.32834 V 87.080857 l 20.6446,23.787893 c 0.31045,0.34925 0.54328,0.50448 0.69851,0.50448 0.19402,0 0.31044,-0.23284 0.31044,-0.6985 V 87.274884 c 0,-1.280586 0.31045,-2.095503 0.93134,-2.444755 0.38805,-0.194027 1.28058,-0.34925 2.71639,-0.465667 0.31045,0 0.46567,-0.155223 0.46567,-0.465669 z"
     id="path494"
     style="font-size:146.667px;font-family:'Garamond Libre';-inkscape-font-specification:'Garamond Libre';white-space:pre;shape-padding:14.3503;fill:#ffffff;stroke-width:0.264583" />
</svg>
