<svg xmlns:xlink="http://www.w3.org/1999/xlink" viewBox="0 0 1993 1456.8"
    width="59.79mm" height="43.704mm"
    xmlns="http://www.w3.org/2000/svg">
<!--  Image copied from https://codepen.io/codepeniolucas/pen/LYYLROb .
      This image was in the public domain, with no copyright notice
      attached.  Modified to set width and height.
-->
    <defs>
        <style>
            .cls-1 , .cls-13, .cls-14 ,.cls-27,.cls-34,.cls-5,.cls-9{fill:none;}.cls-2{fill:#84b8e2;}.cls-3{fill:#e2645a;}.cls-4{fill:#fff;}.cls-5{stroke:#fff;}.cls-19,.cls-5{stroke-miterlimit:10;}.cls-13,.cls-14,.cls-5{stroke-width:3px;}.cls-6{fill:#68bfb7;}.cls-7,.cls-8{fill:#63aa90;}.cls-7{opacity:0.73;isolation:isolate;}.cls-9{stroke:#e2645a;stroke-width:5px;stroke-dasharray:550
            1 13 13
            980;}.cls-13,.cls-14,.cls-27,.cls-34,.cls-9{stroke-linecap:round;stroke-linejoin:round;}.cls-10{clip-path:url(#clip-path);}.cls-11{fill:#5da58e;}.cls-12{fill:#d2f9eb;}.cls-13,.cls-14{stroke:#63aa90;}.cls-13{stroke-dasharray:30
            1 13 13 50;}.cls-14{stroke-dasharray:120 1 13 13
            50;}.cls-15{fill:#f9e193;}.cls-16{fill:#dd6862;}.cls-17{fill:#ea8079;}.cls-18{fill:#5e9e84;}.cls-19,.cls-21{fill:#e09480;}.cls-19{stroke:url(#Gradiente_sem_nome_8);}.cls-20{fill:url(#Gradiente_sem_nome_8-2);}.cls-22{fill:#825a51;}.cls-23{fill:#b27666;}.cls-24{fill:#775349;}.cls-25{fill:#593d36;}.cls-26{fill:url(#Gradiente_sem_nome_3);}.cls-27{stroke:#b27666;stroke-width:2px;stroke-dasharray:0
            12
            3;}.cls-28{fill:#f4d3d3;}.cls-29{fill:#fcd9d2;}.cls-30{fill:url(#Gradiente_sem_nome_8-3);}.cls-31{fill:#e5ab7a;}.cls-32{fill:#cc8a5e;}.cls-33{fill:url(#Gradiente_sem_nome_5);}.cls-34{stroke:#cc8a5e;stroke-width:4px;}.cls-35{fill:#db9c6e;}.cls-36{fill:#86d0cb;}.cls-37{fill:#f7d4bc;}.cls-38{fill:url(#Gradiente_sem_nome_6);}.cls-39{fill:#b5958a;}.cls-40{fill:#ce978d;}.cls-41{fill:url(#Gradiente_sem_nome_7);}.cls-42{fill:url(#Gradiente_sem_nome_8-4);}.cls-43{fill:url(#Gradiente_sem_nome_9);}.cls-44{fill:#442e2a;}
        </style>
        <clipPath id="clip-path">
            <path class="cls-1"
                d="M240.4,996V120a13.27,13.27,0,0,1,13.2-13.3H962.4A13.21,13.21,0,0,1,975.6,120V996" />
        </clipPath>
        <linearGradient gradientTransform="matrix(1, 0, 0, -1, 0, 1224.4)" gradientUnits="userSpaceOnUse" id="Gradiente_sem_nome_8" x1="579.14" x2="781.98"
            y1="621.9" y2="621.9">
            <stop offset="0" stop-color="#fff" stop-opacity="0" />
            <stop offset="1" stop-color="#ff3636" stop-opacity="0.1" />
        </linearGradient>
        <linearGradient id="Gradiente_sem_nome_8-2" x1="751.07" x2="600.01" y1="563.65" y2="650.86"
            xlink:href="#Gradiente_sem_nome_8" />
        <linearGradient gradientTransform="matrix(-0.16, -0.99, -0.92, 0.15, -288.99, 734.93)" gradientUnits="userSpaceOnUse" id="Gradiente_sem_nome_3" x1="45.75" x2="79.79"
            y1="-1098.61"
            y2="-1146.39">
            <stop offset="0" stop-color="#fff" stop-opacity="0" />
            <stop offset="0.26" stop-color="#ffcabd" stop-opacity="0.05" />
            <stop offset="0.51" stop-color="#ff9c83" stop-opacity="0.1" />
            <stop offset="0.73" stop-color="#ff7a59" stop-opacity="0.15" />
            <stop offset="0.9" stop-color="#ff663f" stop-opacity="0.18" />
            <stop offset="1" stop-color="#ff5e36" stop-opacity="0.2" />
        </linearGradient>
        <linearGradient id="Gradiente_sem_nome_8-3" x1="393.1" x2="393.1" y1="637.8" y2="396.08"
            xlink:href="#Gradiente_sem_nome_8" />
        <linearGradient gradientTransform="matrix(0.61, -0.8, -0.74, -0.57, -31.74, 790.46)" gradientUnits="userSpaceOnUse" id="Gradiente_sem_nome_5" x1="452.46" x2="508.54"
            y1="-311.69"
            y2="-311.69">
            <stop offset="0" stop-color="#fff" stop-opacity="0" />
            <stop offset="1" stop-color="#ff3636" stop-opacity="0.2" />
        </linearGradient>
        <linearGradient gradientTransform="matrix(1, 0, 0, -1, 0, 1224.4)" gradientUnits="userSpaceOnUse" id="Gradiente_sem_nome_6" x1="1157.23" x2="1157.23"
            y1="554.46" y2="672.1">
            <stop offset="0" stop-color="#fff" stop-opacity="0" />
            <stop offset="0.02" stop-color="#f9f1f0" stop-opacity="0" />
            <stop offset="0.1" stop-color="#e6c8c5" stop-opacity="0.02" />
            <stop offset="0.19" stop-color="#d6a49e" stop-opacity="0.04" />
            <stop offset="0.28" stop-color="#c8867e" stop-opacity="0.06" />
            <stop offset="0.38" stop-color="#bc6d64" stop-opacity="0.08" />
            <stop offset="0.49" stop-color="#b45a4f" stop-opacity="0.1" />
            <stop offset="0.61" stop-color="#ae4c41" stop-opacity="0.12" />
            <stop offset="0.76" stop-color="#aa4439" stop-opacity="0.15" />
            <stop offset="1" stop-color="#a94236" stop-opacity="0.2" />
        </linearGradient>
        <linearGradient gradientTransform="matrix(0.07, -1, -0.93, -0.07, -147.21, 807.58)" gradientUnits="userSpaceOnUse" id="Gradiente_sem_nome_7" x1="344.93"
            x2="400.93" y1="-1349.34"
            y2="-1349.34">
            <stop offset="0" stop-color="#fff" stop-opacity="0" />
            <stop offset="0.05" stop-color="#fff0f0" stop-opacity="0" />
            <stop offset="0.23" stop-color="#ffb8b8" stop-opacity="0.02" />
            <stop offset="0.41" stop-color="#ff8989" stop-opacity="0.04" />
            <stop offset="0.58" stop-color="#ff6565" stop-opacity="0.06" />
            <stop offset="0.74" stop-color="#ff4b4b" stop-opacity="0.07" />
            <stop offset="0.89" stop-color="#ff3b3b" stop-opacity="0.09" />
            <stop offset="1" stop-color="#ff3636" stop-opacity="0.1" />
        </linearGradient>
        <linearGradient gradientTransform="matrix(0.07, -1, -0.93, -0.07, -147.21, 807.58)" id="Gradiente_sem_nome_8-4" x1="295.54" x2="323.54"
            y1="-1394.14" y2="-1394.14"
            xlink:href="#Gradiente_sem_nome_8" />
        <linearGradient gradientTransform="matrix(0.5, -0.87, -0.81, -0.47, -58.32, 797.1)" gradientUnits="userSpaceOnUse" id="Gradiente_sem_nome_9" x1="838.41"
            x2="894.25" y1="-1041.42"
            y2="-1041.42">
            <stop offset="0" stop-color="#fff" stop-opacity="0" />
            <stop offset="0.07" stop-color="#ffe9e9" stop-opacity="0.01" />
            <stop offset="0.24" stop-color="#ffb3b3" stop-opacity="0.02" />
            <stop offset="0.42" stop-color="#ff8686" stop-opacity="0.04" />
            <stop offset="0.59" stop-color="#ff6363" stop-opacity="0.06" />
            <stop offset="0.74" stop-color="#ff4a4a" stop-opacity="0.07" />
            <stop offset="0.88" stop-color="#ff3b3b" stop-opacity="0.09" />
            <stop offset="1" stop-color="#ff3636" stop-opacity="0.1" />
        </linearGradient>
    </defs>
    <title>Reunião</title>
    <g data-name="Camada 2" id="Camada_2">
        <g id="Monitor">
            <g data-name="Linha 5" id="Linha_5">
                <path class="cls-2"
                    d="M1307.8,479.9h-49.1a2.5,2.5,0,0,1,0-5h49.1a2.5,2.5,0,0,1,0,5Z" />
                <path class="cls-3"
                    d="M1879.55,690.77h-508a22.21,22.21,0,0,1-22.2-22.2V315a22.21,22.21,0,0,1,22.2-22.2h508a22.21,22.21,0,0,1,22.2,22.2v353.6A22.21,22.21,0,0,1,1879.55,690.77Z" />
                <circle class="cls-4" cx="1833.65" cy="672.97" r="9.7" />
                <circle class="cls-5" cx="1803.95" cy="672.97" r="8.6" />
                <path class="cls-4"
                    d="M1868.15,655.67h-485.4a13.83,13.83,0,0,1-13.8-13.8V331.37a13.83,13.83,0,0,1,13.8-13.8h485.4a13.83,13.83,0,0,1,13.8,13.8v310.5A13.89,13.89,0,0,1,1868.15,655.67Z" />
                <path class="cls-6"
                    d="M1730.75,615.17a5,5,0,0,1-5-5V486.67a97.9,97.9,0,0,0-195.8,0v123.4a5,5,0,0,1-10,0V486.67a107.9,107.9,0,0,1,215.8,0v123.5A5,5,0,0,1,1730.75,615.17Z" />
                <path class="cls-7"
                    d="M1466.75,598.07h-13.7A17.16,17.16,0,0,1,1436,581V459.77a17.16,17.16,0,0,1,17.1-17.1h13.7a17.16,17.16,0,0,1,17.1,17.1V581A17.16,17.16,0,0,1,1466.75,598.07Z" />
                <path class="cls-4"
                    d="M1629.55,375.07a14.49,14.49,0,0,1,5.4-5.2,10.79,10.79,0,0,1,11.9,1.2c2.1,1.7,3.8,4.8,3.8,9.2,0,0,.6,4.8-3.5,10.8a29.34,29.34,0,0,1-7.5,7.4c-2.3,1.7-5.8,4-9.8,6.4h-.4c-4.1-2.3-7.6-4.5-10-6.1-4.5-3.2-8.2-6.7-10.2-11.9-2.8-7.3-.7-12.8,2.2-15.3a10.84,10.84,0,0,1,11.9-1.6,13.66,13.66,0,0,1,5.5,5.1" />
                <path class="cls-8" d="M1500.35,613.87h-84.6a2,2,0,0,1,0-4h84.6a2,2,0,0,1,0,4Z" />
                <path class="cls-8" d="M1836.55,613.87H1752a2,2,0,0,1,0-4h84.6a2,2,0,0,1,0,4Z" />
                <path class="cls-8" d="M1709.65,613.87h-162.4a2,2,0,0,1,0-4h162.4a2,2,0,0,1,0,4Z" />
                <path class="cls-8"
                    d="M1462.35,514.21V561.9l6.82-16.86a3,3,0,0,1,5.56,2.25l-12.3,30.4a.8.8,0,0,1-.08.16v26a3,3,0,0,1-2.29,2.91,2.94,2.94,0,0,1-.71.09,3,3,0,0,1-2.66-1.62l-16.1-31a3,3,0,1,1,5.32-2.77l10.44,20.1V544.43a2.85,2.85,0,0,1-1-1.18l-12.1-25.6a3,3,0,1,1,5.42-2.56l7.69,16.27V473.27a3,3,0,0,1,6,0v25.08l7.4-19.07a3,3,0,0,1,5.6,2.17l-12.3,31.7A3,3,0,0,1,1462.35,514.21Z" />
                <circle class="cls-3" cx="1445.75" cy="528.97" r="4.4" />
                <circle class="cls-3" cx="1473.35" cy="557.77" r="4.4" />
                <circle class="cls-3" cx="1442.95" cy="583.37" r="4.4" />
                <circle class="cls-3" cx="1472.85" cy="496.17" r="4.4" />
                <path class="cls-7"
                    d="M1787,598.07h13.7a17.16,17.16,0,0,0,17.1-17.1V459.67a17.16,17.16,0,0,0-17.1-17.1H1787a17.16,17.16,0,0,0-17.1,17.1v121.2a17.05,17.05,0,0,0,17.1,17.2Z" />
                <path class="cls-8"
                    d="M1813,574.25l-16.1,31a3,3,0,0,1-2.66,1.62,2.88,2.88,0,0,1-.71-.09,3,3,0,0,1-2.29-2.91v-26a.8.8,0,0,1-.08-.16l-12.3-30.4a3,3,0,0,1,5.56-2.25l6.82,16.86V514.21a3,3,0,0,1-.7-1.06l-12.3-31.7a3,3,0,0,1,5.6-2.17l7.4,19.07V473.27a3,3,0,0,1,6,0v58.09l7.69-16.27a3,3,0,1,1,5.42,2.56l-12.1,25.6a2.85,2.85,0,0,1-1,1.18v47.15l10.44-20.1a3,3,0,1,1,5.32,2.77Z" />
                <circle class="cls-3" cx="1807.85" cy="528.97" r="4.4" />
                <circle class="cls-3" cx="1780.25" cy="557.77" r="4.4" />
                <circle class="cls-3" cx="1810.75" cy="583.37" r="4.4" />
                <circle class="cls-3" cx="1780.75" cy="496.17" r="4.4" />
                <path class="cls-3"
                    d="M1669.55,549a4.5,4.5,0,0,1-4.5,4.5h-3.5v58.4a4.5,4.5,0,1,1-9,0v-58.4h-50.5v58.4a4.5,4.5,0,1,1-9,0v-58.4h-4.6a4.5,4.5,0,0,1,0-9h76.6A4.49,4.49,0,0,1,1669.55,549Z" />
                <path class="cls-3"
                    d="M1630.35,408.47h-.4a3.5,3.5,0,0,1-1.68-.43c-3.43-1.88-7-4-10.46-6.36l-.1-.07c-4.38-3.14-9.19-7.23-11.63-13.71a22.42,22.42,0,0,1-1.55-8,15,15,0,0,1,4.73-11.5,14.56,14.56,0,0,1,9.62-3.64,14.91,14.91,0,0,1,6.34,1.41,16.59,16.59,0,0,1,4.36,3.06,17.37,17.37,0,0,1,4.2-3.26,14.79,14.79,0,0,1,6.82-1.71,14.61,14.61,0,0,1,9.28,3.39c3.21,2.6,5.15,7.1,5.17,12V380a24.07,24.07,0,0,1-4.17,12.65,37.2,37.2,0,0,1-8.4,8.47c-2.6,1.93-6.34,4.4-10.31,6.82A3.55,3.55,0,0,1,1630.35,408.47Zm-8.61-12.58c2.79,1.86,5.59,3.58,8.33,5.14,3.18-2,6.17-4,8.2-5.48a30.17,30.17,0,0,0,6.8-6.77,16.91,16.91,0,0,0,3-8.76v-.25c0-3.37-1.34-5.66-2.6-6.68a7.48,7.48,0,0,0-8.37-.92,12.28,12.28,0,0,0-4.1,4.05,4,4,0,0,1-6.53.15,11.53,11.53,0,0,0-4.19-3.84,8.15,8.15,0,0,0-3.38-.75,7.46,7.46,0,0,0-5,1.91,8.21,8.21,0,0,0-2.34,6.23,15.72,15.72,0,0,0,1.09,5.51C1614.3,389.87,1617.48,392.83,1621.74,395.89Z" />
            </g>
            <path class="cls-9"
                d="M1916.1,396.1V679.8a23.24,23.24,0,0,1-23.4,23.4H1358.9a23.43,23.43,0,0,1-23.4-23.4V303.6a23.43,23.43,0,0,1,23.4-23.4h533.8a23.43,23.43,0,0,1,23.4,23.4v38.88" />
        </g>
        <g data-name="Camada 1" id="Camada_1-2">
            <g class="cls-10">
                <path class="cls-11" d="M176.8,564.7v625.2H281.9V554.3Z" />
                <path class="cls-8"
                    d="M359.4,483.9a1.47,1.47,0,0,1-.6-2.8,137.88,137.88,0,0,0,39.3-29.6,1.49,1.49,0,0,1,2.2,2,143.93,143.93,0,0,1-40.2,30.2,2.54,2.54,0,0,1-.7.2Zm-115.7-.1a1.85,1.85,0,0,1-.7-.2l-.9-.5a1.5,1.5,0,1,1,1.3-2.7l.9.4a1.63,1.63,0,0,1,.7,2A1.27,1.27,0,0,1,243.7,483.8Zm-12.2-6.9a2.35,2.35,0,0,1-.8-.2c-3.7-2.3-7.3-4.8-10.8-7.4a1.5,1.5,0,1,1,1.8-2.4c3.4,2.6,7,5,10.6,7.3a1.58,1.58,0,0,1,.5,2.1,1.61,1.61,0,0,1-1.3.6Zm176.1-32.8a1.4,1.4,0,0,1-.9-.3,1.46,1.46,0,0,1-.2-2.1c2.6-3.3,5.2-6.8,7.6-10.4.1-.1.2-.3.3-.4s.1-.3.2-.5c19-28.8,29.1-63.4,29.1-99.9,0-4.5-.2-9-.5-13.5a1.5,1.5,0,1,1,3-.2c.3,4.6.5,9.2.5,13.7,0,37.1-10.2,72.2-29.6,101.5-.1.1-.2.3-.3.4s-.1.3-.2.5c-2.4,3.6-5,7.2-7.7,10.6a1.94,1.94,0,0,1-1.3.6ZM186.3,433.7a1.43,1.43,0,0,1-1.2-.6c-19.4-27.5-31-60.7-33.4-95.9-.3-4.6-.5-9.2-.5-13.7v-4.4a1.3,1.3,0,0,0,0-1c.1-4.4.4-8.8.8-13.1a1.5,1.5,0,0,1,3,.2c-.4,4.2-.7,8.6-.8,12.9a1.3,1.3,0,0,0,0,1v4.4c0,4.5.2,9,.5,13.5,2.4,34.7,13.7,67.3,32.8,94.4a1.48,1.48,0,0,1-.4,2.1A1.88,1.88,0,0,1,186.3,433.7ZM444.1,311.5a1.51,1.51,0,0,1-1.5-1.3,190.7,190.7,0,0,0-11.4-48.1,1.49,1.49,0,1,1,2.8-1A196,196,0,0,1,445.6,310a1.4,1.4,0,0,1-1.3,1.6A.31.31,0,0,0,444.1,311.5ZM155.3,293.7h-.2a1.41,1.41,0,0,1-1.2-1.7,182.14,182.14,0,0,1,14.8-48,1.5,1.5,0,1,1,2.7,1.3,180.42,180.42,0,0,0-14.5,47.3,1.88,1.88,0,0,1-1.6,1.1ZM427.6,251a1.51,1.51,0,0,1-1.4-.9c-1.8-3.9-3.8-7.8-5.8-11.5-.1-.2-.1-.3-.2-.5a1.38,1.38,0,0,1-.3-.4c-20.5-36.5-53.1-63.3-89.4-73.5a1.52,1.52,0,1,1,.9-2.9c37.6,10.6,70,37.2,91.2,75,.1.2.1.3.2.5a1.38,1.38,0,0,1,.3.4c2.1,3.8,4.1,7.7,5.9,11.7a1.59,1.59,0,0,1-.7,2,2,2,0,0,1-.7.1ZM255.1,166.2a1.5,1.5,0,0,1-1.4-1,1.53,1.53,0,0,1,.9-1.9l1-.3a1.52,1.52,0,1,1,.9,2.9l-.9.3Zm13.5-3.7a1.59,1.59,0,0,1-1.5-1.2,1.49,1.49,0,0,1,1.1-1.8c4.3-.9,8.6-1.7,13-2.2a1.51,1.51,0,1,1,.4,3c-4.2.5-8.5,1.2-12.7,2.1-.1,0-.2.1-.3.1Z" />
                <ellipse class="cls-11" cx="267.8" cy="332.7" rx="146.1" ry="169.1" />
                <ellipse class="cls-11" cx="238.3" cy="175.2" rx="112.8" ry="130.6" />
                <ellipse class="cls-11" cx="184.5" cy="290.4" rx="146.1" ry="169.1" />
                <path class="cls-8"
                    d="M164.5,451.9h0l-1.1-.1a1.48,1.48,0,0,1-1.4-1.6,1.54,1.54,0,0,1,1.6-1.4h1a1.42,1.42,0,0,1,1.4,1.6A1.54,1.54,0,0,1,164.5,451.9Zm39.5-4.4a1.32,1.32,0,0,1-1.4-1.1,1.49,1.49,0,0,1,1.1-1.8c24.7-6.7,47.6-21.1,66.2-41.4a1.49,1.49,0,0,1,2.2,2c-18.9,20.8-42.3,35.4-67.6,42.3ZM89.8,424a1.61,1.61,0,0,1-.9-.3c-3.4-2.6-6.8-5.5-10.1-8.4a1.49,1.49,0,0,1,2-2.2c3.2,2.9,6.5,5.7,9.9,8.3a1.46,1.46,0,0,1,.3,2.1,1.66,1.66,0,0,1-1.2.5Zm189.5-28.3a1.61,1.61,0,0,1-.9-.3,1.46,1.46,0,0,1-.3-2.1,177.23,177.23,0,0,0,32.7-71.5c0-.2.1-.3.2-.5v-.5a191.54,191.54,0,0,0,4-39.4v-2a1.54,1.54,0,0,1,1.5-1.5,1.47,1.47,0,0,1,1.5,1.5v2.1a197.42,197.42,0,0,1-4.1,40c0,.2-.1.3-.2.5v.5a179.3,179.3,0,0,1-33.3,72.7,1.43,1.43,0,0,1-1.1.5ZM36.1,349.5a1.5,1.5,0,0,1-1.4-1,197.36,197.36,0,0,1-9.9-39V309c-.1-.1-.1-.3-.2-.5a204.86,204.86,0,0,1-1.9-27.2,193.72,193.72,0,0,1,7.2-52.7,1.46,1.46,0,0,1,2.8.8,191.76,191.76,0,0,0-7.1,51.9A196.29,196.29,0,0,0,27.4,308v.5c.1.1.1.3.2.5a191.26,191.26,0,0,0,9.7,38.4,1.45,1.45,0,0,1-.9,1.9c.1.2-.1.2-.3.2Zm279.8-81.6a1.52,1.52,0,0,1-1.5-1.4A184,184,0,0,0,292.1,191c-.1-.2-.1-.3-.2-.5a1.38,1.38,0,0,1-.3-.4,166.16,166.16,0,0,0-23.3-32,1.49,1.49,0,1,1,2.2-2,171.54,171.54,0,0,1,23.7,32.5c.1.2.1.3.2.5a1.38,1.38,0,0,1,.3.4,188.25,188.25,0,0,1,22.6,76.8,1.54,1.54,0,0,1-1.4,1.6ZM35.4,218.2a.9.9,0,0,1-.5-.1,1.45,1.45,0,0,1-.9-1.9c9.3-26.1,24.3-49.3,43.3-67.2a1.49,1.49,0,0,1,2,2.2c-18.7,17.6-33.4,40.4-42.5,66a1.5,1.5,0,0,1-1.4,1Zm75.4-89.8a1.44,1.44,0,0,1-1.3-.8,1.49,1.49,0,0,1,.6-2l.9-.5a1.5,1.5,0,1,1,1.3,2.7l-.9.5C111.3,128.4,111,128.4,110.8,128.4ZM202,117.7h-.4a108,108,0,0,0-12.6-2.5,1.51,1.51,0,0,1,.4-3,117.86,117.86,0,0,1,12.9,2.6,1.49,1.49,0,0,1,1.1,1.8,1.32,1.32,0,0,1-1.4,1.1Z" />
                <ellipse class="cls-8" cx="189.7" cy="303.2" rx="92.3" ry="106.8" />
                <ellipse class="cls-8" cx="292.2" cy="369.8" rx="92.3" ry="106.8" />
                <path class="cls-12"
                    d="M292.2,478.1q-3.75,0-7.5-.3a1.5,1.5,0,1,1,.2-3,76.94,76.94,0,0,0,12.7.1h.5a.75.75,0,0,1,.5-.1c47.2-3.9,84.3-50,84.3-105.1a1.5,1.5,0,1,1,3,0c0,27.5-9,53.8-25.2,73.9s-38.2,32.2-61.8,34.1h-.5a.9.9,0,0,1-.5.1,36.31,36.31,0,0,1-5.7.3ZM272,475.6h-.4c-16-4.1-30.8-13.1-42.9-26a1.49,1.49,0,1,1,2.2-2,87.82,87.82,0,0,0,41.5,25.1,1.49,1.49,0,0,1,1.1,1.8,1.63,1.63,0,0,1-1.5,1.1ZM384.1,362.8a1.52,1.52,0,0,1-1.5-1.4c-.3-4.3-.8-8.6-1.5-12.7v-.5c-.1-.1-.1-.3-.2-.5-4.3-23.2-15.4-44.4-31.4-59.5-16.1-15.3-36.5-23.7-57.4-23.7a80.62,80.62,0,0,0-15.5,1.5,1.53,1.53,0,0,1-.6-3,79.21,79.21,0,0,1,16.1-1.6c21.6,0,42.7,8.7,59.4,24.5,16.4,15.6,27.9,37.3,32.3,61.1v.5c.1.1.1.3.2.5a114.28,114.28,0,0,1,1.6,13.1,1.54,1.54,0,0,1-1.4,1.6C384.2,362.8,384.2,362.8,384.1,362.8ZM216.3,310.5a2.35,2.35,0,0,1-.8-.2,1.55,1.55,0,0,1-.5-2.1l.5-.9a1.53,1.53,0,0,1,2.6,1.6l-.5.8a1.37,1.37,0,0,1-1.3.8Zm7.9-11.5a1.4,1.4,0,0,1-.9-.3,1.46,1.46,0,0,1-.2-2.1,103.86,103.86,0,0,1,8.8-9.8,1.48,1.48,0,0,1,2.1,2.1,98.2,98.2,0,0,0-8.6,9.5,1.43,1.43,0,0,1-1.2.6Z" />
                <ellipse class="cls-11" cx="146.1" cy="472.3" rx="146.1" ry="169.1" />
                <ellipse class="cls-11" cx="305" cy="500.5" rx="146.1" ry="169.1" />
                <ellipse class="cls-8" cx="168.4" cy="506.1" rx="114.5" ry="132.6" />
                <path class="cls-12"
                    d="M168.4,640.3a81.24,81.24,0,0,1-8.6-.4,1.5,1.5,0,1,1,.2-3,109.41,109.41,0,0,0,12.8.3,1.5,1.5,0,1,1,.2,3c-1.6,0-3.1.1-4.6.1ZM147,638h-.3c-38.1-8.3-70-38-85.2-79.4a1.49,1.49,0,0,1,2.8-1c14.8,40.4,45.9,69.4,83,77.5a1.49,1.49,0,0,1,1.1,1.8A1.41,1.41,0,0,1,147,638Zm64.4-7.4a1.53,1.53,0,0,1-.7-2.9c20.6-9.7,38.2-26.1,50.8-47.4,13-21.9,19.8-47.5,19.8-74.2,0-36.2-13.1-71.1-35.9-95.8a1.49,1.49,0,1,1,2.2-2c23.3,25.3,36.7,60.9,36.7,97.9,0,27.2-7,53.4-20.2,75.7-13,21.9-31,38.7-52.2,48.6a4.33,4.33,0,0,1-.5.1ZM84.4,417.4a1.4,1.4,0,0,1-.9-.3,1.46,1.46,0,0,1-.2-2.1,121.14,121.14,0,0,1,30-26.9,1.53,1.53,0,0,1,1.6,2.6A117.42,117.42,0,0,0,85.6,417,2.45,2.45,0,0,1,84.4,417.4Zm41-32.8a1.53,1.53,0,0,1-.7-2.9,92.11,92.11,0,0,1,12.3-4.8,1.52,1.52,0,0,1,.9,2.9,108.84,108.84,0,0,0-11.9,4.7c-.1.1-.4.1-.6.1Z" />
                <ellipse class="cls-8" cx="300.6" cy="571.8" rx="114.5" ry="132.6" />
                <ellipse class="cls-11" cx="290.4" cy="641" rx="114.5" ry="132.6" />
                <ellipse class="cls-11" cx="153" cy="634.3" rx="114.5" ry="132.6" />
                <ellipse class="cls-13" cx="132.5" cy="644.5" rx="114.5" ry="132.6" />
            </g>
            <g class="cls-10">
                <path class="cls-11" d="M922.4,913.2v543.6h91.4V904.2Z" />
                <ellipse class="cls-14" cx="1028.65" cy="706.53" rx="127.01" ry="147.11"
                    transform="translate(-45.92 72.01) rotate(-3.92)" />
                <ellipse class="cls-11" cx="1001.6" cy="711.4" rx="127" ry="147.1" />
                <ellipse class="cls-11" cx="975.9" cy="574.5" rx="98" ry="113.5" />
                <ellipse class="cls-11" cx="929.1" cy="674.6" rx="127" ry="147.1" />
                <path class="cls-8"
                    d="M918.5,815.4a1.54,1.54,0,0,1-1.5-1.5,1.47,1.47,0,0,1,1.5-1.5c26.1-.4,51.1-10,72.2-27.8a1.49,1.49,0,0,1,1.9,2.3C971,805.1,945.4,815,918.5,815.4Zm-39.2-6.5a.9.9,0,0,1-.5-.1l-1-.3a1.45,1.45,0,0,1-.9-1.9,1.48,1.48,0,0,1,1.9-.9l.9.3a1.45,1.45,0,0,1,.9,1.9A1.3,1.3,0,0,1,879.3,808.9Zm121.9-30.5a1.16,1.16,0,0,1-1-.4,1.45,1.45,0,0,1,0-2.1c17.9-18.4,30.9-42.2,37.4-68.7,0-.2.1-.3.2-.5v-.5a165.72,165.72,0,0,0,4.6-39.3c0-2.2,0-4.3-.1-6.5a1.5,1.5,0,1,1,3-.2c.1,2.2.1,4.4.1,6.6a172.3,172.3,0,0,1-4.7,40c0,.2-.1.3-.2.5v.5c-6.7,27.1-19.9,51.3-38.2,70.1a1.82,1.82,0,0,1-1.1.5ZM817,759.2a1.21,1.21,0,0,1-1.2-.7c-2.4-3.6-4.8-7.3-6.9-11.2a1.48,1.48,0,0,1,2.6-1.4c2.1,3.8,4.4,7.4,6.8,10.9a1.48,1.48,0,0,1-.4,2.1,1.61,1.61,0,0,1-.9.3Zm-27.1-87.6a1.54,1.54,0,0,1-1.5-1.5v-3.3a166.42,166.42,0,0,1,4-36.7c0-.2.1-.3.2-.5v-.5c6.1-27.2,18.8-51.7,36.7-70.9a1.49,1.49,0,0,1,2.2,2c-17.5,18.9-29.9,42.9-36,69.6,0,.2-.1.3-.2.5v.5a167,167,0,0,0-3.9,36.1v3.3a1.52,1.52,0,0,1-1.5,1.4Zm232-85.9a1.71,1.71,0,0,1-1.3-.7c-2.2-3.7-4.5-7.3-7-10.8a1.51,1.51,0,0,1,2.5-1.7c2.5,3.5,4.9,7.2,7.1,11a1.6,1.6,0,0,1-.5,2.1c-.2,0-.5.1-.8.1ZM839.6,551.6a1.61,1.61,0,0,1-1.1-.5,1.45,1.45,0,0,1,.1-2.1c21.2-18.8,46.5-29.4,73.3-30.6a1.5,1.5,0,1,1,.2,3c-26,1.2-50.7,11.5-71.4,29.9a2.28,2.28,0,0,1-1.1.3Zm112.7-24.5a.9.9,0,0,1-.5-.1l-.9-.3a1.52,1.52,0,1,1,.9-2.9c.3.1.6.2,1,.3a1.45,1.45,0,0,1,.9,1.9A1.47,1.47,0,0,1,952.3,527.1Z" />
                <ellipse class="cls-8" cx="933.6" cy="685.8" rx="80.2" ry="92.9" />
                <ellipse class="cls-8" cx="1022.7" cy="743.7" rx="80.2" ry="92.9" />
                <path class="cls-12"
                    d="M1065.06,824.1a1.53,1.53,0,0,1-1.22-.62,1.51,1.51,0,0,1,.34-2.1c12.87-9.29,23.11-22.58,29.62-38.44a1.5,1.5,0,1,1,2.77,1.14c-6.71,16.37-17.31,30.12-30.63,39.74A1.53,1.53,0,0,1,1065.06,824.1ZM947.11,776.31a1.51,1.51,0,0,1-1.44-1.06l-.29-1a1.5,1.5,0,0,1,2.88-.86l.28,1a1.5,1.5,0,0,1-1,1.87A1.39,1.39,0,0,1,947.11,776.31Zm152.22-3.61a1.32,1.32,0,0,1-.39-.06,1.49,1.49,0,0,1-1.06-1.83,105.61,105.61,0,0,0,2.53-12.55,1.23,1.23,0,0,1,.15-.48,1.39,1.39,0,0,1,0-.5,107.65,107.65,0,0,0,.86-13.58c0-50.4-35.3-91.4-78.7-91.4-28.94,0-55.49,18.39-69.27,48a1.5,1.5,0,1,1-2.72-1.26c14.28-30.68,41.87-49.73,72-49.73,45,0,81.7,42.35,81.7,94.4a109.94,109.94,0,0,1-.89,14,1.34,1.34,0,0,1-.15.49,1.51,1.51,0,0,1,0,.52,107.28,107.28,0,0,1-2.6,12.91A1.51,1.51,0,0,1,1099.33,772.7Zm-155.41-10a1.5,1.5,0,0,1-1.48-1.26,107.86,107.86,0,0,1-1.34-13.1,1.5,1.5,0,0,1,3-.13A106.11,106.11,0,0,0,945.4,761a1.51,1.51,0,0,1-1.24,1.72Z" />
                <ellipse class="cls-11" cx="895.7" cy="832.9" rx="127" ry="147.1" />
                <ellipse class="cls-11" cx="1033.9" cy="857.4" rx="127" ry="147.1" />
                <ellipse class="cls-8" cx="915.1" cy="862.2" rx="99.6" ry="115.3" />
                <path class="cls-12"
                    d="M917.25,979a1.5,1.5,0,0,1,0-3c38.13-.93,72.62-27.76,87.87-68.36a1.5,1.5,0,0,1,2.81,1C992.2,950.41,956.64,978,917.28,979Zm93.17-81.72a1.58,1.58,0,0,1-.38,0,1.5,1.5,0,0,1-1.07-1.84c1.07-4.11,2-8.34,2.63-12.57a1.5,1.5,0,0,1,3,.47c-.68,4.33-1.59,8.66-2.69,12.87A1.5,1.5,0,0,1,1010.42,897.25ZM817.17,884.83a1.5,1.5,0,0,1-1.48-1.26,136.1,136.1,0,0,1-.37-40.29,1.5,1.5,0,1,1,3,.42,133.18,133.18,0,0,0,.36,39.39,1.5,1.5,0,0,1-1.24,1.72Zm196.18-40.14a1.5,1.5,0,0,1-1.48-1.28c-3.77-26.3-15.53-50.37-33.1-67.79C961,758.07,938.43,748.4,915.1,748.4c-1.4,0-2.82,0-4.22.1a1.5,1.5,0,1,1-.15-3c1.45-.07,2.92-.12,4.37-.11,24.13,0,47.49,10,65.78,28.09,18,17.87,30.1,42.55,34,69.49a1.5,1.5,0,0,1-1.27,1.7ZM819.26,832.23a1.53,1.53,0,0,1-1.46-1.86,127.71,127.71,0,0,1,3.77-12.59,1.5,1.5,0,0,1,2.82,1,128.13,128.13,0,0,0-3.68,12.3A1.49,1.49,0,0,1,819.26,832.23Z" />
                <ellipse class="cls-8" cx="1030.1" cy="919.3" rx="99.6" ry="115.3" />
                <ellipse class="cls-11" cx="1021.2" cy="979.5" rx="99.6" ry="115.3" />
                <path class="cls-12"
                    d="M1021.2,1096.3a87.89,87.89,0,0,1-26.9-4.2,1.52,1.52,0,1,1,.9-2.9,85,85,0,0,0,26,4c30.1,0,58-15.7,76.8-43a1.51,1.51,0,1,1,2.5,1.7C1081.1,1080.2,1052.2,1096.3,1021.2,1096.3Zm-35.8-7.7a1.27,1.27,0,0,1-.6-.1,99.6,99.6,0,0,1-32.6-23.7,1.49,1.49,0,0,1,2.2-2,98,98,0,0,0,31.7,23,1.51,1.51,0,0,1,.8,2,2.06,2.06,0,0,1-1.5.8ZM945,1055.3a1.43,1.43,0,0,1-1.2-.6,91,91,0,0,1-7.1-11.1,1.48,1.48,0,1,1,2.6-1.4,110.78,110.78,0,0,0,7,10.8,1.55,1.55,0,0,1-.3,2.1A4.4,4.4,0,0,1,945,1055.3Zm160.9-13.7a1.85,1.85,0,0,1-.7-.2,1.49,1.49,0,0,1-.6-2,122.16,122.16,0,0,0,5.4-11.6,1.52,1.52,0,0,1,2.8,1.2,99.49,99.49,0,0,1-5.6,11.9,1.43,1.43,0,0,1-1.3.7Zm14.5-50.6h-.1a1.62,1.62,0,0,1-1.4-1.6c.2-3.3.4-6.6.4-9.9a1.5,1.5,0,0,1,3,0c0,3.4-.1,6.8-.4,10.1A1.52,1.52,0,0,1,1120.4,991Zm-.2-22.3a1.52,1.52,0,0,1-1.5-1.4c-.4-4.3-1-8.5-1.8-12.7a1.53,1.53,0,0,1,3-.6c.8,4.3,1.4,8.7,1.8,13a1.42,1.42,0,0,1-1.4,1.6c0,.1,0,.1-.1.1Zm-4.9-25.5a1.47,1.47,0,0,1-1.4-1.1,122.47,122.47,0,0,0-17.2-35.4,1.5,1.5,0,0,1,2.4-1.8,122,122,0,0,1,17.7,36.2,1.58,1.58,0,0,1-1,1.9.65.65,0,0,1-.5.2ZM932.4,928.7a1.27,1.27,0,0,1-.6-.1,1.51,1.51,0,0,1-.8-2c1.4-3.1,2.9-6.1,4.5-9.1a1.48,1.48,0,0,1,2.6,1.4,91.26,91.26,0,0,0-4.3,8.9,1.69,1.69,0,0,1-1.4.9Zm159.3-29.1a1.61,1.61,0,0,1-1.1-.5c-18.5-21.5-43.2-33.4-69.4-33.4a86.92,86.92,0,0,0-37.3,8.5,1.5,1.5,0,0,1-1.3-2.7,89.34,89.34,0,0,1,38.6-8.8c27.1,0,52.5,12.2,71.6,34.4a1.46,1.46,0,0,1-.2,2.1,1.49,1.49,0,0,1-.9.4Zm-130.1-11a1.61,1.61,0,0,1-1.1-.5,1.46,1.46,0,0,1,.2-2.1,100.33,100.33,0,0,1,10.5-8,1.51,1.51,0,1,1,1.7,2.5,104.88,104.88,0,0,0-10.2,7.7,1.86,1.86,0,0,1-1.1.4Z" />
                <ellipse class="cls-11" cx="901.7" cy="973.7" rx="99.6" ry="115.3" />
                <path class="cls-8"
                    d="M889,1099.2a1.45,1.45,0,0,1-1.5-1.4,1.62,1.62,0,0,1,1.4-1.6,76.34,76.34,0,0,0,12.6-1.7,1.53,1.53,0,0,1,.6,3,82.4,82.4,0,0,1-13.1,1.7Zm25.3-5.3a1.5,1.5,0,0,1-1.4-1,1.45,1.45,0,0,1,.9-1.9l.9-.3a1.49,1.49,0,1,1,1,2.8l-.9.4Zm-73.4-5.8a1.85,1.85,0,0,1-.7-.2,101.22,101.22,0,0,1-24-18.6c-.1-.1-.2-.3-.3-.4s-.3-.2-.4-.3a115.29,115.29,0,0,1-8.4-10.1,1.5,1.5,0,0,1,2.4-1.8,98.88,98.88,0,0,0,8.2,9.8c.1.1.2.3.3.4s.3.2.4.3a97.69,97.69,0,0,0,23.3,18,1.49,1.49,0,0,1,.6,2,1.45,1.45,0,0,1-1.4.9Zm100.1-9.6a1.54,1.54,0,0,1-1-2.7,110.9,110.9,0,0,0,29.9-38.7,1.44,1.44,0,0,1,2-.7,1.42,1.42,0,0,1,.7,2,113.75,113.75,0,0,1-30.7,39.8,1.22,1.22,0,0,1-.9.3Zm-139.9-30.2a1.71,1.71,0,0,1-1.3-.7,125.92,125.92,0,0,1-16-47.7,1.51,1.51,0,1,1,3-.4,123.69,123.69,0,0,0,15.6,46.5,1.6,1.6,0,0,1-.5,2.1,1.88,1.88,0,0,1-.8.2Zm175.2-21a.9.9,0,0,1-.5-.1,1.45,1.45,0,0,1-.9-1.9c1.4-4,2.6-8.2,3.6-12.3,0-.2.1-.3.2-.5v-.5a130.54,130.54,0,0,0,3.3-29.4v-3.3a1.3,1.3,0,0,0,0-1,130.38,130.38,0,0,0-4.3-29.3,1.49,1.49,0,1,1,2.9-.7,136.66,136.66,0,0,1,4.4,30,1.3,1.3,0,0,0,0,1v3.4a131.68,131.68,0,0,1-3.4,30.1c0,.2-.1.3-.2.5v.5a130.68,130.68,0,0,1-3.7,12.6,1.57,1.57,0,0,1-1.4.9Zm-191.4-56h-.1a1.62,1.62,0,0,1-1.4-1.6l.1-1a1.46,1.46,0,1,1,2.9.3l-.1,1a1.35,1.35,0,0,1-1.4,1.3Zm2.1-13.9h-.3a1.65,1.65,0,0,1-1.2-1.8c.9-4.3,2-8.6,3.3-12.7a1.52,1.52,0,1,1,2.9.9c-1.3,4.1-2.3,8.2-3.2,12.4a1.59,1.59,0,0,1-1.5,1.2Zm169.9-51.7a1.56,1.56,0,0,1-1.2-.6,98.2,98.2,0,0,0-8.6-9.5,1.48,1.48,0,0,1,2.1-2.1,91.66,91.66,0,0,1,8.8,9.8,1.55,1.55,0,0,1-.2,2.1,1.22,1.22,0,0,1-.9.3Zm-142.5-4.2a1.28,1.28,0,0,1-1-.4,1.45,1.45,0,0,1-.1-2.1,102.41,102.41,0,0,1,23.2-19.6c.2-.1.3-.2.5-.2a1.38,1.38,0,0,1,.4-.3,87.21,87.21,0,0,1,11.8-6,1.52,1.52,0,0,1,1.2,2.8,87.3,87.3,0,0,0-11.4,5.8.76.76,0,0,1-.5.2,1.38,1.38,0,0,1-.4.3,103.71,103.71,0,0,0-22.5,19,2.08,2.08,0,0,1-1.2.5Zm124-13.9a1.61,1.61,0,0,1-.9-.3c-.3-.2-.5-.4-.8-.6a1.5,1.5,0,1,1,1.8-2.4c.3.2.5.4.8.6a1.46,1.46,0,0,1,.3,2.1A1.74,1.74,0,0,1,938.4,887.6Zm-27.3-14.5a.9.9,0,0,1-.5-.1,84.46,84.46,0,0,0-26.8-4.3,82.6,82.6,0,0,0-21.6,2.8,1.49,1.49,0,0,1-.7-2.9,88.75,88.75,0,0,1,50.1,1.5,1.58,1.58,0,0,1,1,1.9,1.5,1.5,0,0,1-1.5,1.1Z" />
            </g>
            <g class="cls-10">
                <circle class="cls-15" cx="916.8" cy="149.2" r="149.2"
                    transform="translate(163.02 691.98) rotate(-45)" />
            </g>
            <path class="cls-4" d="M964.2,756.3H270.1a4.5,4.5,0,0,1,0-9H964.2a4.5,4.5,0,0,1,0,9Z" />
            <path class="cls-16"
                d="M1589.3,910.1c-2,8-12.4,12.3-23.2,9.5s-7.5-6.1-5.5-14.1,12.4-12.3,23.2-9.5S1591.3,902.1,1589.3,910.1Z" />
            <path class="cls-16"
                d="M1553.2,899.3c-2.3,7.9,4.6,16.8,15.3,19.9s9.6-1.5,11.8-9.4-4.6-16.8-15.3-19.9S1555.4,891.4,1553.2,899.3Z" />
            <path class="cls-16"
                d="M1585.5,901.2c10.7,3.1,10.3,7.9,5,14.2-9.8,11.8-12.8,11.9-23.5,8.8" />
            <path class="cls-16"
                d="M1548.3,903.4c.8,13,7.5,19.5,18.2,22.6s6.7-4.1,8.9-12-4.9-11.5-15.5-19.1C1550.9,888.3,1547.8,895.2,1548.3,903.4Z" />
            <path class="cls-4"
                d="M1570.5,927.7a6.37,6.37,0,0,1-3-.9.51.51,0,0,1,.5-.9c1.4.8,2.6,1,3.5.6,3.2-1.5,3.6-10.7,2.2-16.1-2.9-11.9-16.1-16.6-20-17.8a.47.47,0,1,1,.3-.9c4.1,1.2,17.7,6.1,20.7,18.5,1.4,5.9,1.1,15.5-2.8,17.3a5.9,5.9,0,0,1-1.4.2Z" />
            <path class="cls-4"
                d="M1572.3,904.8a.6.6,0,0,1-.4-.1.48.48,0,0,1,0-.7,12.84,12.84,0,0,1,9.4-3.5,28.28,28.28,0,0,1,8.9,1.7.54.54,0,1,1-.4,1,24.47,24.47,0,0,0-8.5-1.7,11.78,11.78,0,0,0-8.7,3.2.37.37,0,0,1-.3.1Z" />
            <path class="cls-4"
                d="M1578,901a.51.51,0,0,1-.5-.4,5.52,5.52,0,0,0-4.7-3.9.5.5,0,0,1,0-1s4.5.4,5.6,4.6c.1.3-.1.5-.4.6Z" />
            <path class="cls-17"
                d="M1574.4,868.9c-2,8-12.4,12.3-23.2,9.5s-7.5-6.1-5.5-14.1,12.4-12.3,23.2-9.5S1576.4,860.9,1574.4,868.9Z" />
            <path class="cls-17"
                d="M1538.3,858.1c-2.3,7.9,4.6,16.8,15.3,19.9s9.6-1.5,11.8-9.4-4.6-16.8-15.3-19.9S1540.6,850.2,1538.3,858.1Z" />
            <path class="cls-17"
                d="M1570.6,860.1c10.7,3.1,10.3,7.9,5,14.2-9.8,11.8-12.8,11.9-23.5,8.8" />
            <path class="cls-17"
                d="M1533.5,862.2c.8,13,7.5,19.5,18.2,22.6s6.7-4.1,8.9-12-4.9-11.5-15.5-19.1C1536,847.2,1533,854,1533.5,862.2Z" />
            <path class="cls-4"
                d="M1555.6,886.6a6.37,6.37,0,0,1-3-.9.51.51,0,0,1,.5-.9c1.4.8,2.6,1,3.5.6,3.2-1.5,3.6-10.7,2.2-16.1-2.9-11.9-16.1-16.6-20-17.8a.47.47,0,1,1,.3-.9c4.1,1.2,17.7,6.1,20.7,18.5,1.4,5.9,1.1,15.5-2.8,17.3a5.9,5.9,0,0,1-1.4.2Z" />
            <path class="cls-4"
                d="M1557.4,863.6a.6.6,0,0,1-.4-.1.48.48,0,0,1,0-.7,12.84,12.84,0,0,1,9.4-3.5,28.28,28.28,0,0,1,8.9,1.7.54.54,0,1,1-.4,1,24.47,24.47,0,0,0-8.5-1.7,11.78,11.78,0,0,0-8.7,3.2c0,.1-.2.1-.3.1Z" />
            <path class="cls-4"
                d="M1563.1,859.8a.51.51,0,0,1-.5-.4,5.52,5.52,0,0,0-4.7-3.9.5.5,0,0,1,0-1s4.5.4,5.6,4.6c.1.3-.1.5-.4.6.1.1,0,.1,0,.1Z" />
            <path class="cls-16"
                d="M1540.1,889.2c4,7.2-.6,17.4-10.3,22.9s-9.6.8-13.7-6.4.6-17.4,10.3-22.9S1536.1,882,1540.1,889.2Z" />
            <path class="cls-16"
                d="M1506.5,906.2c3.8,7.3,14.9,9.1,24.8,4s5.9-7.6,2.1-15-14.9-9.1-24.8-4S1502.7,898.9,1506.5,906.2Z" />
            <path class="cls-16"
                d="M1531.3,885.4c9.9-5.1,12.9-1.4,13.5,6.9,1,15.3-1.2,17.4-11.1,22.5" />
            <path class="cls-16"
                d="M1505.8,912.5c9.6,8.9,18.8,9,28.7,3.9s2-7.6-1.8-14.9-11.5-4.9-24.4-3.2c-11,1.5-8.6,8.6-2.5,14.2Z" />
            <path class="cls-4"
                d="M1535.7,916.3a.66.66,0,0,1-.5-.4c-.1-.3.1-.5.4-.6,1.6-.4,2.6-1,2.9-1.9,1.3-3.3-4.7-10.2-9.5-13.2-10.3-6.6-23.1-1-26.8.8a.51.51,0,0,1-.5-.9c3.8-1.9,17-7.7,27.8-.8,5.1,3.3,11.4,10.5,9.9,14.5a4.62,4.62,0,0,1-3.6,2.5Z" />
            <path class="cls-4"
                d="M1523.8,897.2a.47.47,0,0,1-.5-.5c.3-9.3,11.6-13.7,12.1-13.9a.47.47,0,1,1,.3.9c-.1,0-11.2,4.4-11.4,12.9,0,.4-.2.6-.5.6Z" />
            <path class="cls-4"
                d="M1518.6,891a.76.76,0,0,1-.4-.2.49.49,0,0,1,.1-.7,7,7,0,0,1,4.1-1.4,5.61,5.61,0,0,1,3.1.9.51.51,0,1,1-.5.9,5,5,0,0,0-2.6-.8,6.16,6.16,0,0,0-3.5,1.2.37.37,0,0,1-.3.1Z" />
            <path class="cls-4"
                d="M916.3,1002.2a4.48,4.48,0,0,1-4.5-4.5V756.9a4.5,4.5,0,1,1,9,0V997.6A4.5,4.5,0,0,1,916.3,1002.2Z" />
            <path class="cls-3"
                d="M1565.7,1002.5a2.2,2.2,0,0,1-.8-.1,2.58,2.58,0,0,1-1.6-3.2l24.1-72.2h-81.2l21.9,72.2a2.5,2.5,0,0,1-4.8,1.4l-22.9-75.5a2.44,2.44,0,0,1,.4-2.2,2.61,2.61,0,0,1,2-1h88a2.46,2.46,0,0,1,2,1,2.38,2.38,0,0,1,.3,2.3l-25.2,75.5a2.24,2.24,0,0,1-2.2,1.8Z" />
            <path class="cls-3"
                d="M238.3,1002.3a3.54,3.54,0,0,1-3.5-3.5V114.6a16.94,16.94,0,0,1,16.9-16.9h78.7a3.5,3.5,0,0,1,0,7H251.7a9.92,9.92,0,0,0-9.9,9.9V998.8a3.48,3.48,0,0,1-3.5,3.5ZM980.9,452.8a3.54,3.54,0,0,1-3.5-3.5V114.6a9.86,9.86,0,0,0-9.9-9.9H343.4a3.5,3.5,0,0,1,0-7H967.6a16.94,16.94,0,0,1,16.9,16.9V449.3A3.56,3.56,0,0,1,980.9,452.8Z" />
            <path class="cls-3"
                d="M609.6,1013.8a3.54,3.54,0,0,1-3.5-3.5V693.1a3.5,3.5,0,0,1,7,0v317.2A3.54,3.54,0,0,1,609.6,1013.8Zm0-330.2a3.54,3.54,0,0,1-3.5-3.5v-564a3.5,3.5,0,0,1,7,0v564A3.54,3.54,0,0,1,609.6,683.6Z" />
            <path class="cls-18"
                d="M1530.6,925.4c-4.2,5.6-9.1,6.5-14.8,4.6s-3.8-5.2-.4-8c4.7-3.9,5.6-3.6,12.6-3.9,6-.1,5.3,3.8,2.6,7.3Z" />
            <path class="cls-18"
                d="M1581,886.6c-4.2,5.6-9.1,6.5-14.8,4.6s-3.8-5.2-.4-8c4.7-3.9,5.6-3.6,12.6-3.9,5.9-.2,5.2,3.8,2.6,7.3Z" />
            <path class="cls-3"
                d="M1917.3,1002.5h-244a2.5,2.5,0,0,1,0-5h244a2.5,2.5,0,1,1,0,5Zm-257,0h-50a2.5,2.5,0,0,1,0-5h50a2.5,2.5,0,1,1,0,5Zm-280,0h-1a2.5,2.5,0,0,1,0-5h1a2.5,2.5,0,1,1,0,5Zm-14,0h-13a2.5,2.5,0,0,1,0-5h13a2.5,2.5,0,1,1,0,5Zm-63,0h-244a2.5,2.5,0,0,1,0-5h244a2.5,2.5,0,1,1,0,5Zm-257,0h-50a2.5,2.5,0,0,1,0-5h50a2.5,2.5,0,0,1,0,5Zm-357,0h-244a2.5,2.5,0,1,1,0-5h244a2.5,2.5,0,0,1,0,5Zm-257,0h-50a2.5,2.5,0,1,1,0-5h50a2.5,2.5,0,0,1,0,5Zm-280,0h-1a2.5,2.5,0,1,1,0-5h1a2.5,2.5,0,0,1,0,5Zm-14,0H130a2.5,2.5,0,0,1,0-5h8.3a2.5,2.5,0,0,1,0,5Z" />
            <path class="cls-19"
                d="M628,530.6s26.3,46.9,5.7,66.3S580,632.3,580,632.3c5.2,5,60,56,130.9,40.6,36.6-8,60.2-29.8,70.3-40.6-4.7-2.9-11.4-7.4-19.3-12.9-9.9-6.9-20.2-14.6-21.9-18-3.4-6.9-9.1-30.9-9.1-30.9S665.8,520.3,628,530.6Z" />
            <path class="cls-20"
                d="M624.8,530.6s24.5,46.9,5.3,66.3S580,632.3,580,632.3c4.9,5,55.9,56,122,40.6,34.1-8,56.1-29.8,65.5-40.6-4.4-2.9-10.6-7.4-18-12.9-9.2-6.9-18.8-14.6-20.4-18-3.2-6.9-8.5-30.9-8.5-30.9s-60.7-50.2-95.8-39.9Z" />
            <path class="cls-21"
                d="M777.3,458.5c-.5,3.6-.7,9.2,1.6,13.8,5.7,11.3,13.6,32.2,12.6,44.6-.5,6.1-19.5,7.6-21.7,11.4-1.3,2.3,1.5,6.9.4,9.1-.7,1.4-3,1.4-3.6,2.8-9.2,20.5-1.6,38.3-23.1,38.3-17.8,0-43.4-.1-66.3-11.4-10.1-5-17.2-43.5-34.3-43.5-26.2,0-32-28.9-27.5-71.3,4.5-42.8,34.9-77.9,77.9-77.9s90.6,41.5,84,84.1Z" />
            <path class="cls-22"
                d="M729.5,454.8a1.12,1.12,0,0,1-.3-2c5.9-4.2,24.8-16.3,29.6-5.5C759,447.6,749.1,460.9,729.5,454.8Z" />
            <path class="cls-22"
                d="M737,478c4.5-3.6,11-8.1,16.2-9.1a1.19,1.19,0,0,1,1.4,1.3l-.2,2.7a1.27,1.27,0,0,0,.1.6l.7,1.5a1.18,1.18,0,0,1-1.1,1.7,55.73,55.73,0,0,0-16,3.2c-1.2.6-2.1-1.1-1.1-1.9Z" />
            <path class="cls-23"
                d="M756.3,541.4c-6.3,0-15.6-1.7-22.7-10.2a1,1,0,1,1,1.5-1.3c10.9,13.1,27.4,8.9,27.6,8.8a1,1,0,0,1,.5,1.9,22.89,22.89,0,0,1-6.9.8Z" />
            <path class="cls-22"
                d="M695.5,396.8a9.49,9.49,0,0,1,0,10.3s6.9,12.6,3.4,18.3c0,0,3.4,12.6-6.9,20.6,0,0-4.6,20.6-13.7,24,0,0,0,11.4-11.4,11.4,0,0-24-3.4-24,20.6s20.6,28.6,20.6,28.6,4.6,26.3-1.1,24c-2.4-.9-8.6,2.2-14.9,2.3-2.4.1-4.7-3.1-7-3s-3.8,4-5.6,4.2c-3,.2-9.1-19.4-9.1-19.4s-55.6-48-35.2-94.3c20.3-46.5,104.9-47.6,104.9-47.6Z" />
            <path class="cls-24"
                d="M624.9,411s14.6,27,36.3-.5c0,0,34.5,13.5,41.6-7.8,0,0,10.6,13,28.3,5.9,0,0,11.8,11.8,30.7,1.2,0,0,1.2,7.1,5.9,7.1,0,0-8.3,21.2,8.3,22.4,0,0,23.6,3.5,22.4-13,0,0,6.9-9-3.5-13,0,0,9.4-9.4,3.5-14.2,0,0,10.3-12.7-3.4-19.5,0,0-3.4-12.6-20.2-6.4,0,0-.4-9.6-11.8-7.1,0,0,0-16.5-24.8-11.8,0,0,4.7-13-11.8-14.2,0,0,7.1-14.2-9.4-16.5-14.5-2.1-16.8,11.4-16.8,11.4s-2.6-8-8-10.3c-8-3.4-14.9-1.1-20,7.2,0,0-18.9-9.4-22.4,10.6,0,0-5.1-6.7-17-2.9-13.7,4.4-18.4,25.3-10.1,33.6,0,0-34.2,7.1-22.4,26,0,0-24.8,11.8-11.8,23.6,0,0-18.9,15.3,1.2,24.8s33-10.6,33-10.6,26.9-9.5,2.2-26Z" />
            <path class="cls-25"
                d="M602.2,452a8.22,8.22,0,0,1-5.2-1.8,13.78,13.78,0,0,1-7.9-.6l-.4-.2a16.28,16.28,0,0,1-10.4-11.5,16.76,16.76,0,0,1,4-15.3c.7-.8,1.4-1.4,2.1-2.1a15.55,15.55,0,0,1-.8-2.3c-1.2-6.5,1.2-12.9,7.1-18.8a29.5,29.5,0,0,1,5.5-4.3,12.79,12.79,0,0,1,0-8.2c2.3-6.5,10-11.8,21.2-14.4q2-.45,3.6-.9a1.67,1.67,0,0,1,.1-1.2c.3-.8,2.9-7.6,7.4-9.6a6.4,6.4,0,0,1,4.9-.1c3.7,1.5,3.9,3.9,3.8,4.9-.4,5.7-12,9.2-18.9,10.8-9.7,2.3-16.5,6.7-18.3,11.8a8.4,8.4,0,0,0-.1,5.2c7.8-2.6,14.4.7,15.8,1.8,3.2,2.7,3.1,5.2,2.8,6.5-.6,2.2-2.6,3.9-5.5,4.5-3.8.8-9.5-.4-13.9-6a15.26,15.26,0,0,1-1.1-1.6,19.65,19.65,0,0,0-4.5,3.5c-4.9,4.9-6.9,10.1-6,15.2a.37.37,0,0,0,.1.3c2.8-2.1,5.4-3.2,7.7-3.3a7.11,7.11,0,0,1,5.1,2.1,4.06,4.06,0,0,1,1.2,4.1c-.7,2.7-3.7,4.5-5.5,5a10,10,0,0,1-8.1-1.1,4.44,4.44,0,0,1-1.1-.8c-.5.5-1.1,1.1-1.6,1.7a12.64,12.64,0,0,0-3,11.6,12.16,12.16,0,0,0,7.9,8.7l.4.1a11.51,11.51,0,0,0,3.9.7,18.41,18.41,0,0,1-.9-2.5c-1-4.4-.2-10,3.4-11.8a6.19,6.19,0,0,1,5.4-.4,6.42,6.42,0,0,1,3.2,4c0,.2.1.3.1.5s-.1,7.6-4.3,11.6a3.75,3.75,0,0,0,1.1.1c7.4,0,17.5-7.5,17.5-11.7a2,2,0,0,1,4,0c-.3,7.3-13.3,15.8-21.8,15.8Zm-2.1-16.7a4.19,4.19,0,0,0-1.5.4c-1.3.6-2.1,4-1.3,7.3a10.06,10.06,0,0,0,.8,2.2c2.9-2.4,3.3-7.4,3.3-8.7a1.86,1.86,0,0,0-.9-1.1.6.6,0,0,0-.4-.1ZM589.8,421a.35.35,0,0,0,.2.1,6.52,6.52,0,0,0,4.9.7c1.4-.4,2.7-1.7,2.7-2.2s0-.1-.2-.2a2.94,2.94,0,0,0-2.2-.9C593.8,418.5,592,419.3,589.8,421Zm11.8-23.9c.2.2.3.5.5.7,3.3,4.2,7.4,5.1,9.9,4.5,1.3-.3,2.2-.9,2.4-1.6s-.4-1.6-1.5-2.5a15.91,15.91,0,0,0-11.3-1.1ZM631,364.2a4.4,4.4,0,0,0-1,.2c-1.9.8-3.6,3.7-4.6,5.8,6.1-2.3,7.7-4.3,7.7-4.9,0-.1-.3-.5-1.3-.9a1.08,1.08,0,0,0-.8-.2Z" />
            <path class="cls-25"
                d="M648,393.6a2,2,0,0,1,0-4c2.4,0,4.5-3,4.9-5.8a18.43,18.43,0,0,1-2.5.5,5.81,5.81,0,0,1-5.8-2.9,3.54,3.54,0,0,1-.1-3.5c1.1-1.9,3.9-2.1,5.8-2.1a6.35,6.35,0,0,1,5,2.1c.2-.2.3-.4.5-.6,2.5-3.3,1.7-8.2,1.7-8.3a2,2,0,0,1,4-.7c0,.3,1.1,6.6-2.5,11.3a10.45,10.45,0,0,1-2.1,2.1c0,.3.1.7.1,1,0,5.3-3.7,10.9-9,10.9Zm.5-13.6a1.82,1.82,0,0,0,1.4.3c.6-.1,1.1-.2,1.6-.3a3.73,3.73,0,0,0-1.2-.2C649.5,379.9,648.9,380,648.5,380Z" />
            <path class="cls-25"
                d="M766.2,434.1a2.09,2.09,0,0,1-1.6-.8c-3.6-4.5-3-11.7-1.3-16.3a11,11,0,0,1-2.4-3.2,4.88,4.88,0,0,1-.3-.7c-5,2.5-11.6,4.6-18.4,2.7l-.4-.1c-4.6-1.2-7.9-3-10-5.2a15.22,15.22,0,0,1-6.8,3.3c-7.1,1.7-14.6-1.2-18.9-4.7a25.59,25.59,0,0,1-2.7-2.9,10.59,10.59,0,0,1-.7,1,2,2,0,1,1-3.2-2.4c0-.1.7-1,1.5-2.5-3-5.8-4.8-13-4.1-16.4a3.84,3.84,0,0,1,2.3-3.2c2.1-.8,4.2,1,4.9,1.6,6,5.2,3.9,12.9,1.5,18a14.48,14.48,0,0,0,3.1,3.7c3.4,2.8,9.7,5.3,15.4,3.9a12.53,12.53,0,0,0,5.6-2.9,10.22,10.22,0,0,1-.3-4.3c.5-3.2,1.3-5,2.9-5.7a3.16,3.16,0,0,1,3.2.3,4.69,4.69,0,0,1,1.7,5.8,31.4,31.4,0,0,1-2.6,4.5c1.4,1.8,4.2,3.1,8.2,4.2l.4.1c5.8,1.6,11.7-.4,16.2-2.7a8.14,8.14,0,0,1,1-5.3,6.17,6.17,0,0,1,5.3-2.9c3.1,0,4.1,2,4.3,2.9a4.49,4.49,0,0,1-2,4.9c-.4.2-.8.5-1.3.8-.7.5-1.6,1-2.6,1.6a3,3,0,0,0,.4.8,14.8,14.8,0,0,0,.8,1.3c.1-.1.1-.2.2-.2,1.7-1.7,3.3-1.5,4.1-1.1a3.38,3.38,0,0,1-.4,6.4,7.19,7.19,0,0,1-2.3.2c-1.2,3.4-1.8,9.1.7,12.3a1.94,1.94,0,0,1-.3,2.8,1.37,1.37,0,0,1-1.1.4Zm-.4-29a2.28,2.28,0,0,0-1.9,1,2.47,2.47,0,0,0-.4.9c.4-.2.7-.5,1.1-.7s1-.6,1.4-.9c.1-.1.2-.2.2-.3Zm-64.9-18.2c-.2,1.8.7,6.3,2.4,10.7,1.1-3.5,1.4-7.5-1.7-10.1A3.19,3.19,0,0,0,700.9,386.9Z" />
            <path class="cls-25"
                d="M610.3,463.3a1.86,1.86,0,0,1-1.7-1,1.88,1.88,0,0,1,.7-2.7c.9-.5,1.7-1,2.6-1.5a2,2,0,0,1,2,3.4c-.9.5-1.7,1-2.5,1.5A2.61,2.61,0,0,1,610.3,463.3Zm16.9-8.7a2,2,0,0,1-1.8-1.2,2,2,0,0,1,1.1-2.6,137.87,137.87,0,0,1,15.2-5.5,1.76,1.76,0,0,1,1.6.2,2.07,2.07,0,0,1,1.3-1.1c4.8-1.3,9.7-2.4,14.6-3.3l1.2-.2a2,2,0,1,1,.7,3.9l-1.2.2a132.92,132.92,0,0,0-14.2,3.2,1.8,1.8,0,0,1-1.6-.2,2.16,2.16,0,0,1-1.2,1.1,124.26,124.26,0,0,0-14.8,5.4,3.44,3.44,0,0,1-.9.1Zm49.1-13.4a2,2,0,0,1-1.9-1.4,2,2,0,0,1,1.3-2.5c1-.3,1.9-.6,2.8-.9a1.91,1.91,0,0,1,2.5,1.3,1.94,1.94,0,0,1-1.3,2.5c-.9.3-1.9.6-2.9.9a.9.9,0,0,1-.5.1Zm17.2-7.8a1.8,1.8,0,0,1-1.6-.9,2,2,0,0,1,.5-2.8c6.9-4.8,7.4-9.2,7.4-10.4v-.4a2,2,0,0,1,3.9-.8,8.37,8.37,0,0,1,.1,1.2c0,2.2-.9,7.9-9.1,13.7a1.92,1.92,0,0,1-1.2.4Z" />
            <path class="cls-25"
                d="M644.1,466.3a2,2,0,0,1,0-4,84.42,84.42,0,0,0,8.7-.4,2,2,0,1,1,.4,4c-3.1.2-6.1.4-9.1.4Zm24.6-3.2a2,2,0,0,1-.5-3.9c1-.3,1.9-.5,2.8-.8a2,2,0,1,1,1.1,3.9,26.27,26.27,0,0,1-3,.8Zm17.8-6.7a2.11,2.11,0,0,1-1.8-1.1,2,2,0,0,1,.9-2.7c8.1-4.1,11.2-7.5,11.4-8.3a2.08,2.08,0,0,1,2.5-1.4,2,2,0,0,1,1.4,2.4c-.9,3.4-7.5,7.9-13.5,10.9a1.49,1.49,0,0,1-.9.2Z" />
            <path class="cls-25"
                d="M610.6,492.9a2.11,2.11,0,0,1-1.8-1.1,2,2,0,0,1,.9-2.7,152.44,152.44,0,0,1,14.9-6.5,2.46,2.46,0,0,1,1.7.1,2,2,0,0,1,1.2-1.2,139.17,139.17,0,0,1,15.6-4.5,1.92,1.92,0,0,1,2.4,1.5,2,2,0,0,1-1.5,2.4c-5.1,1.2-10.2,2.7-15.2,4.4a2.19,2.19,0,0,1-1.6-.1,1.89,1.89,0,0,1-1.2,1.1,133.27,133.27,0,0,0-14.4,6.3,1.93,1.93,0,0,1-1,.3ZM659.2,478a2.13,2.13,0,0,1-2-1.6,2.1,2.1,0,0,1,1.6-2.4c1-.2,2-.4,2.9-.6a2,2,0,1,1,.9,3.9c-1,.2-1.9.4-3,.6C659.4,477.9,659.3,478,659.2,478Zm18.3-5a2.05,2.05,0,0,1-1.9-1.3,2,2,0,0,1,1.2-2.6c8.5-3.2,8.7-5.7,8.7-5.9a1.4,1.4,0,0,0-.4-.8,2,2,0,0,1,2.5-3.1,5.4,5.4,0,0,1,1.9,3.9c0,3.6-3.7,6.8-11.3,9.7-.2,0-.5.1-.7.1Z" />
            <path class="cls-25"
                d="M736.8,361.7a4.06,4.06,0,0,1-3.5-2.2,5.86,5.86,0,0,1-.6-5.6c1.6-3.2,6.5-4.1,7.6-4.3a9.77,9.77,0,0,0-4.7-8,9.92,9.92,0,0,0-8-1.7c-6,1.3-10.2,8.1-10.3,8.1a2,2,0,1,1-3.5-2.1c.2-.3,5.1-8.2,12.8-9.9a14.08,14.08,0,0,1,11.1,2.3,13.79,13.79,0,0,1,6.5,11.3,8.35,8.35,0,0,1,6.2,4.5,2,2,0,0,1-3.6,1.8,4.42,4.42,0,0,0-3.1-2.3c-1,4.2-3.6,7.5-6.4,8a.75.75,0,0,1-.5.1Zm2.8-7.8c-1.4.4-2.9,1-3.3,1.8a1.72,1.72,0,0,0,.4,1.7c.1.2.2.2.2.2.4.1,1.8-1.3,2.7-3.7Z" />
            <path class="cls-26"
                d="M733.3,480.8A28,28,0,1,1,710,512.9,28.1,28.1,0,0,1,733.3,480.8Z" />
            <path class="cls-27" d="M743,964.5s-18.1,8.6-21.6,19.2" />
            <path class="cls-23"
                d="M690.9,656.2a1.23,1.23,0,0,1-.8-.4,15.26,15.26,0,0,1-1.1-1.6,1,1,0,1,1,1.7-1.1c.3.5.7,1,1.1,1.6a1.08,1.08,0,0,1-.2,1.4c-.3,0-.5.1-.7.1Zm-2.8-4.1a.89.89,0,0,1-.8-.5q-3-4.8-6-10.5c-9.6-19-15.6-41.6-19-57.1a1,1,0,1,1,2-.4c3.3,15.4,9.3,37.8,18.8,56.6,1.9,3.7,3.8,7.2,5.8,10.4a1,1,0,0,1-.3,1.4A4.33,4.33,0,0,1,688.1,652.1Zm-25.4-70.3a1,1,0,0,1-1-.8c-.2-1-.4-1.9-.6-2.9a1.2,1.2,0,0,1,.2-.8c.2-.2.4-.4.6-.4a1,1,0,0,1,1.2.8c.2,1,.4,2,.6,2.9a1,1,0,0,1-.8,1.2ZM660,567a1.06,1.06,0,0,1-1-.9.94.94,0,0,1,.9-1.1,1,1,0,1,1,.2,1.9c0,.1,0,.1-.1.1Z" />
            <path class="cls-21"
                d="M880.7,739.8a141.63,141.63,0,0,1,1.1,34.3,143.56,143.56,0,0,1-7.5,34.9c-1,9.2-1.9,18.6-2.8,28-.9,9.9-1.8,19.6-2.5,29.3-3.4,37.1-.9,92.5-4.3,129.7l-54.3,1.7V770.1l22.3-4Z" />
            <path class="cls-4"
                d="M811.6,997.7,585.4,992s-65.6-148.3-85.5-216.1c-8.7-29.8-6.4-66-3.5-88.4a55,55,0,0,1,22.5-37.9c15.3-11,44.5-10.3,62.2-16.6,0,0,34.8,40,101.2,44,56,3.4,87.5-26.9,100.1-44l77.8,25.2s21.7,8,21.7,58.3c0,9.7,3.1,16.7,2.6,34.6l-73,26.5Z" />
            <path class="cls-3"
                d="M811.6,1000.2h0l-226.3-5.7a2.39,2.39,0,0,1-2.2-1.5v-.1c-1.4-3.1-13.9-31.5-29.1-67.9-.1-.1-.1-.3-.2-.5a.76.76,0,0,1-.2-.4c-19.4-46.3-44.9-109.6-56-147.5-4.1-14.1-6.2-30.9-6.2-50a321.76,321.76,0,0,1,2.6-39.5,58.05,58.05,0,0,1,7.6-22.2,56,56,0,0,1,15.9-17.3c4.4-3.2,10-5.6,17.5-7.6a2.59,2.59,0,0,1,3.1,1.8c0,.2.1.4.1.6a2.58,2.58,0,0,1-1.8,2.4c-6.8,1.8-12,4.1-15.9,6.8A52.12,52.12,0,0,0,506,667.4a53.93,53.93,0,0,0-7,20.3,310.78,310.78,0,0,0-2.6,38.8c0,18.6,2,35,6,48.6,11.1,37.8,36.5,100.8,55.8,147,.1.1.1.3.2.5a.76.76,0,0,1,.2.4c6.6,15.9,13.6,32.2,20.6,48.4,3.8,8.8,6.6,15.1,7.9,18L809.2,995V855.8a2.87,2.87,0,0,1,.7-1.8,2.41,2.41,0,0,1,1.8-.7,2.48,2.48,0,0,1,2.5,2.5V997.5a2.5,2.5,0,0,1-.8,1.8A2.59,2.59,0,0,1,811.6,1000.2Zm-3-356.3a2.2,2.2,0,0,1-.8-.1l-1-.3a3.49,3.49,0,0,1-1.5-1.2,2.51,2.51,0,0,1-.1-1.9,2.47,2.47,0,0,1,3.1-1.6l1,.3a2.49,2.49,0,0,1,1.7,3.1,2.59,2.59,0,0,1-2.4,1.7Z" />
            <path class="cls-28"
                d="M673.1,984.6c.1,0,.1,0,.2-.1,1.5-.7,21.5-10.4,32.5-13.7s43.4,10.4,45.6,11.4a.35.35,0,0,1,.2.1l6.6,3.6a2.91,2.91,0,0,1-.5,5.3l-76.8,25a3,3,0,0,1-2.7-.5c-4.1-3.2-17.1-13.9-17.1-19.7.1-6.5,10.9-11,12-11.4Z" />
            <path class="cls-29"
                d="M526.3,531.7c-.6,4-1.8,13-2.3,17.2-1.6,14.2,19.4,27.1,18.3,41.2-.5,6.8-18,9.4-20.6,13.7-1.5,2.6-2.2,14.7-3.4,17.2-.8,1.6-3.4,1.6-4.1,3.2-3.4,7.5-7.1,12.5-9.7,18.5-5.3,12.5,2.7,19.4-13.7,19.4-48.6,0-160.1-18.3-147.5-137.2,5.1-48.4,39.4-88,88-88s102.4,46.8,95,94.8Z" />
            <path class="cls-29"
                d="M574.3,769.6c-12.9,10.7-85.1,68.8-187.5,57.2-81.2-9.2-132.3-56.7-147.5-72,7.6.3,64.4-7.8,111.6-46.5,11.1-9.1,18.3-30,22.2-54.2a131.79,131.79,0,0,0-6.9-67.5H452l6.5,98.1a69.27,69.27,0,0,0,25.2,49.2c.1.1.2.2.3.2,33.6,27.2,70.6,33.7,90.3,35.5Z" />
            <path class="cls-30"
                d="M560.6,769.6c-12.9,10.7-85.1,68.8-187.5,57.2-81.2-9.2-132.3-56.7-147.5-72,7.6.3,64.4-7.8,111.6-46.5,11.1-9.1,18.3-30,22.2-54.2a131.79,131.79,0,0,0-6.9-67.5h85.8l6.5,98.1A69.27,69.27,0,0,0,470,733.9c.1.1.2.2.3.2,33.5,27.2,70.6,33.7,90.3,35.5Z" />
            <path class="cls-31"
                d="M511.9,528.2a.46.46,0,0,1,.5.4c.1.8.2,3.3-2.8,5.3s-22.2,4.4-30.2,5.4c-.8.1-1.1-.6-.5-.8,7.7-3.2,27.7-11.2,33-10.3Z" />
            <path class="cls-31"
                d="M478.2,483.7S490.8,534,437,545.4c0,0-25.2-12.6-34.3,5.7,0,0-9.1,26.3,20.6,33.2,0,0,52.6,3.4,44.6,43.5,0,0-8,56-61.7,34.3,0,0-14.9,21.7-36.6,4.6,0,0-44.6,18.3-52.6-26.3,0,0-21.7,11.4-24-11.4,0,0-46.9-2.3-11.4-76.6,0,0,11.4-45.7,59.5-77.8,0,0,2.3-20.6,36.6-34.3s80-32,128.1,12.6c0,0,24-4.6,34.3,18.3s-9.1,30.9-13.7,29.7c0,0-10.3,17.2-34.3,3.4s-13.9-20.6-13.9-20.6Z" />
            <path class="cls-32"
                d="M323.9,664.2a2,2,0,0,1-1.71-1c-.69-1.15-5.12-8.64-6.4-15.66a25,25,0,0,1-11.31,3.18,11.73,11.73,0,0,1-9.67-4.65,24,24,0,0,1-4.75-11.62c-1.29,0-2.63-.09-4-.19a21.6,21.6,0,0,1-17.83-10.24c-10-16-3.43-46.61,19.51-91a2,2,0,1,1,3.56,1.84c-27.67,53.5-26,76.82-19.72,87a17.6,17.6,0,0,0,14.5,8.43h.18c1.3.09,2.54.16,3.7.19a23.29,23.29,0,0,1,2.56-9.23c3-5.85,7.92-9.54,12.58-9.47,3.43.07,6.28,2.19,8,6,.09.16,2.61,5.33-.55,10.06-2.78,4.18-9,6.42-18.46,6.68a20.22,20.22,0,0,0,3.9,9.2,7.7,7.7,0,0,0,6.5,3.06c3.69,0,7.75-1.67,11-3.65a9.7,9.7,0,0,1,.93-3.69,16,16,0,0,1,1.95-3.1l.08-.09a3.74,3.74,0,0,1,5.6,4.94,21.37,21.37,0,0,1-4.54,4.13c.49,5,3.63,11.77,6.11,15.86a2,2,0,0,1-.67,2.75A2,2,0,0,1,323.9,664.2Zm-19-48.41c-3,0-6.64,3-8.85,7.29a19.32,19.32,0,0,0-2.1,7.42c10.45-.28,14-3,15.28-4.9,1.85-2.77.29-6.07.27-6.11-1.13-2.43-2.64-3.66-4.51-3.7Z" />
            <path class="cls-32"
                d="M506.3,516.1c-8.82,0-17.72-5-24.42-9.94,0,1.72-.12,3.58-.29,5.6a2,2,0,0,1-4-.32,76.08,76.08,0,0,0,.17-8.53,80.69,80.69,0,0,1-7.08-6.68c-.82-.73-3.76-3.61-3-6.62.44-1.81,2-3,4.56-3.66a5.61,5.61,0,0,1,5.13,1.17c.75.64,3.76,3.82,4.4,13.85,7.87,6.34,20,13.83,30.36,10.15,5.38-1.9,9.22-4.15,11.35-6.64a14.06,14.06,0,0,1-5.25-4.14,6.78,6.78,0,0,1,1.16-9.53c2.24-1.63,4.77-1.23,6.8,1.06a11.41,11.41,0,0,1,2.89,10.46,10.87,10.87,0,0,1-.57,1.63,1.73,1.73,0,0,1-.28.58c-2.12,4.17-7.07,7.64-14.77,10.35A21.12,21.12,0,0,1,506.3,516.1Zm15.91-22.28a.71.71,0,0,0-.43.2,2.55,2.55,0,0,0-1,1.77,3,3,0,0,0,.59,2.1,10.13,10.13,0,0,0,3.91,3c.56-3-1.26-5.46-2.1-6.41C522.73,494,522.44,493.82,522.21,493.82Zm-48.46-4.05a2.47,2.47,0,0,0-.58.07c-1.36.33-1.61.72-1.61.73-.1.39.78,1.79,1.85,2.72l.17.16c.05.06,1.42,1.54,3.7,3.65-.47-3.25-1.27-5.88-2.51-6.93A1.47,1.47,0,0,0,473.75,489.77Z" />
            <path class="cls-32"
                d="M508.45,624.76a32.28,32.28,0,0,1-20.58-7.69,1,1,0,1,1,1.26-1.54c12.07,9.86,24.19,6.74,24.31,6.7a1,1,0,0,1,.52,1.94A23.23,23.23,0,0,1,508.45,624.76Z" />
            <path class="cls-33" d="M508.3,562.6a28,28,0,1,1-39.3,5.3A28,28,0,0,1,508.3,562.6Z" />
            <path class="cls-32"
                d="M398.2,674.4a2,2,0,0,1-1-3.73,14.79,14.79,0,0,0,5.51-6.29c-3.93-2.52-12.17-8.56-11.89-14.75.15-3.18,2.36-5.76,6.56-7.65,4.43-2,8.32-.78,10.41,3.27,2.2,4.28,2.07,11.12,0,17.25,24.65,9.35,39.64,2.46,46.44-2.56,7.87-5.8,11-13.36,10.6-18.28-.22-2.73-2.08-5.22-4.63-7.18-5.81,2.09-13.75,4.22-17.29,1.93a4.58,4.58,0,0,1-2.09-4c0-3.68,2.74-6.08,7.16-6.26A23.94,23.94,0,0,1,460.69,630c1.43-.55,2.84-1.14,4.19-1.74a2,2,0,0,1,1.64,3.64c-.46.21-1.21.54-2.17.94a13.35,13.35,0,0,1,4.44,8.48c.58,7.24-4.32,16-12.21,21.82-7.47,5.52-23.86,13.13-50.36,3a18.88,18.88,0,0,1-7,7.94A2,2,0,0,1,398.2,674.4ZM401.36,645a5.81,5.81,0,0,0-2.34.6c-2.71,1.23-4.13,2.64-4.2,4.19-.15,3.33,5,7.86,9.4,10.79,1.55-5.05,1.56-10.51,0-13.52A3.16,3.16,0,0,0,401.36,645Zm47.17-14.89h-.41c-3.32.13-3.32,1.68-3.32,2.26s.14.58.26.66c1.43.92,5.67.22,10.52-1.27A18.59,18.59,0,0,0,448.53,630.13Z" />
            <path class="cls-32"
                d="M433.9,486.3a2,2,0,0,1-1.54-.72,21.58,21.58,0,0,0-5.42-4.73,2,2,0,1,1,1.92-3.5,25.06,25.06,0,0,1,6.58,5.67,2,2,0,0,1-1.54,3.28Z" />
            <path class="cls-32"
                d="M420.52,529.21a2,2,0,0,1-1.34-3.49,79.41,79.41,0,0,0,10.45-11.16,2,2,0,0,1,3.2,2.41,83.92,83.92,0,0,1-11,11.72A2,2,0,0,1,420.52,529.21Zm17.63-25.4a2.1,2.1,0,0,1-.43-.05,2,2,0,0,1-1.53-2.38,21,21,0,0,0,.42-2.66,2,2,0,0,1,4,.36,24.79,24.79,0,0,1-.49,3.15A2,2,0,0,1,438.15,503.81Z" />
            <path class="cls-32"
                d="M451.26,597.38a2.06,2.06,0,0,1-.93-.23,64.73,64.73,0,0,0-14.26-5.24,2,2,0,0,1,1-3.88,68.6,68.6,0,0,1,15.14,5.57,2,2,0,0,1-.92,3.78Zm-30.17-8h-.2c-.94-.09-1.9-.17-2.89-.24a2,2,0,0,1,.3-4c1,.07,2,.16,3,.25a2,2,0,0,1-.19,4Zm-18.62-.76h-.1c-7.2-.34-12.45-1.67-16.07-4a2,2,0,0,1-.9-1.59,2,2,0,0,1-1.72-.66,11.32,11.32,0,0,1-2.84-7.78,22.58,22.58,0,0,1,2.3-9.16,2,2,0,1,1,3.65,1.65,18.65,18.65,0,0,0-2,7.51,7.4,7.4,0,0,0,1.83,5.13,1.48,1.48,0,0,0,1.83,1.56c3,1.95,7.69,3.09,14.06,3.39a2,2,0,0,1-.09,4Zm-9-33.58a2,2,0,0,1-1.56-3.25c.63-.78,1.27-1.56,1.91-2.31a2,2,0,0,1,3,2.58c-.62.74-1.23,1.48-1.84,2.24A2,2,0,0,1,393.5,555Zm12.7-13.69a2,2,0,0,1-1.39-3.44c2.7-2.59,4.51-4.16,4.58-4.22l.11-.09c2.56-1.92,4.78-3.76,6.93-5.53l.5-.41a2,2,0,1,1,2.54,3.08l-.49.41c-2.17,1.79-4.41,3.64-7,5.61-.31.27-2,1.75-4.38,4A2,2,0,0,1,406.2,541.35Z" />
            <path class="cls-34" d="M454,596.7a33.37,33.37,0,0,1,6.4,4.8" />
            <path class="cls-35"
                d="M484.7,559.9c6.6-5.2,17.9-12.6,24.3-7.4,0,0,1.3,4.6.1,4.7-1,0-12.6-.7-23.7,4-.7.3-1.3-.8-.7-1.3Z" />
            <path class="cls-36"
                d="M700.1,1009.7l-88.8,47.1-17.2,9.1c-7.7,1.5-16.4-.1-25.7-7.6-10.3-8.3-19.6-22.2-27.4-37.3-7.7,32.6-13.6,64.8-13.6,97.3l-329.3-16,19.4-317.9c-1.7-23.5,33.8-44.3,57.2-41.2,50.1,6.6,79.8,18,134.9,17.7,47-.2,56.5-10,99.5-15.4,29.7-3.8,65.2,18.3,67.5,49.2,0,.5.1.9.1,1.4l40.1,195.7a269,269,0,0,1,26.1-7.2c45.7-10.3,57.2,25.1,57.2,25.1Z" />
            <path class="cls-36" d="M611.3,1056.8c-4.8,4.2-10.6,7.8-17.2,9.1Z" />
            <path class="cls-4"
                d="M503.5,1145.2H221.9c-12.8,0-24-8.9-27.7-21.8L119,858.8c-5.6-19.7,8.3-39.5,27.7-39.5H445c13.4,0,25.1,9.8,28.2,23.7l58.5,264.6C535.9,1126.8,522.1,1145.2,503.5,1145.2Z" />
            <path class="cls-3"
                d="M503.5,1147.7h-251a2.5,2.5,0,0,1,0-5h251a2.5,2.5,0,0,1,0,5Zm-264,0H221.9c-14,0-26.1-9.5-30.1-23.6l-4-14a2.5,2.5,0,1,1,4.8-1.4l4,14c3.4,12,13.6,20,25.3,20h17.6a2.5,2.5,0,0,1,0,5Zm292.9-31.1a2.48,2.48,0,0,1-2.5-2.5,29.82,29.82,0,0,0-.7-6l-1.4-6.2a2.51,2.51,0,1,1,4.9-1.1l1.4,6.2a33.4,33.4,0,0,1,.8,7,2.44,2.44,0,0,1-2.5,2.6Zm-4.9-25.5a2.45,2.45,0,0,1-2.4-2l-.2-1a2.58,2.58,0,0,1,1.9-3,2.53,2.53,0,0,1,3,1.9l.2,1a2.58,2.58,0,0,1-1.9,3A1.49,1.49,0,0,1,527.5,1091.1ZM125.4,883.9a2.46,2.46,0,0,1-2.4-1.8l-.3-1a2.5,2.5,0,1,1,4.8-1.4l.3,1a2.53,2.53,0,0,1-1.7,3.1A1.7,1.7,0,0,1,125.4,883.9Zm-3.8-13.4a2.46,2.46,0,0,1-2.4-1.8l-2.6-9.2c-.3-1.2-.6-2.4-.8-3.6a2.52,2.52,0,0,1,2-2.9,2.57,2.57,0,0,1,2.9,2c.2,1,.4,2.1.7,3.1l2.6,9.2a2.53,2.53,0,0,1-1.7,3.1c-.3,0-.5.1-.7.1Zm354.5-11.8a2.45,2.45,0,0,1-2.4-2l-2.9-13.2c-2.8-12.8-13.4-21.7-25.7-21.7H428.4a2.5,2.5,0,1,1,0-5h16.7c14.7,0,27.3,10.5,30.6,25.6l2.9,13.2a2.58,2.58,0,0,1-1.9,3,1.27,1.27,0,0,1-.6.1Zm-60.8-36.9h-251a2.5,2.5,0,1,1,0-5h251a2.5,2.5,0,0,1,0,5Z" />
            <path class="cls-37"
                d="M1481.7,704.5s5.9-15,26-22.7a73.75,73.75,0,0,1,28.3-4.4c43.3.9,51-9.4,51-9.4s7.3-6.1,10.5-6.1,2.5,6,2,6.6c-1,1.3-10.1,17.6-27.5,23.5s-58.4,20-59.4,21.7-18.9,12.3-29.1,4.5-1.8-13.7-1.8-13.7Z" />
            <path class="cls-3" d="M1057.4,995.9l-11.4.1-.4-3.4A76.1,76.1,0,0,0,1057.4,995.9Z" />
            <path class="cls-3"
                d="M1401.7,872.5s-48.4,43.5-63.1,35.5c-9.1-5-26.8-17-39-25.5l5.2,112.3-203.8.9-43.7.2a79.34,79.34,0,0,1-11.8-3.3c-17.1-6.4-31.3-19.5-38.1-43.5-24.8-88.1,1.1-256.1,1.1-256.1,0-10.9,36.7-57.1,46.9-57.6l191.2,8.4c5.6-.3,42.7,28.4,43.5,34.3v1l3.3.2s19.1,43.5,41.7,77.8,36,22.9,36,22.9,74.3-51.5,102.5-76.6c0,0,22.5,9.2,42.8,10.3C1536.9,714.7,1401.7,872.5,1401.7,872.5Z" />
            <path class="cls-37"
                d="M1106.6,550s26,79.7,4.6,97.6h0L1062.9,662s163.5,13,184.1-12.3h0l-53.7-36.8,7.9-54.9Z" />
            <path class="cls-38"
                d="M1107.7,552.3s18.8,78.2,2.3,94.9c-1.1,1.1-1.1,5-1.1,5l-48.3,14.4s163.5,13,184.1-12.3h0L1191,617.5l6.8-45.7Z" />
            <path class="cls-37"
                d="M1227.1,498.7c-.6,3.8,2.3,7.6,2.3,15.1,0,25.2-11.5,49.2-23.7,62.6-10.3,11.4-21.4,25.9-34.9,23.7-25.5-4.1-54.8-12.3-68.7-36.4-4.2-7.3-15.8-7.9-23.7-23-3.8-7.3-3-7.6-3.4-16.2-.1-1.8,7.9-20.8,7.9-22.7,0-51.8,43.3-77.7,85.6-77.7s65.4,29.3,58.6,74.6Z" />
            <path class="cls-39"
                d="M1191.2,544.6a1,1,0,0,1-.9-.7,1,1,0,0,1,.6-1.3c7.6-2.6,8.2-4.9,8.2-5.6v-.3a1.07,1.07,0,0,1-.3-.5.9.9,0,0,1-.1-.5.78.78,0,0,1-.4-.4c-1.5-2.8-4.8-9.5-9.2-23.3a28.78,28.78,0,0,1-1.1-8.3c0-8.1,2.2-17.6,4.3-23.9a1,1,0,1,1,1.9.7c-1.9,5.8-4.2,15.4-4.2,23.2a24.39,24.39,0,0,0,1,7.7c4.4,13.6,7.6,20.2,9.1,22.9a.9.9,0,0,1,.1.5c.1.1.3.2.4.3a3,3,0,0,0,.3.4,2.68,2.68,0,0,1,.3,1.3c0,2-1.7,4.9-9.6,7.5-.2.3-.3.3-.4.3Z" />
            <path class="cls-4"
                d="M1147.1,547.3s28.2,14.9,49.5,7.7c0,0-8.5,8.2-9.6,10.5C1185.5,568.6,1164.5,572.8,1147.1,547.3Z" />
            <path class="cls-40"
                d="M1183.2,558.1c-11,0-23.6-3.2-37.5-9.4a1,1,0,0,1,.8-1.8c13.7,6.1,26,9.3,36.7,9.3,9.5,0,14.1-2.6,14.2-2.6a1,1,0,0,1,1,1.8c-.2-.1-5.1,2.7-15.2,2.7Z" />
            <path class="cls-40"
                d="M1177.7,568.9c-10.2,0-20.3-6.5-30-19.4a1,1,0,1,1,1.6-1.2c9.2,12.2,19,18.6,28.4,18.6a20,20,0,0,0,11.9-3.9,1,1,0,1,1,1.3,1.5,20.85,20.85,0,0,1-13.2,4.4Z" />
            <path class="cls-25"
                d="M1142.8,477.4c-1.3-.2-1.6-1.6-.4-1.9,6.4-1.3,17.7-3,26.7-1.4,13.3,2.5,1.3,6.8,1.3,6.8Z" />
            <path class="cls-25"
                d="M1228.8,484.1c1.2,0,1.7-1.4.6-1.8-5.7-2.2-15.7-5.5-24.1-5.2-12.4.6-2,6.6-2,6.6Z" />
            <ellipse class="cls-41" cx="1138" cy="526.8" rx="27.6" ry="28" />
            <ellipse class="cls-42" cx="1175.2" cy="593" rx="13.8" ry="14" />
            <path class="cls-43"
                d="M1231.9,509.4a28.29,28.29,0,0,1,10.1,38.3,27.42,27.42,0,0,1-37.7,10.3,28.29,28.29,0,0,1-10.1-38.3A27.42,27.42,0,0,1,1231.9,509.4Z" />
            <path class="cls-25"
                d="M1249.7,615.2c-23.6-26.3,11.3-83.5,0-147.5-5-28.5-14.6-49.2-40.5-68.6s-37.9,4-37.9,4c-32.7-30-62.4-14.1-82.7,6.8a131.4,131.4,0,0,0-33.6,63.2c-6.2,28-15.9,77-20.4,124.9-6.8,73.2-27,76.6-27,86.9,0,8,1.1,8,1.1,8,14.1-19.3,30.2,28.9,44.6,62.9,1.9,4.5,12.2-6.6,13.9-2.3,1.5,3.8-5.6,22.8-4.3,26.2,4,10.3,7.1,18.4,8.8,21.8,13.5,27.4,47.7,45.3,61.1,51.4a3.16,3.16,0,0,0,4.4-3.4c-9.9-56.9-8.9-101.6-5.9-133,3.3-33.8,11.3-75.6-10-118.5-5.4-10.8-9.5-24.6-13.5-29.7,0,0-7.9-11.4-8.9-12.9s-5.7-2-12.1-5.6-10.9-12.3-10.5-18.1c.9-16.1,8.7-12.2,13.5-20.6,7.4.6,12.2-8.8,14.9-17.4,30.7-18,68.9-58.9,77-67.7a13.44,13.44,0,0,1-1.4-1.1h-.1v-.1h.1l3-.6s-.6.6-1.6,1.7a9.63,9.63,0,0,0,4.9,1.7c12,.4,25.5,9.5,34.3,25.7s6.2,48.3,6.2,48.3c2.3,18.6,1.1,23.2,1.1,23.2-3.4,22.9-6.3,26.1-15.2,39.5-14.1,21.2-19.7,25.7-19.7,25.7-4,18.2-4.6,22.9-4.6,25.7a10.28,10.28,0,0,0,.1,1.8c1.1,22.9,10.3,28.4,10.3,28.4a9.93,9.93,0,0,0,6.6,3.6c37.2,20.6,94.6,38.9,94.6,38.9-1.1-9.2-27-46.9-50.6-73.2ZM1112.1,475c7-7.2,19.1-16,30.7-23.8C1130.7,461,1120.6,468.8,1112.1,475Z" />
            <path class="cls-25" d="M1183.2,424.2s-.6.6-1.6,1.7a13.44,13.44,0,0,1-1.4-1.1Z" />
            <path class="cls-25" d="M1183.2,424.2s-.6.6-1.6,1.7a13.44,13.44,0,0,1-1.4-1.1Z" />
            <path class="cls-25"
                d="M1191.1,419.7s-78.9,99.4-110.2,93.8l-.1-5.7s29.3,8,99.1-85.8Z" />
            <path class="cls-44"
                d="M1010.9,701.8a2.92,2.92,0,0,1-.9-.2,2,2,0,0,1-.9-2.7c.3-.6,8-16.1,39.9-43,24.2-20.4,36.2-43.9,35.8-69.7a78.69,78.69,0,0,0-8-33,2,2,0,0,1,.7-2.7,2.05,2.05,0,0,1,2.7.7c.3.6,8.1,14.4,8.6,34.7.4,18.7-5.7,46.5-37.2,73-31.3,26.4-38.8,41.5-38.9,41.7a2,2,0,0,1-1.8,1.2Z" />
            <path class="cls-44"
                d="M1015.2,701.2a1.9,1.9,0,0,1-1.3-.5,1.93,1.93,0,0,1-.1-2.8c23.2-25.4,43.6-23.3,45.7-23,1.8,0,30,.2,46.7-23,17.2-23.9-10.1-85.4-10.3-86.1a2,2,0,1,1,3.6-1.6c1.2,2.6,28.4,64.2,9.9,90s-48.9,24.7-50.2,24.7h-.2c-.2,0-19.8-2.8-42.2,21.8a3,3,0,0,1-1.6.5Z" />
            <path class="cls-44"
                d="M1256.3,680.1c-11.3,0-28.3-3.7-39.9-23.1-18.3-30.5-7.4-72.5-6.9-74.3a2,2,0,0,1,3.8,1,127.53,127.53,0,0,0-3.3,24.7c-.5,12.9.8,31.4,9.9,46.5,17,28.4,45.7,20.3,46.9,20a2,2,0,1,1,1.2,3.8,49,49,0,0,1-11.7,1.4Z" />
            <path class="cls-44"
                d="M1086.3,513.1a1.93,1.93,0,0,1-1.9-1.5,2,2,0,0,1,1.4-2.5c36-10.1,81.8-28.2,95.6-57.8,6.6-14.2,2.8-24.8,2.3-26.2l-14.5-20.4a2,2,0,1,1,3.3-2.3l14.6,20.6c.1.1.1.2.2.3.2.5,5.6,12.9-2.2,29.7-14.5,30.9-61.4,49.7-98.2,60a1.27,1.27,0,0,1-.6.1Z" />
            <path class="cls-44"
                d="M1085.2,513.1a1.94,1.94,0,0,1-1.7-1,2,2,0,0,1,.7-2.7c80.6-45.9,93.5-93.2,93.7-93.7a2,2,0,1,1,3.8,1c-.1.5-3.4,12.6-16.8,30.6-12.3,16.5-36,41.2-78.7,65.6A1.64,1.64,0,0,1,1085.2,513.1Z" />
            <path class="cls-44"
                d="M1300.3,690.4a1.27,1.27,0,0,1-.6-.1c-49.8-16.8-67.4-54.6-73.4-83.2-6.5-30.9-1.4-57.4-1.1-58.5a2,2,0,0,1,4,.8,159.19,159.19,0,0,0,1.1,57.1c8.5,40.2,32.3,67.1,70.7,80.1a2.12,2.12,0,0,1,1.3,2.5A2.09,2.09,0,0,1,1300.3,690.4Z" />
            <path class="cls-25"
                d="M1135.6,497.1c-.4-.1-.3-.6.1-.6,3.8.3,9.1.6,10.5.2,2.3-.7,10.3-1.7,13.5,1.3a14.42,14.42,0,0,1,3.5,5.3c.2.6-.4,1.2-1.2,1-4.1-.8-17.9-4.4-17.2-4.2,2.7.8-6.2-2.3-9.2-3Z" />
            <path class="cls-25"
                d="M1225.8,503.1c.4-.1.3-.5,0-.6-3.3-.1-7.8-.3-9-.8-1.9-.9-8.7-2.6-11.6,0a13.8,13.8,0,0,0-3.4,4.8.83.83,0,0,0,.9,1.1c3.4-.3,11.9-1.1,15-2.5A56.44,56.44,0,0,1,1225.8,503.1Z" />
            <path class="cls-3" d="M1101,995.7c-14.2,2.3-29.5,3-43.7.2Z" />
            <path class="cls-44"
                d="M1068.7,794.7a2,2,0,0,1-1.4-.6,1.93,1.93,0,0,1,0-2.8c3-3.1,5.9-6.2,8.7-9.5a1.38,1.38,0,0,1,.4-.3c.1-.1.2-.3.3-.4a182.14,182.14,0,0,0,29.4-47.8,2,2,0,0,1,3.7,1.5,187.93,187.93,0,0,1-30.1,48.9,1.38,1.38,0,0,1-.4.3c-.1.1-.2.3-.3.4-2.8,3.3-5.8,6.5-8.9,9.7a2,2,0,0,1-1.4.6Zm43.8-70.8a1.94,1.94,0,0,1-1.9-2.6l.3-.9a2,2,0,1,1,3.7,1.3l-.3,1A1.78,1.78,0,0,1,1112.5,723.9Zm11.2-56.8h-.1a2.08,2.08,0,0,1-1.9-2.1c.3-4.2.4-8.6.5-12.9a.9.9,0,0,1,.1-.5c0-.2-.1-.3-.1-.5v-1.7c0-31.7-6.2-54.1-6.2-54.3a2,2,0,0,1,3.9-1.1c.1.2,6.4,23.2,6.4,55.4v1.7a.9.9,0,0,1-.1.5c0,.2.1.3.1.5,0,4.4-.2,8.8-.5,13.1a2.23,2.23,0,0,1-2.1,1.9Z" />
            <path class="cls-44"
                d="M1121.9,850.8a1.83,1.83,0,0,1-1.8-1.2c-9-19.5-1.1-78.3,18.4-136.7,19.7-58.9-20.7-113.1-21.1-113.6a2,2,0,0,1,3.2-2.4,151.33,151.33,0,0,1,18.6,35.5c7.3,19.7,13.8,49.9,3.1,81.8-9.5,28.5-16.6,58.1-19.9,83.2-3.1,23.6-2.6,42.1,1.3,50.5a2,2,0,0,1-1,2.7,1.88,1.88,0,0,1-.8.2Z" />
            <path class="cls-44"
                d="M1000,692.6a2,2,0,0,1-2-1.8c-.7-9.5,4.7-16.2,27.6-44.5l3.9-4.9c17.9-22.1,20.5-50.4,22.3-71,.5-5.5,1-10.7,1.7-15.1.6-4.1,1-8.2,1.3-12.1.6-8.3,5-23.8,27.7-33.9a2,2,0,1,1,1.6,3.6c-20.8,9.2-24.8,23-25.4,30.5-.3,4-.6,8.2-1.3,12.4s-1.1,9.4-1.6,14.9c-1.9,21.1-4.5,50.1-23.2,73.1l-3.9,4.9c-22.1,27.3-27.4,33.8-26.8,41.7a1.87,1.87,0,0,1-1.8,2.1c0,.1,0,.1-.1.1Z" />
            <path class="cls-4"
                d="M1025.5,1000.5s3.4-32,30.4-30.9,306.4,2.3,306.4,2.3l56.3,28.6Z" />
            <path class="cls-3"
                d="M1298.1,1003h-1a2.5,2.5,0,0,1,0-5h1a2.48,2.48,0,0,1,2.5,2.5A2.54,2.54,0,0,1,1298.1,1003Zm-14,0h-13a2.5,2.5,0,0,1,0-5h13a2.48,2.48,0,0,1,2.5,2.5A2.54,2.54,0,0,1,1284.1,1003Zm-63,0H1025.5a2.73,2.73,0,0,1-1.9-.8,2.21,2.21,0,0,1-.6-1.9c0-.3,3.8-33.1,31.5-33.1h1.5c14.9.6,107.5,1.3,182.5,1.7a.9.9,0,0,1,.5.1h.5l13,.1a2.5,2.5,0,0,1,0,5l-13-.1a.9.9,0,0,1-.5-.1h-.5c-75.1-.4-167.7-1.1-182.7-1.7h-1.3c-9.6,0-17,4.7-21.9,14a46.33,46.33,0,0,0-4.2,11.9H1221a2.48,2.48,0,0,1,2.5,2.5A2.37,2.37,0,0,1,1221.1,1003Zm94.6-28.7c-14.6-.1-31.7-.2-50.1-.2a2.5,2.5,0,0,1,0-5c18.4.1,35.6.2,50.1.2a2.48,2.48,0,0,1,2.5,2.5A2.54,2.54,0,0,1,1315.7,974.3Z" />
            <path class="cls-4"
                d="M1415.6,1000.5H1151.9a15.42,15.42,0,0,1-14.3-20.7l55.7-157.4a15.28,15.28,0,0,1,14.3-10.2h263.7a15.42,15.42,0,0,1,14.3,20.7l-55.7,157.4a15,15,0,0,1-14.3,10.2Z" />
            <path class="cls-3"
                d="M1415.6,1003h-244a2.5,2.5,0,0,1,0-5h244a2.5,2.5,0,0,1,0,5Zm-257,0h-6.7a17.78,17.78,0,0,1-17.7-17.9,18.26,18.26,0,0,1,1.1-6.1l4.6-13a2.5,2.5,0,1,1,4.7,1.7l-4.6,13a13.17,13.17,0,0,0-.8,4.4,12.83,12.83,0,0,0,12.7,12.9h6.7a2.5,2.5,0,0,1,0,5Zm277.3-27.1a2,2,0,0,1-.8-.1,2.48,2.48,0,0,1-1.5-3.2l16.7-47.1a2.5,2.5,0,1,1,4.7,1.7l-16.7,47.1a2.5,2.5,0,0,1-2.4,1.6Zm21.1-59.4a2,2,0,0,1-.8-.1,2.48,2.48,0,0,1-1.5-3.2l4.3-12.3c.1-.2.1-.3.2-.5s.1-.3.1-.5l24-67.9a13.17,13.17,0,0,0,.8-4.4,12.83,12.83,0,0,0-12.7-12.9H1342.8a2.5,2.5,0,0,1,0-5h128.6a17.78,17.78,0,0,1,17.7,17.9,18.26,18.26,0,0,1-1.1,6.1l-24,67.9c-.1.2-.1.3-.2.5s-.1.3-.1.5l-4.3,12.3a2.71,2.71,0,0,1-2.4,1.6ZM1292.7,814.8h-13a2.5,2.5,0,0,1,0-5h13a2.5,2.5,0,0,1,0,5Zm-26,0h-1a2.5,2.5,0,0,1,0-5h1a2.5,2.5,0,0,1,0,5Z" />
            <path class="cls-4"
                d="M1104.9,981.9a2.5,2.5,0,0,1-1.8-.8c-32.6-34.9-36.1-82.2-36.1-100.8a70.33,70.33,0,0,1,.4-9.6,2.46,2.46,0,0,1,4.9.5s-.3,3.5-.3,9.2c0,18.1,3.4,63.8,34.7,97.4a2.4,2.4,0,0,1-1.8,4.1Z" />
            <path class="cls-4"
                d="M1273.9,831a2.66,2.66,0,0,1-1.2-.3,2.57,2.57,0,0,1-1.1-3.4c7.8-15,11.7-30.2,11.7-45.2,0-27.4-13.2-45-13.3-45.1a2.5,2.5,0,1,1,4-3c.6.8,14.4,19.1,14.4,48.2,0,15.8-4.1,31.8-12.3,47.5A2.48,2.48,0,0,1,1273.9,831Z" />
            <path class="cls-37"
                d="M1585,660.9s-27.55,19.22-41.46,24.07,37.14-5.2,38.71-8,6-4,7.29-7.86.92-9.68-4.54-8.2Z" />
            <path class="cls-4"
                d="M1344.5,917.8a36.12,36.12,0,0,1-8.7,7.7,118.68,118.68,0,0,1-11.2,6.3h-.4c-4.3-2.9-8-5.6-10.4-7.6-4.7-3.9-8.4-8.1-10.2-14-2.5-8.3.2-14.2,3.6-16.8a11.46,11.46,0,0,1,13.1-.8,15.25,15.25,0,0,1,5.7,6.1Z" />
            <path class="cls-3"
                d="M1324.6,934.3h-.5a3.26,3.26,0,0,1-1.3-.4c-4.5-3-8.2-5.7-10.6-7.7-4.2-3.6-8.8-8.1-11-15.2a24.76,24.76,0,0,1-1.1-6.9c0-5.2,2.1-9.9,5.5-12.6a14,14,0,0,1,15.9-1,16.83,16.83,0,0,1,6.6,7.1,2.48,2.48,0,1,1-4.5,2.1,12.91,12.91,0,0,0-4.6-5,9.22,9.22,0,0,0-10.4.7c-2.2,1.7-3.5,4.9-3.5,8.6a18.57,18.57,0,0,0,.9,5.5c1.4,4.7,4.1,8.4,9.4,12.8,2.1,1.7,5.3,4.1,9.2,6.7,4.1-2.2,7.6-4.2,9.8-5.6a33.91,33.91,0,0,0,8.1-7.1,2.5,2.5,0,0,1,4,3,39.46,39.46,0,0,1-9.3,8.2c-2.6,1.7-6.7,4-11.4,6.5a2.66,2.66,0,0,1-1.2.3Z" />
            <path class="cls-4"
                d="M1326.5,898.7a16.22,16.22,0,0,1,6.3-5.4,11.45,11.45,0,0,1,12.9,2.3,13.08,13.08,0,0,1,3.4,10.5Z" />
            <path class="cls-3"
                d="M1349.1,908.7h-.2a2.48,2.48,0,0,1-2.3-2.7v-1.1a10.56,10.56,0,0,0-2.7-7.5,9.2,9.2,0,0,0-10.2-1.8,14.64,14.64,0,0,0-5.2,4.4,2.52,2.52,0,1,1-4.2-2.8,18.17,18.17,0,0,1,7.4-6.3,14.7,14.7,0,0,1,5.8-1.2,14.53,14.53,0,0,1,9.9,4,15.31,15.31,0,0,1,4.3,11.1v1.4a2.78,2.78,0,0,1-2.6,2.5Z" />
            <path class="cls-37"
                d="M1541.2,672s-21.4.6-37.1,15.5c-7.5,7.1,51.7-9.4,51.7-9.4S1560.8,667,1541.2,672Z" />
            <path class="cls-4"
                d="M1521.2,719.4c-12.5,0-36.4-7-41.8-8.7a3,3,0,1,1,1.7-5.7c15.1,4.6,38.6,10.2,43.4,8.1a3,3,0,1,1,2.3,5.5,14.44,14.44,0,0,1-5.6.8Z" />
        </g>
        <g data-name="Linha 1" id="Linha_1">
            <path class="cls-2" d="M1990.5,482.2h-49.2a2.5,2.5,0,0,1,0-5h49.2a2.5,2.5,0,0,1,0,5Z" />
        </g>
        <g data-name="Linha 2" id="Linha_2">
            <path class="cls-6"
                d="M1940.2,263.8a2.5,2.5,0,0,1-1.77-4.27,2.57,2.57,0,0,1,3.54,0,2.5,2.5,0,0,1-1.77,4.27Zm9.9-9.9a2.5,2.5,0,0,1-1.77-4.27l15.56-15.55a2.54,2.54,0,0,1,3.53,0,2.49,2.49,0,0,1,0,3.53l-15.55,15.56A2.49,2.49,0,0,1,1950.1,253.9Zm21.21-21.21a2.5,2.5,0,0,1-1.77-4.27,2.55,2.55,0,0,1,3.54,0,2.5,2.5,0,0,1,0,3.53A2.46,2.46,0,0,1,1971.31,232.69Zm9.9-9.9a2.46,2.46,0,0,1-1.77-.74,2.5,2.5,0,0,1,0-3.53l3.59-3.59a2.57,2.57,0,0,1,3.54,0,2.51,2.51,0,0,1,0,3.54l-3.59,3.58A2.46,2.46,0,0,1,1981.21,222.79Z" />
        </g>
        <g data-name="Linha 3" id="Linha_3">
            <path class="cls-6"
                d="M1628.6,248.4a2.5,2.5,0,0,1-2.5-2.5V196.7a2.5,2.5,0,0,1,5,0v49.2A2.5,2.5,0,0,1,1628.6,248.4Z" />
        </g>
        <g data-name="Linha 4" id="Linha_4">
            <path class="cls-6"
                d="M1315.8,270.6a2.5,2.5,0,0,1-1.77-4.27,2.56,2.56,0,0,1,3.53,0,2.5,2.5,0,0,1-1.76,4.27Zm-9.91-9.89a2.49,2.49,0,0,1-1.77-.73l-18.4-18.36a2.51,2.51,0,0,1,0-3.54,2.57,2.57,0,0,1,3.54,0l18.4,18.36a2.46,2.46,0,0,1,.74,1.77,2.49,2.49,0,0,1-2.5,2.5ZM1279,233.87a2.5,2.5,0,0,1-1.77-4.26,2.55,2.55,0,0,1,3.53,0,2.46,2.46,0,0,1,.74,1.77,2.49,2.49,0,0,1-2.5,2.5Z" />
        </g>
    </g>
</svg>
