<?xml version="1.0" encoding="utf-8"?>
<!DOCTYPE svg PUBLIC "-//W3C//DTD SVG 1.1//EN" "http://www.w3.org/Graphics/SVG/1.1/DTD/svg11.dtd">
<svg xmlns="http://www.w3.org/2000/svg" xmlns:xlink="http://www.w3.org/1999/xlink" width="1027" height="615" viewBox="0 0 1027 615" version="1.1">
<defs>
<style type="text/css">
<![CDATA[
  text.cardsymbol {
    font-family: URW Bookman L;
    font-size: 19;
    font-weight: normal;
    font-stretch: ultra-condensed;
  }
]]>
</style>
<path id="cf" fill="#FFFFFF" stroke="#000000" stroke-width="1.5" d="M78.25,117.25c0,2.762-2.238,5-5,5h-67.5c-2.761,0-5-2.238-5-5v-111.5c0-2.762,2.239-5,5-5h67.5c2.762,0,5,2.238,5,5V117.25z"/>
<path id="cl" fill="#000000" d="M2.159,-0.864c0,0,2.375-1.9,2.375-4.534c0-1.542-1.369-4.102-4.534-4.102s-4.534,2.561-4.534,4.102c0,2.634,2.375,4.534,2.375,4.534c-2.638-2.055-7.341-0.652-7.341,3.455c0,2.056,1.68,4.318,4.318,4.318c3.165,0,4.534-3.455,4.534-3.455s0.402,3.938-1.943,6.046h5.182c-2.345-2.107-1.943-6.046-1.943-6.046s1.369,3.455,4.534,3.455c2.639,0,4.318-2.263,4.318-4.318C9.5,-1.516,4.797,-2.919,2.159,-0.864z"/>
<path id="cs" fill="#000000" d="M1.137,-0.455c0,0,1.25-1,1.25-2.386c0-0.812-0.722-2.159-2.387-2.159c-1.666,0-2.386,1.348-2.386,2.159c0,1.386,1.25,2.386,1.25,2.386C-2.525,-1.536,-5,-0.798,-5,1.363c0,1.082,0.884,2.273,2.273,2.273c1.666,0,2.386-1.818,2.386-1.818s0.211,2.072-1.023,3.182h2.727c-1.234-1.109-1.022-3.182-1.022-3.182s0.721,1.818,2.387,1.818c1.389,0,2.272-1.191,2.272-2.273C5,-0.798,2.524,-1.536,1.137,-0.455z"/>
<path id="dl" fill="#DF0000" d="M3.529,-5.011C1.412,-7.875,0,-10.5,0,-10.5s-1.412,2.625-3.529,5.489C-5.647,-2.148,-8,0,-8,0s2.353,2.147,4.471,5.012C-1.412,7.875,0,10.5,0,10.5s1.412-2.625,3.529-5.488C5.647,2.147,8,0,8,0 S5.647,-2.148,3.529,-5.011z"/>
<path id="ds" fill="#DF0000" d="M1.985,-2.625C0.794,-4.125,0,-5.5,0,-5.5s-0.794,1.375-1.985,2.875C-3.176,-1.125,-4.5,0,-4.5,0s1.324,1.125,2.515,2.625c1.191,1.5,1.985,2.875,1.985,2.875s0.794-1.375,1.985-2.875c1.191-1.5,2.515-2.625,2.515-2.625S3.177,-1.125,1.985,-2.625z"/>
<path id="hl" fill="#DF0000" d="M3.676,-9c-3.243,0-3.676,3.477-3.676,3.477S-0.433,-9,-3.676,-9C-5.946,-9,-8,-7.441,-8,-4.5c0,3.886,7.191,10.689,8,13.5c0.813-2.814,8-9.614,8-13.5C8,-7.441,5.946,-9,3.676,-9z"/>
<path id="hs" fill="#DF0000" d="M2.067,-5c-1.824,0-2.067,1.932-2.067,1.932S-0.243,-5,-2.067,-5c-1.277,0-2.433,0.866-2.433,2.5c0,2.159,4.045,5.938,4.5,7.5c0.458-1.563,4.5-5.341,4.5-7.5C4.5,-4.134,3.345,-5,2.067,-5z"/>
<path id="sl" fill="#000000" d="M7.989,3.103c-0.242-4.057-7.747-11.693-7.989-13.603c-0.242,1.909-7.747,9.545-7.989,13.603c-0.169,2.868,1.695,4.057,3.39,4.057c2.421,0,3.147-2.625,3.389-3.341c0-0.239,0.484-0.239,0.484,0c0.242,0.716-1.603,6.682-2.179,6.682h5.811c-0.576,0-2.421-5.966-2.179-6.682c0-0.239,0.485-0.239,0.485,0c0.242,0.716,0.968,3.341,3.389,3.341C6.295,7.159,8.158,5.971,7.989,3.103z"/>
<path id="ss" fill="#000000" d="M4.494,1.625C4.357,-0.5,0.136,-4.5,0,-5.5c-0.136,1-4.358,5-4.494,7.125c-0.095,1.503,0.954,2.125,1.907,2.125c1.362,0,1.771-1.375,1.907-1.75c0-0.125,0.272-0.125,0.272,0c0.136,0.375-0.902,3.5-1.226,3.5h3.268c-0.323,0-1.361-3.125-1.226-3.5c0-0.125,0.273-0.125,0.273,0c0.136,0.375,0.544,1.75,1.906,1.75C3.541,3.75,4.589,3.128,4.494,1.625z"/>
<text id="it1" class="cardsymbol" transform="scale(0.8,1)">A</text>
<text id="it2" class="cardsymbol" transform="scale(0.9,1)">2</text>
<text id="it3" class="cardsymbol">3</text>
<text id="it4" class="cardsymbol" transform="scale(0.9,1)">4</text>
<text id="it5" class="cardsymbol" transform="scale(0.9,1)">5</text>
<text id="it6" class="cardsymbol" transform="scale(0.9,1)">6</text>
<text id="it7" class="cardsymbol" transform="scale(0.9,1)">7</text>
<text id="it8" class="cardsymbol" transform="scale(0.9,1)">8</text>
<text id="it9" class="cardsymbol" transform="scale(0.9,1)">9</text>
<!-- FIXME: possibly use textLength + lengthAdjust=spacingAndGlyphs here, and letter-spacing? -->
<text id="it10" class="cardsymbol" transform="scale(0.5,1)">10</text>
<text id="itj" class="cardsymbol" transform="scale(0.8,1)">B</text>
<text id="itq" class="cardsymbol" transform="scale(0.8,1)">D</text>
<text id="itk" class="cardsymbol" transform="scale(0.8,1)">K</text>
<g id="index1">
  <use transform="translate(3.5,17)" xlink:href="#it1" />
  <use transform="translate(-3.5,-17) rotate(180,39.5,61.5)" xlink:href="#it1" />
</g>
<g id="index2">
  <use transform="translate(3.5,17)" xlink:href="#it2" />
  <use transform="translate(-3.5,-17) rotate(180,39.5,61.5)" xlink:href="#it2" />
</g>
<g id="index3">
  <use transform="translate(3.5,17)" xlink:href="#it3" />
  <use transform="translate(-3.5,-17) rotate(180,39.5,61.5)" xlink:href="#it3" />
</g>
<g id="index4">
  <use transform="translate(3.5,17)" xlink:href="#it4" />
  <use transform="translate(-3.5,-17) rotate(180,39.5,61.5)" xlink:href="#it4" />
</g>
<g id="index5">
  <use transform="translate(3.5,17)" xlink:href="#it5" />
  <use transform="translate(-3.5,-17) rotate(180,39.5,61.5)" xlink:href="#it5" />
</g>
<g id="index6">
  <use transform="translate(3.5,17)" xlink:href="#it6" />
  <use transform="translate(-3.5,-17) rotate(180,39.5,61.5)" xlink:href="#it6" />
</g>
<g id="index7">
  <use transform="translate(3.5,17)" xlink:href="#it7" />
  <use transform="translate(-3.5,-17) rotate(180,39.5,61.5)" xlink:href="#it7" />
</g>
<g id="index8">
  <use transform="translate(3.5,17)" xlink:href="#it8" />
  <use transform="translate(-3.5,-17) rotate(180,39.5,61.5)" xlink:href="#it8" />
</g>
<g id="index9">
  <use transform="translate(3.5,17)" xlink:href="#it9" />
  <use transform="translate(-3.5,-17) rotate(180,39.5,61.5)" xlink:href="#it9" />
</g>
<g id="index10">
  <use transform="translate(3.5,17)" xlink:href="#it10" />
  <use transform="translate(-3.5,-17) rotate(180,39.5,61.5)" xlink:href="#it10" />
</g>
<g id="indexj">
  <use transform="translate(3.5,17)" xlink:href="#itj" />
  <use transform="translate(-3.5,-17) rotate(180,39.5,61.5)" xlink:href="#itj" />
</g>
<g id="indexq">
  <use transform="translate(3.5,17)" xlink:href="#itq" />
  <use transform="translate(-3.5,-17) rotate(180,39.5,61.5)" xlink:href="#itq" />
</g>
<g id="indexk">
  <use transform="translate(3.5,17)" xlink:href="#itk" />
  <use transform="translate(-3.5,-17) rotate(180,39.5,61.5)" xlink:href="#itk" />
</g>
<use id="index1b" xlink:href="#index1" stroke="#000000" fill="#000000" />
<use id="index1r" xlink:href="#index1" stroke="#DF0000" fill="#DF0000" />
<use id="index2b" xlink:href="#index2" stroke="#000000" fill="#000000" />
<use id="index2r" xlink:href="#index2" stroke="#DF0000" fill="#DF0000" />
<use id="index3b" xlink:href="#index3" stroke="#000000" fill="#000000" />
<use id="index3r" xlink:href="#index3" stroke="#DF0000" fill="#DF0000" />
<use id="index4b" xlink:href="#index4" stroke="#000000" fill="#000000" />
<use id="index4r" xlink:href="#index4" stroke="#DF0000" fill="#DF0000" />
<use id="index5b" xlink:href="#index5" stroke="#000000" fill="#000000" />
<use id="index5r" xlink:href="#index5" stroke="#DF0000" fill="#DF0000" />
<use id="index6b" xlink:href="#index6" stroke="#000000" fill="#000000" />
<use id="index6r" xlink:href="#index6" stroke="#DF0000" fill="#DF0000" />
<use id="index7b" xlink:href="#index7" stroke="#000000" fill="#000000" />
<use id="index7r" xlink:href="#index7" stroke="#DF0000" fill="#DF0000" />
<use id="index8b" xlink:href="#index8" stroke="#000000" fill="#000000" />
<use id="index8r" xlink:href="#index8" stroke="#DF0000" fill="#DF0000" />
<use id="index9b" xlink:href="#index9" stroke="#000000" fill="#000000" />
<use id="index9r" xlink:href="#index9" stroke="#DF0000" fill="#DF0000" />
<use id="index10b" xlink:href="#index10" stroke="#000000" fill="#000000" />
<use id="index10r" xlink:href="#index10" stroke="#DF0000" fill="#DF0000" />
<use id="indexjb" xlink:href="#indexj" stroke="#000000" fill="#000000" />
<use id="indexjr" xlink:href="#indexj" stroke="#DF0000" fill="#DF0000" />
<use id="indexqb" xlink:href="#indexq" stroke="#000000" fill="#000000" />
<use id="indexqr" xlink:href="#indexq" stroke="#DF0000" fill="#DF0000" />
<use id="indexkb" xlink:href="#indexk" stroke="#000000" fill="#000000" />
<use id="indexkr" xlink:href="#indexk" stroke="#DF0000" fill="#DF0000" />
</defs>
<g id="club_1">
<use x="0" y="0" xlink:href="#cf"/>
<use x="0" y="0" xlink:href="#index1b"/>
<use transform="translate(8.5,24.5)" xlink:href="#cs"/>
<use transform="translate(70.5,98.5) rotate(180)" xlink:href="#cs"/>
<use transform="translate(39.5,61.5)" xlink:href="#cl"/>
</g>
<g id="diamond_1">
<use x="0" y="123" xlink:href="#cf"/>
<use x="0" y="123" xlink:href="#index1r"/>
<use transform="translate(8.5,147.5)" xlink:href="#ds"/>
<use transform="translate(70.5,221.5)" xlink:href="#ds"/>
<use transform="translate(39.5,184.5)" xlink:href="#dl"/>
</g>
<g id="heart_1">
<use x="0" y="246" xlink:href="#cf"/>
<use x="0" y="246" xlink:href="#index1r"/>
<use transform="translate(8.5,270.5)" xlink:href="#hs"/>
<use transform="translate(70.5,344.5) rotate(180)" xlink:href="#hs"/>
<use transform="translate(39.5,307.5)" xlink:href="#hl"/>
</g>
<g id="spade_1">
<use x="0" y="369" xlink:href="#cf"/>
<use x="0" y="369" xlink:href="#index1b"/>
<use transform="translate(8.5,393.5)" xlink:href="#ss"/>
<use transform="translate(70.5,467.5) rotate(180)" xlink:href="#ss"/>
<use transform="translate(39.5,430.5)" xlink:href="#sl"/>
</g>
<g id="club_2">
<use x="79" y="0" xlink:href="#cf"/>
<use x="79" y="0" xlink:href="#index2b"/>
<use transform="translate(87.5,24.5)" xlink:href="#cs"/>
<use transform="translate(149.5,98.5) rotate(180)" xlink:href="#cs"/>
<use transform="translate(118.5,21.5)" xlink:href="#cl"/>
<use transform="translate(118.5,101.5) rotate(180)" xlink:href="#cl"/>
</g>
<g id="diamond_2">
<use x="79" y="123" xlink:href="#cf"/>
<use x="79" y="123" xlink:href="#index2r"/>
<use transform="translate(87.5,147.5)" xlink:href="#ds"/>
<use transform="translate(149.5,221.5)" xlink:href="#ds"/>
<use transform="translate(118.5,144.5)" xlink:href="#dl"/>
<use transform="translate(118.5,224.5)" xlink:href="#dl"/>
</g>
<g id="heart_2">
<use x="79" y="246" xlink:href="#cf"/>
<use x="79" y="246" xlink:href="#index2r"/>
<use transform="translate(87.5,270.5)" xlink:href="#hs"/>
<use transform="translate(149.5,344.5) rotate(180)" xlink:href="#hs"/>
<use transform="translate(118.5,267.5)" xlink:href="#hl"/>
<use transform="translate(118.5,347.5) rotate(180)" xlink:href="#hl"/>
</g>
<g id="spade_2">
<use x="79" y="369" xlink:href="#cf"/>
<use x="79" y="369" xlink:href="#index2b"/>
<use transform="translate(87.5,393.5)" xlink:href="#ss"/>
<use transform="translate(149.5,467.5) rotate(180)" xlink:href="#ss"/>
<use transform="translate(118.5,390.5)" xlink:href="#sl"/>
<use transform="translate(118.5,470.5) rotate(180)" xlink:href="#sl"/>
</g>
<g id="club_3">
<use x="158" y="0" xlink:href="#cf"/>
<use x="158" y="0" xlink:href="#index3b"/>
<use transform="translate(166.5,24.5)" xlink:href="#cs"/>
<use transform="translate(228.5,98.5) rotate(180)" xlink:href="#cs"/>
<use transform="translate(197.5,21.5)" xlink:href="#cl"/>
<use transform="translate(197.5,61.5)" xlink:href="#cl"/>
<use transform="translate(197.5,101.5) rotate(180)" xlink:href="#cl"/>
</g>
<g id="diamond_3">
<use x="158" y="123" xlink:href="#cf"/>
<use x="158" y="123" xlink:href="#index3r"/>
<use transform="translate(166.5,147.5)" xlink:href="#ds"/>
<use transform="translate(228.5,221.5)" xlink:href="#ds"/>
<use transform="translate(197.5,144.5)" xlink:href="#dl"/>
<use transform="translate(197.5,184.5)" xlink:href="#dl"/>
<use transform="translate(197.5,224.5)" xlink:href="#dl"/>
</g>
<g id="heart_3">
<use x="158" y="246" xlink:href="#cf"/>
<use x="158" y="246" xlink:href="#index3r"/>
<use transform="translate(166.5,270.5)" xlink:href="#hs"/>
<use transform="translate(228.5,344.5) rotate(180)" xlink:href="#hs"/>
<use transform="translate(197.5,267.5)" xlink:href="#hl"/>
<use transform="translate(197.5,307.5)" xlink:href="#hl"/>
<use transform="translate(197.5,347.5) rotate(180)" xlink:href="#hl"/>
</g>
<g id="spade_3">
<use x="158" y="369" xlink:href="#cf"/>
<use x="158" y="369" xlink:href="#index3b"/>
<use transform="translate(166.5,393.5)" xlink:href="#ss"/>
<use transform="translate(228.5,467.5) rotate(180)" xlink:href="#ss"/>
<use transform="translate(197.5,390.5)" xlink:href="#sl"/>
<use transform="translate(197.5,430.5)" xlink:href="#sl"/>
<use transform="translate(197.5,470.5) rotate(180)" xlink:href="#sl"/>
</g>
<g id="club_4">
<use x="237" y="0" xlink:href="#cf"/>
<use x="237" y="0" xlink:href="#index4b"/>
<use transform="translate(245.5,24.5)" xlink:href="#cs"/>
<use transform="translate(307.5,98.5) rotate(180)" xlink:href="#cs"/>
<use transform="translate(260.5,21.5)" xlink:href="#cl"/>
<use transform="translate(260.5,101.5) rotate(180)" xlink:href="#cl"/>
<use transform="translate(292.5,21.5)" xlink:href="#cl"/>
<use transform="translate(292.5,101.5) rotate(180)" xlink:href="#cl"/>
</g>
<g id="diamond_4">
<use x="237" y="123" xlink:href="#cf"/>
<use x="237" y="123" xlink:href="#index4r"/>
<use transform="translate(245.5,147.5)" xlink:href="#ds"/>
<use transform="translate(307.5,221.5)" xlink:href="#ds"/>
<use transform="translate(260.5,144.5)" xlink:href="#dl"/>
<use transform="translate(260.5,224.5)" xlink:href="#dl"/>
<use transform="translate(292.5,144.5)" xlink:href="#dl"/>
<use transform="translate(292.5,224.5)" xlink:href="#dl"/>
</g>
<g id="heart_4">
<use x="237" y="246" xlink:href="#cf"/>
<use x="237" y="246" xlink:href="#index4r"/>
<use transform="translate(245.5,270.5)" xlink:href="#hs"/>
<use transform="translate(307.5,344.5) rotate(180)" xlink:href="#hs"/>
<use transform="translate(260.5,267.5)" xlink:href="#hl"/>
<use transform="translate(260.5,347.5) rotate(180)" xlink:href="#hl"/>
<use transform="translate(292.5,267.5)" xlink:href="#hl"/>
<use transform="translate(292.5,347.5) rotate(180)" xlink:href="#hl"/>
</g>
<g id="spade_4">
<use x="237" y="369" xlink:href="#cf"/>
<use x="237" y="369" xlink:href="#index4b"/>
<use transform="translate(245.5,393.5)" xlink:href="#ss"/>
<use transform="translate(307.5,467.5) rotate(180)" xlink:href="#ss"/>
<use transform="translate(260.5,390.5)" xlink:href="#sl"/>
<use transform="translate(260.5,470.5) rotate(180)" xlink:href="#sl"/>
<use transform="translate(292.5,390.5)" xlink:href="#sl"/>
<use transform="translate(292.5,470.5) rotate(180)" xlink:href="#sl"/>
</g>
<g id="club_5">
<use x="316" y="0" xlink:href="#cf"/>
<use x="316" y="0" xlink:href="#index5b"/>
<use transform="translate(324.5,24.5)" xlink:href="#cs"/>
<use transform="translate(386.5,98.5) rotate(180)" xlink:href="#cs"/>
<use transform="translate(339.5,21.5)" xlink:href="#cl"/>
<use transform="translate(339.5,101.5) rotate(180)" xlink:href="#cl"/>
<use transform="translate(355.5,61.5)" xlink:href="#cl"/>
<use transform="translate(371.5,21.5)" xlink:href="#cl"/>
<use transform="translate(371.5,101.5) rotate(180)" xlink:href="#cl"/>
</g>
<g id="diamond_5">
<use x="316" y="123" xlink:href="#cf"/>
<use x="316" y="123" xlink:href="#index5r"/>
<use transform="translate(324.5,147.5)" xlink:href="#ds"/>
<use transform="translate(386.5,221.5)" xlink:href="#ds"/>
<use transform="translate(339.5,144.5)" xlink:href="#dl"/>
<use transform="translate(339.5,224.5)" xlink:href="#dl"/>
<use transform="translate(355.5,184.5)" xlink:href="#dl"/>
<use transform="translate(371.5,144.5)" xlink:href="#dl"/>
<use transform="translate(371.5,224.5)" xlink:href="#dl"/>
</g>
<g id="heart_5">
<use x="316" y="246" xlink:href="#cf"/>
<use x="316" y="246" xlink:href="#index5r"/>
<use transform="translate(324.5,270.5)" xlink:href="#hs"/>
<use transform="translate(386.5,344.5) rotate(180)" xlink:href="#hs"/>
<use transform="translate(339.5,267.5)" xlink:href="#hl"/>
<use transform="translate(339.5,347.5) rotate(180)" xlink:href="#hl"/>
<use transform="translate(355.5,307.5)" xlink:href="#hl"/>
<use transform="translate(371.5,267.5)" xlink:href="#hl"/>
<use transform="translate(371.5,347.5) rotate(180)" xlink:href="#hl"/>
</g>
<g id="spade_5">
<use x="316" y="369" xlink:href="#cf"/>
<use x="316" y="369" xlink:href="#index5b"/>
<use transform="translate(324.5,393.5)" xlink:href="#ss"/>
<use transform="translate(386.5,467.5) rotate(180)" xlink:href="#ss"/>
<use transform="translate(339.5,390.5)" xlink:href="#sl"/>
<use transform="translate(339.5,470.5) rotate(180)" xlink:href="#sl"/>
<use transform="translate(355.5,430.5)" xlink:href="#sl"/>
<use transform="translate(371.5,390.5)" xlink:href="#sl"/>
<use transform="translate(371.5,470.5) rotate(180)" xlink:href="#sl"/>
</g>
<g id="club_6">
<use x="395" y="0" xlink:href="#cf"/>
<use x="395" y="0" xlink:href="#index6b"/>
<use transform="translate(403.5,24.5)" xlink:href="#cs"/>
<use transform="translate(465.5,98.5) rotate(180)" xlink:href="#cs"/>
<use transform="translate(418.5,21.5)" xlink:href="#cl"/>
<use transform="translate(418.5,61.5)" xlink:href="#cl"/>
<use transform="translate(418.5,101.5) rotate(180)" xlink:href="#cl"/>
<use transform="translate(450.5,21.5)" xlink:href="#cl"/>
<use transform="translate(450.5,61.5)" xlink:href="#cl"/>
<use transform="translate(450.5,101.5) rotate(180)" xlink:href="#cl"/>
</g>
<g id="diamond_6">
<use x="395" y="123" xlink:href="#cf"/>
<use x="395" y="123" xlink:href="#index6r"/>
<use transform="translate(403.5,147.5)" xlink:href="#ds"/>
<use transform="translate(465.5,221.5)" xlink:href="#ds"/>
<use transform="translate(418.5,144.5)" xlink:href="#dl"/>
<use transform="translate(418.5,184.5)" xlink:href="#dl"/>
<use transform="translate(418.5,224.5)" xlink:href="#dl"/>
<use transform="translate(450.5,144.5)" xlink:href="#dl"/>
<use transform="translate(450.5,184.5)" xlink:href="#dl"/>
<use transform="translate(450.5,224.5)" xlink:href="#dl"/>
</g>
<g id="heart_6">
<use x="395" y="246" xlink:href="#cf"/>
<use x="395" y="246" xlink:href="#index6r"/>
<use transform="translate(403.5,270.5)" xlink:href="#hs"/>
<use transform="translate(465.5,344.5) rotate(180)" xlink:href="#hs"/>
<use transform="translate(418.5,267.5)" xlink:href="#hl"/>
<use transform="translate(418.5,307.5)" xlink:href="#hl"/>
<use transform="translate(418.5,347.5) rotate(180)" xlink:href="#hl"/>
<use transform="translate(450.5,267.5)" xlink:href="#hl"/>
<use transform="translate(450.5,307.5)" xlink:href="#hl"/>
<use transform="translate(450.5,347.5) rotate(180)" xlink:href="#hl"/>
</g>
<g id="spade_6">
<use x="395" y="369" xlink:href="#cf"/>
<use x="395" y="369" xlink:href="#index6b"/>
<use transform="translate(403.5,393.5)" xlink:href="#ss"/>
<use transform="translate(465.5,467.5) rotate(180)" xlink:href="#ss"/>
<use transform="translate(418.5,390.5)" xlink:href="#sl"/>
<use transform="translate(418.5,430.5)" xlink:href="#sl"/>
<use transform="translate(418.5,470.5) rotate(180)" xlink:href="#sl"/>
<use transform="translate(450.5,390.5)" xlink:href="#sl"/>
<use transform="translate(450.5,430.5)" xlink:href="#sl"/>
<use transform="translate(450.5,470.5) rotate(180)" xlink:href="#sl"/>
</g>
<g id="club_7">
<use x="474" y="0" xlink:href="#cf"/>
<use x="474" y="0" xlink:href="#index7b"/>
<use transform="translate(482.5,24.5)" xlink:href="#cs"/>
<use transform="translate(544.5,98.5) rotate(180)" xlink:href="#cs"/>
<use transform="translate(497.5,21.5)" xlink:href="#cl"/>
<use transform="translate(497.5,61.5)" xlink:href="#cl"/>
<use transform="translate(497.5,101.5) rotate(180)" xlink:href="#cl"/>
<use transform="translate(513.5,41.5)" xlink:href="#cl"/>
<use transform="translate(529.5,21.5)" xlink:href="#cl"/>
<use transform="translate(529.5,61.5)" xlink:href="#cl"/>
<use transform="translate(529.5,101.5) rotate(180)" xlink:href="#cl"/>
</g>
<g id="diamond_7">
<use x="474" y="123" xlink:href="#cf"/>
<use x="474" y="123" xlink:href="#index7r"/>
<use transform="translate(482.5,147.5)" xlink:href="#ds"/>
<use transform="translate(544.5,221.5)" xlink:href="#ds"/>
<use transform="translate(497.5,144.5)" xlink:href="#dl"/>
<use transform="translate(497.5,184.5)" xlink:href="#dl"/>
<use transform="translate(497.5,224.5)" xlink:href="#dl"/>
<use transform="translate(513.5,164.5)" xlink:href="#dl"/>
<use transform="translate(529.5,144.5)" xlink:href="#dl"/>
<use transform="translate(529.5,184.5)" xlink:href="#dl"/>
<use transform="translate(529.5,224.5)" xlink:href="#dl"/>
</g>
<g id="heart_7">
<use x="474" y="246" xlink:href="#cf"/>
<use x="474" y="246" xlink:href="#index7r"/>
<use transform="translate(482.5,270.5)" xlink:href="#hs"/>
<use transform="translate(544.5,344.5) rotate(180)" xlink:href="#hs"/>
<use transform="translate(497.5,267.5)" xlink:href="#hl"/>
<use transform="translate(497.5,307.5)" xlink:href="#hl"/>
<use transform="translate(497.5,347.5) rotate(180)" xlink:href="#hl"/>
<use transform="translate(513.5,287.5)" xlink:href="#hl"/>
<use transform="translate(529.5,267.5)" xlink:href="#hl"/>
<use transform="translate(529.5,307.5)" xlink:href="#hl"/>
<use transform="translate(529.5,347.5) rotate(180)" xlink:href="#hl"/>
</g>
<g id="spade_7">
<use x="474" y="369" xlink:href="#cf"/>
<use x="474" y="369" xlink:href="#index7b"/>
<use transform="translate(482.5,393.5)" xlink:href="#ss"/>
<use transform="translate(544.5,467.5) rotate(180)" xlink:href="#ss"/>
<use transform="translate(497.5,390.5)" xlink:href="#sl"/>
<use transform="translate(497.5,430.5)" xlink:href="#sl"/>
<use transform="translate(497.5,470.5) rotate(180)" xlink:href="#sl"/>
<use transform="translate(513.5,410.5)" xlink:href="#sl"/>
<use transform="translate(529.5,390.5)" xlink:href="#sl"/>
<use transform="translate(529.5,430.5)" xlink:href="#sl"/>
<use transform="translate(529.5,470.5) rotate(180)" xlink:href="#sl"/>
</g>
<g id="club_8">
<use x="553" y="0" xlink:href="#cf"/>
<use x="553" y="0" xlink:href="#index8b"/>
<use transform="translate(561.5,24.5)" xlink:href="#cs"/>
<use transform="translate(623.5,98.5) rotate(180)" xlink:href="#cs"/>
<use transform="translate(576.5,21.5)" xlink:href="#cl"/>
<use transform="translate(576.5,61.5)" xlink:href="#cl"/>
<use transform="translate(576.5,101.5) rotate(180)" xlink:href="#cl"/>
<use transform="translate(592.5,41.5)" xlink:href="#cl"/>
<use transform="translate(592.5,81.5) rotate(180)" xlink:href="#cl"/>
<use transform="translate(608.5,21.5)" xlink:href="#cl"/>
<use transform="translate(608.5,61.5)" xlink:href="#cl"/>
<use transform="translate(608.5,101.5) rotate(180)" xlink:href="#cl"/>
</g>
<g id="diamond_8">
<use x="553" y="123" xlink:href="#cf"/>
<use x="553" y="123" xlink:href="#index8r"/>
<use transform="translate(561.5,147.5)" xlink:href="#ds"/>
<use transform="translate(623.5,221.5)" xlink:href="#ds"/>
<use transform="translate(576.5,144.5)" xlink:href="#dl"/>
<use transform="translate(576.5,184.5)" xlink:href="#dl"/>
<use transform="translate(576.5,224.5)" xlink:href="#dl"/>
<use transform="translate(592.5,164.5)" xlink:href="#dl"/>
<use transform="translate(592.5,204.5)" xlink:href="#dl"/>
<use transform="translate(608.5,144.5)" xlink:href="#dl"/>
<use transform="translate(608.5,184.5)" xlink:href="#dl"/>
<use transform="translate(608.5,224.5)" xlink:href="#dl"/>
</g>
<g id="heart_8">
<use x="553" y="246" xlink:href="#cf"/>
<use x="553" y="246" xlink:href="#index8r"/>
<use transform="translate(561.5,270.5)" xlink:href="#hs"/>
<use transform="translate(623.5,344.5) rotate(180)" xlink:href="#hs"/>
<use transform="translate(576.5,267.5)" xlink:href="#hl"/>
<use transform="translate(576.5,307.5)" xlink:href="#hl"/>
<use transform="translate(576.5,347.5) rotate(180)" xlink:href="#hl"/>
<use transform="translate(592.5,287.5)" xlink:href="#hl"/>
<use transform="translate(592.5,327.5) rotate(180)" xlink:href="#hl"/>
<use transform="translate(608.5,267.5)" xlink:href="#hl"/>
<use transform="translate(608.5,307.5)" xlink:href="#hl"/>
<use transform="translate(608.5,347.5) rotate(180)" xlink:href="#hl"/>
</g>
<g id="spade_8">
<use x="553" y="369" xlink:href="#cf"/>
<use x="553" y="369" xlink:href="#index8b"/>
<use transform="translate(561.5,393.5)" xlink:href="#ss"/>
<use transform="translate(623.5,467.5) rotate(180)" xlink:href="#ss"/>
<use transform="translate(576.5,390.5)" xlink:href="#sl"/>
<use transform="translate(576.5,430.5)" xlink:href="#sl"/>
<use transform="translate(576.5,470.5) rotate(180)" xlink:href="#sl"/>
<use transform="translate(592.5,410.5)" xlink:href="#sl"/>
<use transform="translate(592.5,450.5) rotate(180)" xlink:href="#sl"/>
<use transform="translate(608.5,390.5)" xlink:href="#sl"/>
<use transform="translate(608.5,430.5)" xlink:href="#sl"/>
<use transform="translate(608.5,470.5) rotate(180)" xlink:href="#sl"/>
</g>
<g id="club_9">
<use x="632" y="0" xlink:href="#cf"/>
<use x="632" y="0" xlink:href="#index9b"/>
<use transform="translate(640.5,24.5)" xlink:href="#cs"/>
<use transform="translate(702.5,98.5) rotate(180)" xlink:href="#cs"/>
<use transform="translate(655.5,21.5)" xlink:href="#cl"/>
<use transform="translate(655.5,48.25)" xlink:href="#cl"/>
<use transform="translate(655.5,74.75) rotate(180)" xlink:href="#cl"/>
<use transform="translate(655.5,101.5) rotate(180)" xlink:href="#cl"/>
<use transform="translate(671.5,60.5)" xlink:href="#cl"/>
<use transform="translate(687.5,21.5)" xlink:href="#cl"/>
<use transform="translate(687.5,48.25)" xlink:href="#cl"/>
<use transform="translate(687.5,74.75) rotate(180)" xlink:href="#cl"/>
<use transform="translate(687.5,101.5) rotate(180)" xlink:href="#cl"/>
</g>
<g id="diamond_9">
<use x="632" y="123" xlink:href="#cf"/>
<use x="632" y="123" xlink:href="#index9r"/>
<use transform="translate(640.5,147.5)" xlink:href="#ds"/>
<use transform="translate(702.5,221.5)" xlink:href="#ds"/>
<use transform="translate(655.5,144.5)" xlink:href="#dl"/>
<use transform="translate(655.5,171.25)" xlink:href="#dl"/>
<use transform="translate(655.5,197.75)" xlink:href="#dl"/>
<use transform="translate(655.5,224.5)" xlink:href="#dl"/>
<use transform="translate(671.5,184.5)" xlink:href="#dl"/>
<use transform="translate(687.5,144.5)" xlink:href="#dl"/>
<use transform="translate(687.5,171.25)" xlink:href="#dl"/>
<use transform="translate(687.5,197.75)" xlink:href="#dl"/>
<use transform="translate(687.5,224.5)" xlink:href="#dl"/>
</g>
<g id="heart_9">
<use x="632" y="246" xlink:href="#cf"/>
<use x="632" y="246" xlink:href="#index9r"/>
<use transform="translate(640.5,270.5)" xlink:href="#hs"/>
<use transform="translate(702.5,344.5) rotate(180)" xlink:href="#hs"/>
<use transform="translate(655.5,267.5)" xlink:href="#hl"/>
<use transform="translate(655.5,294.25)" xlink:href="#hl"/>
<use transform="translate(655.5,320.75) rotate(180)" xlink:href="#hl"/>
<use transform="translate(655.5,347.5) rotate(180)" xlink:href="#hl"/>
<use transform="translate(671.5,307.5)" xlink:href="#hl"/>
<use transform="translate(687.5,267.5)" xlink:href="#hl"/>
<use transform="translate(687.5,294.25)" xlink:href="#hl"/>
<use transform="translate(687.5,320.75) rotate(180)" xlink:href="#hl"/>
<use transform="translate(687.5,347.5) rotate(180)" xlink:href="#hl"/>
</g>
<g id="spade_9">
<use x="632" y="369" xlink:href="#cf"/>
<use x="632" y="369" xlink:href="#index9b"/>
<use transform="translate(640.5,393.5)" xlink:href="#ss"/>
<use transform="translate(702.5,467.5) rotate(180)" xlink:href="#ss"/>
<use transform="translate(655.5,390.5)" xlink:href="#sl"/>
<use transform="translate(655.5,417.25)" xlink:href="#sl"/>
<use transform="translate(655.5,443.75) rotate(180)" xlink:href="#sl"/>
<use transform="translate(655.5,470.5) rotate(180)" xlink:href="#sl"/>
<use transform="translate(671.5,430.5)" xlink:href="#sl"/>
<use transform="translate(687.5,390.5)" xlink:href="#sl"/>
<use transform="translate(687.5,417.25)" xlink:href="#sl"/>
<use transform="translate(687.5,443.75) rotate(180)" xlink:href="#sl"/>
<use transform="translate(687.5,470.5) rotate(180)" xlink:href="#sl"/>
</g>
<g id="club_10">
<use x="711" y="0" xlink:href="#cf"/>
<use x="711" y="0" xlink:href="#index10b"/>
<use transform="translate(719.5,24.5)" xlink:href="#cs"/>
<use transform="translate(781.5,98.5) rotate(180)" xlink:href="#cs"/>
<use transform="translate(734.5,21.5)" xlink:href="#cl"/>
<use transform="translate(734.5,48.25)" xlink:href="#cl"/>
<use transform="translate(734.5,74.75) rotate(180)" xlink:href="#cl"/>
<use transform="translate(734.5,101.5) rotate(180)" xlink:href="#cl"/>
<use transform="translate(750.5,34.875)" xlink:href="#cl"/>
<use transform="translate(750.5,88.125) rotate(180)" xlink:href="#cl"/>
<use transform="translate(766.5,21.5)" xlink:href="#cl"/>
<use transform="translate(766.5,48.25)" xlink:href="#cl"/>
<use transform="translate(766.5,74.75) rotate(180)" xlink:href="#cl"/>
<use transform="translate(766.5,101.5) rotate(180)" xlink:href="#cl"/>
</g>
<g id="diamond_10">
<use x="711" y="123" xlink:href="#cf"/>
<use x="711" y="123" xlink:href="#index10r"/>
<use transform="translate(719.5,147.5)" xlink:href="#ds"/>
<use transform="translate(781.5,221.5)" xlink:href="#ds"/>
<use transform="translate(734.5,144.5)" xlink:href="#dl"/>
<use transform="translate(734.5,171.25)" xlink:href="#dl"/>
<use transform="translate(734.5,197.75)" xlink:href="#dl"/>
<use transform="translate(734.5,224.5)" xlink:href="#dl"/>
<use transform="translate(750.5,157.875)" xlink:href="#dl"/>
<use transform="translate(750.5,211.125)" xlink:href="#dl"/>
<use transform="translate(766.5,144.5)" xlink:href="#dl"/>
<use transform="translate(766.5,171.25)" xlink:href="#dl"/>
<use transform="translate(766.5,197.75)" xlink:href="#dl"/>
<use transform="translate(766.5,224.5)" xlink:href="#dl"/>
</g>
<g id="heart_10">
<use x="711" y="246" xlink:href="#cf"/>
<use x="711" y="246" xlink:href="#index10r"/>
<use transform="translate(719.5,270.5)" xlink:href="#hs"/>
<use transform="translate(781.5,344.5) rotate(180)" xlink:href="#hs"/>
<use transform="translate(734.5,267.5)" xlink:href="#hl"/>
<use transform="translate(734.5,294.25)" xlink:href="#hl"/>
<use transform="translate(734.5,320.75) rotate(180)" xlink:href="#hl"/>
<use transform="translate(734.5,347.5) rotate(180)" xlink:href="#hl"/>
<use transform="translate(750.5,280.875)" xlink:href="#hl"/>
<use transform="translate(750.5,334.125) rotate(180)" xlink:href="#hl"/>
<use transform="translate(766.5,267.5)" xlink:href="#hl"/>
<use transform="translate(766.5,294.25)" xlink:href="#hl"/>
<use transform="translate(766.5,320.75) rotate(180)" xlink:href="#hl"/>
<use transform="translate(766.5,347.5) rotate(180)" xlink:href="#hl"/>
</g>
<g id="spade_10">
<use x="711" y="369" xlink:href="#cf"/>
<use x="711" y="369" xlink:href="#index10b"/>
<use transform="translate(719.5,393.5)" xlink:href="#ss"/>
<use transform="translate(781.5,467.5) rotate(180)" xlink:href="#ss"/>
<use transform="translate(734.5,390.5)" xlink:href="#sl"/>
<use transform="translate(734.5,417.25)" xlink:href="#sl"/>
<use transform="translate(734.5,443.75) rotate(180)" xlink:href="#sl"/>
<use transform="translate(734.5,470.5) rotate(180)" xlink:href="#sl"/>
<use transform="translate(750.5,403.875)" xlink:href="#sl"/>
<use transform="translate(750.5,457.125) rotate(180)" xlink:href="#sl"/>
<use transform="translate(766.5,390.5)" xlink:href="#sl"/>
<use transform="translate(766.5,417.25)" xlink:href="#sl"/>
<use transform="translate(766.5,443.75) rotate(180)" xlink:href="#sl"/>
<use transform="translate(766.5,470.5) rotate(180)" xlink:href="#sl"/>
</g>
<g id="club_jack">
<use x="790" y="0" xlink:href="#cf"/>
<use x="790" y="0" xlink:href="#indexjb"/>
<use transform="translate(798.5,24.5)" xlink:href="#cs"/>
<use transform="translate(860.5,98.5) rotate(180)" xlink:href="#cs"/>
</g>
<g id="diamond_jack">
<use x="790" y="123" xlink:href="#cf"/>
<use x="790" y="123" xlink:href="#indexjr"/>
<use transform="translate(798.5,147.5)" xlink:href="#ds"/>
<use transform="translate(860.5,221.5)" xlink:href="#ds"/>
</g>
<g id="heart_jack">
<use x="790" y="246" xlink:href="#cf"/>
<use x="790" y="246" xlink:href="#indexjr"/>
<use transform="translate(798.5,270.5)" xlink:href="#hs"/>
<use transform="translate(860.5,344.5) rotate(180)" xlink:href="#hs"/>
</g>
<g id="spade_jack">
<use x="790" y="369" xlink:href="#cf"/>
<use x="790" y="369" xlink:href="#indexjb"/>
<use transform="translate(798.5,393.5)" xlink:href="#ss"/>
<use transform="translate(860.5,467.5) rotate(180)" xlink:href="#ss"/>
</g>
<g id="club_queen">
<use x="869" y="0" xlink:href="#cf"/>
<use x="869" y="0" xlink:href="#indexqb"/>
<use transform="translate(877.5,24.5)" xlink:href="#cs"/>
<use transform="translate(939.5,98.5) rotate(180)" xlink:href="#cs"/>
</g>
<g id="diamond_queen">
<use x="869" y="123" xlink:href="#cf"/>
<use x="869" y="123" xlink:href="#indexqr"/>
<use transform="translate(877.5,147.5)" xlink:href="#ds"/>
<use transform="translate(939.5,221.5)" xlink:href="#ds"/>
</g>
<g id="heart_queen">
<use x="869" y="246" xlink:href="#cf"/>
<use x="869" y="246" xlink:href="#indexqr"/>
<use transform="translate(877.5,270.5)" xlink:href="#hs"/>
<use transform="translate(939.5,344.5) rotate(180)" xlink:href="#hs"/>
</g>
<g id="spade_queen">
<use x="869" y="369" xlink:href="#cf"/>
<use x="869" y="369" xlink:href="#indexqb"/>
<use transform="translate(877.5,393.5)" xlink:href="#ss"/>
<use transform="translate(939.5,467.5) rotate(180)" xlink:href="#ss"/>
</g>
<g id="club_king">
<use x="948" y="0" xlink:href="#cf"/>
<use x="948" y="0" xlink:href="#indexkb"/>
<use transform="translate(956.5,24.5)" xlink:href="#cs"/>
<use transform="translate(1018.5,98.5) rotate(180)" xlink:href="#cs"/>
</g>
<g id="diamond_king">
<use x="948" y="123" xlink:href="#cf"/>
<use x="948" y="123" xlink:href="#indexkr"/>
<use transform="translate(956.5,147.5)" xlink:href="#ds"/>
<use transform="translate(1018.5,221.5)" xlink:href="#ds"/>
</g>
<g id="heart_king">
<use x="948" y="246" xlink:href="#cf"/>
<use x="948" y="246" xlink:href="#indexkr"/>
<use transform="translate(956.5,270.5)" xlink:href="#hs"/>
<use transform="translate(1018.5,344.5) rotate(180)" xlink:href="#hs"/>
</g>
<g id="spade_king">
<use x="948" y="369" xlink:href="#cf"/>
<use x="948" y="369" xlink:href="#indexkb"/>
<use transform="translate(956.5,393.5)" xlink:href="#ss"/>
<use transform="translate(1018.5,467.5) rotate(180)" xlink:href="#ss"/>
</g>
<g id="joker_black">
<use x="0" y="492" xlink:href="#cf"/>
</g>
<g id="joker_red">
<use x="79" y="492" xlink:href="#cf"/>
</g>
<g id="back">
<use x="158" y="492" xlink:href="#cf"/>
</g>
</svg>
