<?xml version="1.0" encoding="utf-8"?>
<!DOCTYPE svg PUBLIC "-//W3C//DTD SVG 1.1//EN" "http://www.w3.org/Graphics/SVG/1.1/DTD/svg11.dtd">
<svg xmlns="http://www.w3.org/2000/svg" xmlns:xlink="http://www.w3.org/1999/xlink" width="1027" height="615" viewBox="0 0 1027 615" version="1.1">
<defs>
<path id="cf" fill="#FFFFFF" stroke="#000000" stroke-width="1.5" d="M78.25,117.25c0,2.762-2.238,5-5,5h-67.5c-2.761,0-5-2.238-5-5v-111.5c0-2.762,2.239-5,5-5h67.5c2.762,0,5,2.238,5,5V117.25z"/>
<path id="cl" fill="#000000" d="M2.159,-0.864c0,0,2.375-1.9,2.375-4.534c0-1.542-1.369-4.102-4.534-4.102s-4.534,2.561-4.534,4.102c0,2.634,2.375,4.534,2.375,4.534c-2.638-2.055-7.341-0.652-7.341,3.455c0,2.056,1.68,4.318,4.318,4.318c3.165,0,4.534-3.455,4.534-3.455s0.402,3.938-1.943,6.046h5.182c-2.345-2.107-1.943-6.046-1.943-6.046s1.369,3.455,4.534,3.455c2.639,0,4.318-2.263,4.318-4.318C9.5,-1.516,4.797,-2.919,2.159,-0.864z"/>
<path id="cs" fill="#000000" d="M1.137,-0.455c0,0,1.25-1,1.25-2.386c0-0.812-0.722-2.159-2.387-2.159c-1.666,0-2.386,1.348-2.386,2.159c0,1.386,1.25,2.386,1.25,2.386C-2.525,-1.536,-5,-0.798,-5,1.363c0,1.082,0.884,2.273,2.273,2.273c1.666,0,2.386-1.818,2.386-1.818s0.211,2.072-1.023,3.182h2.727c-1.234-1.109-1.022-3.182-1.022-3.182s0.721,1.818,2.387,1.818c1.389,0,2.272-1.191,2.272-2.273C5,-0.798,2.524,-1.536,1.137,-0.455z"/>
<path id="dl" fill="#DF0000" d="M3.529,-5.011C1.412,-7.875,0,-10.5,0,-10.5s-1.412,2.625-3.529,5.489C-5.647,-2.148,-8,0,-8,0s2.353,2.147,4.471,5.012C-1.412,7.875,0,10.5,0,10.5s1.412-2.625,3.529-5.488C5.647,2.147,8,0,8,0 S5.647,-2.148,3.529,-5.011z"/>
<path id="ds" fill="#DF0000" d="M1.985,-2.625C0.794,-4.125,0,-5.5,0,-5.5s-0.794,1.375-1.985,2.875C-3.176,-1.125,-4.5,0,-4.5,0s1.324,1.125,2.515,2.625c1.191,1.5,1.985,2.875,1.985,2.875s0.794-1.375,1.985-2.875c1.191-1.5,2.515-2.625,2.515-2.625S3.177,-1.125,1.985,-2.625z"/>
<path id="hl" fill="#DF0000" d="M3.676,-9c-3.243,0-3.676,3.477-3.676,3.477S-0.433,-9,-3.676,-9C-5.946,-9,-8,-7.441,-8,-4.5c0,3.886,7.191,10.689,8,13.5c0.813-2.814,8-9.614,8-13.5C8,-7.441,5.946,-9,3.676,-9z"/>
<path id="hs" fill="#DF0000" d="M2.067,-5c-1.824,0-2.067,1.932-2.067,1.932S-0.243,-5,-2.067,-5c-1.277,0-2.433,0.866-2.433,2.5c0,2.159,4.045,5.938,4.5,7.5c0.458-1.563,4.5-5.341,4.5-7.5C4.5,-4.134,3.345,-5,2.067,-5z"/>
<path id="sl" fill="#000000" d="M7.989,3.103c-0.242-4.057-7.747-11.693-7.989-13.603c-0.242,1.909-7.747,9.545-7.989,13.603c-0.169,2.868,1.695,4.057,3.39,4.057c2.421,0,3.147-2.625,3.389-3.341c0-0.239,0.484-0.239,0.484,0c0.242,0.716-1.603,6.682-2.179,6.682h5.811c-0.576,0-2.421-5.966-2.179-6.682c0-0.239,0.485-0.239,0.485,0c0.242,0.716,0.968,3.341,3.389,3.341C6.295,7.159,8.158,5.971,7.989,3.103z"/>
<path id="ss" fill="#000000" d="M4.494,1.625C4.357,-0.5,0.136,-4.5,0,-5.5c-0.136,1-4.358,5-4.494,7.125c-0.095,1.503,0.954,2.125,1.907,2.125c1.362,0,1.771-1.375,1.907-1.75c0-0.125,0.272-0.125,0.272,0c0.136,0.375-0.902,3.5-1.226,3.5h3.268c-0.323,0-1.361-3.125-1.226-3.5c0-0.125,0.273-0.125,0.273,0c0.136,0.375,0.544,1.75,1.906,1.75C3.541,3.75,4.589,3.128,4.494,1.625z"/>
<g id="it1" fill="none" stroke-width="1.5">
<line x1="3" y1="17.75" x2="6.5" y2="17.75"/>
<line x1="12" y1="17.75" x2="8.5" y2="17.75"/>
<polyline points="4.5,17.75 7.5,4.5 10.5,17.75 "/>
<line x1="5.25" y1="14.5" x2="9.75" y2="14.5"/>
</g>
<g id="it2" fill="none" stroke-width="1.5">
<path d="M90.25,15.5v2.25h-7.5V16.5c0-3.25,7.5-3.75,7.5-7.75c0-2.75-1.25-3.5-3.75-3.5s-3.75,1.5-3.75,3"/>
</g>
<g id="it3" fill="none" stroke-width="1.5">
<path d="M161.75,7.5V5.25h6.75V6l-5,5.25c0,0,1-0.5,2.5-0.5s3.25,1.25,3.25,3.25s-1.5,3.75-3.75,3.75c-1.75,0-3.25-1-3.75-2.5"/>
</g>
<g id="it4" fill="none" stroke-width="1.5">
<line x1="245" y1="17.75" x2="249" y2="17.75"/>
<polyline points="247,17.75 247,5.25 246.25,5.25 240.75,14.25 240.75,14.75 249,14.75 "/>
</g>
<g id="it5" fill="none" stroke-width="1.5">
<path d="M327.25,5.25h-7v5.25l0.7,0.25c0,0,0.47-1.5,2.8-1.5s3.27,2.25,3.27,4.5s-1.4,4-3.5,4s-3.03-1.5-3.27-2.25"/>
</g>
<g id="it6" fill="none" stroke-width="1.5">
<circle cx="402.5" cy="14" r="3.25"/>
<path d="M399.25,14V8.5c0,0-0.25-3.25,3.23-3.25c1.08,0,2.8,0.5,3.02,2.25"/>
</g>
<g id="it7" fill="none" stroke-width="1.5">
<path d="M477.75,7.5V5.25h6.5L485,6c-2.25,2.75-4.25,7.75-4.25,12.5"/>
</g>
<g id="it8" fill="none" stroke-width="1.5">
<circle cx="560.5" cy="14.25" r="3.5"/>
<circle cx="560.5" cy="7.75" r="3"/>
</g>
<g id="it9" fill="none" stroke-width="1.5">
<path d="M642.75,9v5.5c0,0,0.25,3.25-3.23,3.25c-1.08,0-2.8-0.5-3.02-2.25"/>
<circle cx="639.5" cy="9" r="3.25"/>
</g>
<g id="it10" fill="none" stroke-width="1.5">
<path d="M722.25,15.6c0,1.19-1.01,2.15-2.25,2.15l0,0c-1.24,0-2.25-0.96-2.25-2.15V7.4c0-1.19,1.01-2.15,2.25-2.15l0,0c1.24,0,2.25,0.96,2.25,2.15V15.6z"/>
<line x1="714.75" y1="4.75" x2="714.75" y2="18.25"/>
</g>
<g id="itj" fill="none" stroke-width="1.5">
<path d="M793.75,14.75V15c0,0-0.25,2.75,3,2.75s3-2.75,3-2.75V6"/>
<line x1="802" y1="5.25" x2="797.5" y2="5.25"/>
</g>
<g id="itq" fill="none" stroke-width="1.5">
<path d="M872,12.5c6,0,5,5,9,5"/>
<path d="M879.25,11.5c0-3.45,0-6.25-2.75-6.25s-2.75,2.8-2.75,6.25s0,6.25,2.75,6.25S879.25,14.95,879.25,11.5z"/>
</g>
<g id="itk" fill="none" stroke-width="1.5">
<line x1="951" y1="5.25" x2="955" y2="5.25"/>
<line x1="956" y1="5.25" x2="960" y2="5.25"/>
<line x1="951" y1="17.75" x2="955" y2="17.75"/>
<line x1="956" y1="17.75" x2="960" y2="17.75"/>
<line x1="958.75" y1="5" x2="952.75" y2="13.25"/>
<line x1="958.75" y1="18" x2="955" y2="10.25"/>
<line x1="952.75" y1="4.5" x2="952.75" y2="18.5"/>
</g>
<g id="ib1" fill="none" stroke-width="1.5">
<line x1="73.75" y1="108.5" x2="69.25" y2="108.5"/>
<line x1="76" y1="105.25" x2="72.5" y2="105.25"/>
<line x1="67" y1="105.25" x2="70.5" y2="105.25"/>
<polyline points="74.5,105.25 71.5,118.5 68.5,105.25 "/>
</g>
<g id="ib2" fill="none" stroke-width="1.5">
<path d="M146.75,107.5v-2.25h7.5v1.25c0,3.25-7.5,3.75-7.5,7.75c0,2.75,1.25,3.5,3.75,3.5s3.75-1.5,3.75-3"/>
</g>
<g id="ib3" fill="none" stroke-width="1.5">
<path d="M233.25,115.5v2.25h-6.75V117l5-5.25c0,0-1,0.5-2.5,0.5s-3.25-1.25-3.25-3.25s1.5-3.75,3.75-3.75c1.75,0,3.25,1,3.75,2.5"/>
</g>
<g id="ib4" fill="none" stroke-width="1.5">
<polyline points="306,105.25 306,117.75 306.75,117.75 312.25,108.75 312.25,108.25 304,108.25 "/>
<line x1="308" y1="105.25" x2="304" y2="105.25"/>
</g>
<g id="ib5" fill="none" stroke-width="1.5">
<path d="M383.75,117.75h7v-5.25l-0.7-0.25c0,0-0.47,1.5-2.8,1.5s-3.27-2.25-3.27-4.5s1.4-4,3.5-4s3.03,1.5,3.27,2.25"/>
</g>
<g id="ib6" fill="none" stroke-width="1.5">
<path d="M469.75,109v5.5c0,0,0.25,3.25-3.23,3.25c-1.08,0-2.8-0.5-3.02-2.25"/>
<circle cx="466.5" cy="109" r="3.25"/>
</g>
<g id="ib7" fill="none" stroke-width="1.5">
<path d="M549.25,115.5v2.25h-6.5L542,117c2.25-2.75,4.25-7.75,4.25-12.5"/>
</g>
<g id="ib8" fill="none" stroke-width="1.5">
<circle cx="624.5" cy="115.25" r="3"/>
<circle cx="624.5" cy="108.75" r="3.5"/>
</g>
<g id="ib9" fill="none" stroke-width="1.5">
<circle cx="703.5" cy="114" r="3.25"/>
<path d="M700.25,114v-5.5c0,0-0.25-3.25,3.23-3.25c1.08,0,2.8,0.5,3.02,2.25"/>
</g>
<g id="ib10" fill="none" stroke-width="1.5">
<line x1="786.25" y1="118.25" x2="786.25" y2="104.75"/>
<path d="M778.75,107.4c0-1.19,1.01-2.15,2.25-2.15l0,0c1.24,0,2.25,0.96,2.25,2.15v8.2c0,1.19-1.01,2.15-2.25,2.15l0,0c-1.24,0-2.25-0.96-2.25-2.15V107.4z"/>
</g>
<g id="ibj" fill="none" stroke-width="1.5">
<path d="M865.25,108.25V108c0,0,0.25-2.75-3-2.75s-3,2.75-3,2.75v9"/>
<line x1="857" y1="117.75" x2="861.5" y2="117.75"/>
</g>
<g id="ibq" fill="none" stroke-width="1.5">
<path d="M937.75,111.5c0,3.45,0,6.25,2.75,6.25s2.75-2.8,2.75-6.25s0-6.25-2.75-6.25S937.75,108.05,937.75,111.5z"/>
<path d="M945,110.5c-6,0-5-5-9-5"/>
</g>
<g id="ibk" fill="none" stroke-width="1.5">
<line x1="1024" y1="117.75" x2="1020" y2="117.75"/>
<line x1="1019" y1="117.75" x2="1015" y2="117.75"/>
<line x1="1024" y1="105.25" x2="1020" y2="105.25"/>
<line x1="1022.25" y1="118.5" x2="1022.25" y2="104.5"/>
<line x1="1016.25" y1="118" x2="1022.25" y2="109.75"/>
<line x1="1016.25" y1="105" x2="1020" y2="112.75"/>
<line x1="1019" y1="105.25" x2="1015" y2="105.25"/>
</g>
</defs>
<g id="club_1">
<use x="0" y="0" xlink:href="#cf"/>
<use x="1" y="-0.5" xlink:href="#it1" stroke="#000000"/>
<use x="-1" y="0.5" xlink:href="#ib1" stroke="#000000"/>
<use transform="translate(8.5,24.5)" xlink:href="#cs"/>
<use transform="translate(70.5,98.5) rotate(180)" xlink:href="#cs"/>
<use transform="translate(39.5,61.5)" xlink:href="#cl"/>
</g>
<g id="diamond_1">
<use x="0" y="123" xlink:href="#cf"/>
<use x="1" y="122.5" xlink:href="#it1" stroke="#DF0000"/>
<use x="-1" y="123.5" xlink:href="#ib1" stroke="#DF0000"/>
<use transform="translate(8.5,147.5)" xlink:href="#ds"/>
<use transform="translate(70.5,221.5)" xlink:href="#ds"/>
<use transform="translate(39.5,184.5)" xlink:href="#dl"/>
</g>
<g id="heart_1">
<use x="0" y="246" xlink:href="#cf"/>
<use x="1" y="245.5" xlink:href="#it1" stroke="#DF0000"/>
<use x="-1" y="246.5" xlink:href="#ib1" stroke="#DF0000"/>
<use transform="translate(8.5,270.5)" xlink:href="#hs"/>
<use transform="translate(70.5,344.5) rotate(180)" xlink:href="#hs"/>
<use transform="translate(39.5,307.5)" xlink:href="#hl"/>
</g>
<g id="spade_1">
<use x="0" y="369" xlink:href="#cf"/>
<use x="1" y="368.5" xlink:href="#it1" stroke="#000000"/>
<use x="-1" y="369.5" xlink:href="#ib1" stroke="#000000"/>
<use transform="translate(8.5,393.5)" xlink:href="#ss"/>
<use transform="translate(70.5,467.5) rotate(180)" xlink:href="#ss"/>
<use transform="translate(39.5,430.5)" xlink:href="#sl"/>
</g>
<g id="club_2">
<use x="79" y="0" xlink:href="#cf"/>
<use x="1" y="-0.5" xlink:href="#it2" stroke="#000000"/>
<use x="-1" y="0.5" xlink:href="#ib2" stroke="#000000"/>
<use transform="translate(87.5,24.5)" xlink:href="#cs"/>
<use transform="translate(149.5,98.5) rotate(180)" xlink:href="#cs"/>
<use transform="translate(118.5,21.5)" xlink:href="#cl"/>
<use transform="translate(118.5,101.5) rotate(180)" xlink:href="#cl"/>
</g>
<g id="diamond_2">
<use x="79" y="123" xlink:href="#cf"/>
<use x="1" y="122.5" xlink:href="#it2" stroke="#DF0000"/>
<use x="-1" y="123.5" xlink:href="#ib2" stroke="#DF0000"/>
<use transform="translate(87.5,147.5)" xlink:href="#ds"/>
<use transform="translate(149.5,221.5)" xlink:href="#ds"/>
<use transform="translate(118.5,144.5)" xlink:href="#dl"/>
<use transform="translate(118.5,224.5)" xlink:href="#dl"/>
</g>
<g id="heart_2">
<use x="79" y="246" xlink:href="#cf"/>
<use x="1" y="245.5" xlink:href="#it2" stroke="#DF0000"/>
<use x="-1" y="246.5" xlink:href="#ib2" stroke="#DF0000"/>
<use transform="translate(87.5,270.5)" xlink:href="#hs"/>
<use transform="translate(149.5,344.5) rotate(180)" xlink:href="#hs"/>
<use transform="translate(118.5,267.5)" xlink:href="#hl"/>
<use transform="translate(118.5,347.5) rotate(180)" xlink:href="#hl"/>
</g>
<g id="spade_2">
<use x="79" y="369" xlink:href="#cf"/>
<use x="1" y="368.5" xlink:href="#it2" stroke="#000000"/>
<use x="-1" y="369.5" xlink:href="#ib2" stroke="#000000"/>
<use transform="translate(87.5,393.5)" xlink:href="#ss"/>
<use transform="translate(149.5,467.5) rotate(180)" xlink:href="#ss"/>
<use transform="translate(118.5,390.5)" xlink:href="#sl"/>
<use transform="translate(118.5,470.5) rotate(180)" xlink:href="#sl"/>
</g>
<g id="club_3">
<use x="158" y="0" xlink:href="#cf"/>
<use x="1" y="-0.5" xlink:href="#it3" stroke="#000000"/>
<use x="-1" y="0.5" xlink:href="#ib3" stroke="#000000"/>
<use transform="translate(166.5,24.5)" xlink:href="#cs"/>
<use transform="translate(228.5,98.5) rotate(180)" xlink:href="#cs"/>
<use transform="translate(197.5,21.5)" xlink:href="#cl"/>
<use transform="translate(197.5,61.5)" xlink:href="#cl"/>
<use transform="translate(197.5,101.5) rotate(180)" xlink:href="#cl"/>
</g>
<g id="diamond_3">
<use x="158" y="123" xlink:href="#cf"/>
<use x="1" y="122.5" xlink:href="#it3" stroke="#DF0000"/>
<use x="-1" y="123.5" xlink:href="#ib3" stroke="#DF0000"/>
<use transform="translate(166.5,147.5)" xlink:href="#ds"/>
<use transform="translate(228.5,221.5)" xlink:href="#ds"/>
<use transform="translate(197.5,144.5)" xlink:href="#dl"/>
<use transform="translate(197.5,184.5)" xlink:href="#dl"/>
<use transform="translate(197.5,224.5)" xlink:href="#dl"/>
</g>
<g id="heart_3">
<use x="158" y="246" xlink:href="#cf"/>
<use x="1" y="245.5" xlink:href="#it3" stroke="#DF0000"/>
<use x="-1" y="246.5" xlink:href="#ib3" stroke="#DF0000"/>
<use transform="translate(166.5,270.5)" xlink:href="#hs"/>
<use transform="translate(228.5,344.5) rotate(180)" xlink:href="#hs"/>
<use transform="translate(197.5,267.5)" xlink:href="#hl"/>
<use transform="translate(197.5,307.5)" xlink:href="#hl"/>
<use transform="translate(197.5,347.5) rotate(180)" xlink:href="#hl"/>
</g>
<g id="spade_3">
<use x="158" y="369" xlink:href="#cf"/>
<use x="1" y="368.5" xlink:href="#it3" stroke="#000000"/>
<use x="-1" y="369.5" xlink:href="#ib3" stroke="#000000"/>
<use transform="translate(166.5,393.5)" xlink:href="#ss"/>
<use transform="translate(228.5,467.5) rotate(180)" xlink:href="#ss"/>
<use transform="translate(197.5,390.5)" xlink:href="#sl"/>
<use transform="translate(197.5,430.5)" xlink:href="#sl"/>
<use transform="translate(197.5,470.5) rotate(180)" xlink:href="#sl"/>
</g>
<g id="club_4">
<use x="237" y="0" xlink:href="#cf"/>
<use x="1" y="-0.5" xlink:href="#it4" stroke="#000000"/>
<use x="-1" y="0.5" xlink:href="#ib4" stroke="#000000"/>
<use transform="translate(245.5,24.5)" xlink:href="#cs"/>
<use transform="translate(307.5,98.5) rotate(180)" xlink:href="#cs"/>
<use transform="translate(260.5,21.5)" xlink:href="#cl"/>
<use transform="translate(260.5,101.5) rotate(180)" xlink:href="#cl"/>
<use transform="translate(292.5,21.5)" xlink:href="#cl"/>
<use transform="translate(292.5,101.5) rotate(180)" xlink:href="#cl"/>
</g>
<g id="diamond_4">
<use x="237" y="123" xlink:href="#cf"/>
<use x="1" y="122.5" xlink:href="#it4" stroke="#DF0000"/>
<use x="-1" y="123.5" xlink:href="#ib4" stroke="#DF0000"/>
<use transform="translate(245.5,147.5)" xlink:href="#ds"/>
<use transform="translate(307.5,221.5)" xlink:href="#ds"/>
<use transform="translate(260.5,144.5)" xlink:href="#dl"/>
<use transform="translate(260.5,224.5)" xlink:href="#dl"/>
<use transform="translate(292.5,144.5)" xlink:href="#dl"/>
<use transform="translate(292.5,224.5)" xlink:href="#dl"/>
</g>
<g id="heart_4">
<use x="237" y="246" xlink:href="#cf"/>
<use x="1" y="245.5" xlink:href="#it4" stroke="#DF0000"/>
<use x="-1" y="246.5" xlink:href="#ib4" stroke="#DF0000"/>
<use transform="translate(245.5,270.5)" xlink:href="#hs"/>
<use transform="translate(307.5,344.5) rotate(180)" xlink:href="#hs"/>
<use transform="translate(260.5,267.5)" xlink:href="#hl"/>
<use transform="translate(260.5,347.5) rotate(180)" xlink:href="#hl"/>
<use transform="translate(292.5,267.5)" xlink:href="#hl"/>
<use transform="translate(292.5,347.5) rotate(180)" xlink:href="#hl"/>
</g>
<g id="spade_4">
<use x="237" y="369" xlink:href="#cf"/>
<use x="1" y="368.5" xlink:href="#it4" stroke="#000000"/>
<use x="-1" y="369.5" xlink:href="#ib4" stroke="#000000"/>
<use transform="translate(245.5,393.5)" xlink:href="#ss"/>
<use transform="translate(307.5,467.5) rotate(180)" xlink:href="#ss"/>
<use transform="translate(260.5,390.5)" xlink:href="#sl"/>
<use transform="translate(260.5,470.5) rotate(180)" xlink:href="#sl"/>
<use transform="translate(292.5,390.5)" xlink:href="#sl"/>
<use transform="translate(292.5,470.5) rotate(180)" xlink:href="#sl"/>
</g>
<g id="club_5">
<use x="316" y="0" xlink:href="#cf"/>
<use x="1" y="-0.5" xlink:href="#it5" stroke="#000000"/>
<use x="-1" y="0.5" xlink:href="#ib5" stroke="#000000"/>
<use transform="translate(324.5,24.5)" xlink:href="#cs"/>
<use transform="translate(386.5,98.5) rotate(180)" xlink:href="#cs"/>
<use transform="translate(339.5,21.5)" xlink:href="#cl"/>
<use transform="translate(339.5,101.5) rotate(180)" xlink:href="#cl"/>
<use transform="translate(355.5,61.5)" xlink:href="#cl"/>
<use transform="translate(371.5,21.5)" xlink:href="#cl"/>
<use transform="translate(371.5,101.5) rotate(180)" xlink:href="#cl"/>
</g>
<g id="diamond_5">
<use x="316" y="123" xlink:href="#cf"/>
<use x="1" y="122.5" xlink:href="#it5" stroke="#DF0000"/>
<use x="-1" y="123.5" xlink:href="#ib5" stroke="#DF0000"/>
<use transform="translate(324.5,147.5)" xlink:href="#ds"/>
<use transform="translate(386.5,221.5)" xlink:href="#ds"/>
<use transform="translate(339.5,144.5)" xlink:href="#dl"/>
<use transform="translate(339.5,224.5)" xlink:href="#dl"/>
<use transform="translate(355.5,184.5)" xlink:href="#dl"/>
<use transform="translate(371.5,144.5)" xlink:href="#dl"/>
<use transform="translate(371.5,224.5)" xlink:href="#dl"/>
</g>
<g id="heart_5">
<use x="316" y="246" xlink:href="#cf"/>
<use x="1" y="245.5" xlink:href="#it5" stroke="#DF0000"/>
<use x="-1" y="246.5" xlink:href="#ib5" stroke="#DF0000"/>
<use transform="translate(324.5,270.5)" xlink:href="#hs"/>
<use transform="translate(386.5,344.5) rotate(180)" xlink:href="#hs"/>
<use transform="translate(339.5,267.5)" xlink:href="#hl"/>
<use transform="translate(339.5,347.5) rotate(180)" xlink:href="#hl"/>
<use transform="translate(355.5,307.5)" xlink:href="#hl"/>
<use transform="translate(371.5,267.5)" xlink:href="#hl"/>
<use transform="translate(371.5,347.5) rotate(180)" xlink:href="#hl"/>
</g>
<g id="spade_5">
<use x="316" y="369" xlink:href="#cf"/>
<use x="1" y="368.5" xlink:href="#it5" stroke="#000000"/>
<use x="-1" y="369.5" xlink:href="#ib5" stroke="#000000"/>
<use transform="translate(324.5,393.5)" xlink:href="#ss"/>
<use transform="translate(386.5,467.5) rotate(180)" xlink:href="#ss"/>
<use transform="translate(339.5,390.5)" xlink:href="#sl"/>
<use transform="translate(339.5,470.5) rotate(180)" xlink:href="#sl"/>
<use transform="translate(355.5,430.5)" xlink:href="#sl"/>
<use transform="translate(371.5,390.5)" xlink:href="#sl"/>
<use transform="translate(371.5,470.5) rotate(180)" xlink:href="#sl"/>
</g>
<g id="club_6">
<use x="395" y="0" xlink:href="#cf"/>
<use x="1" y="-0.5" xlink:href="#it6" stroke="#000000"/>
<use x="-1" y="0.5" xlink:href="#ib6" stroke="#000000"/>
<use transform="translate(403.5,24.5)" xlink:href="#cs"/>
<use transform="translate(465.5,98.5) rotate(180)" xlink:href="#cs"/>
<use transform="translate(418.5,21.5)" xlink:href="#cl"/>
<use transform="translate(418.5,61.5)" xlink:href="#cl"/>
<use transform="translate(418.5,101.5) rotate(180)" xlink:href="#cl"/>
<use transform="translate(450.5,21.5)" xlink:href="#cl"/>
<use transform="translate(450.5,61.5)" xlink:href="#cl"/>
<use transform="translate(450.5,101.5) rotate(180)" xlink:href="#cl"/>
</g>
<g id="diamond_6">
<use x="395" y="123" xlink:href="#cf"/>
<use x="1" y="122.5" xlink:href="#it6" stroke="#DF0000"/>
<use x="-1" y="123.5" xlink:href="#ib6" stroke="#DF0000"/>
<use transform="translate(403.5,147.5)" xlink:href="#ds"/>
<use transform="translate(465.5,221.5)" xlink:href="#ds"/>
<use transform="translate(418.5,144.5)" xlink:href="#dl"/>
<use transform="translate(418.5,184.5)" xlink:href="#dl"/>
<use transform="translate(418.5,224.5)" xlink:href="#dl"/>
<use transform="translate(450.5,144.5)" xlink:href="#dl"/>
<use transform="translate(450.5,184.5)" xlink:href="#dl"/>
<use transform="translate(450.5,224.5)" xlink:href="#dl"/>
</g>
<g id="heart_6">
<use x="395" y="246" xlink:href="#cf"/>
<use x="1" y="245.5" xlink:href="#it6" stroke="#DF0000"/>
<use x="-1" y="246.5" xlink:href="#ib6" stroke="#DF0000"/>
<use transform="translate(403.5,270.5)" xlink:href="#hs"/>
<use transform="translate(465.5,344.5) rotate(180)" xlink:href="#hs"/>
<use transform="translate(418.5,267.5)" xlink:href="#hl"/>
<use transform="translate(418.5,307.5)" xlink:href="#hl"/>
<use transform="translate(418.5,347.5) rotate(180)" xlink:href="#hl"/>
<use transform="translate(450.5,267.5)" xlink:href="#hl"/>
<use transform="translate(450.5,307.5)" xlink:href="#hl"/>
<use transform="translate(450.5,347.5) rotate(180)" xlink:href="#hl"/>
</g>
<g id="spade_6">
<use x="395" y="369" xlink:href="#cf"/>
<use x="1" y="368.5" xlink:href="#it6" stroke="#000000"/>
<use x="-1" y="369.5" xlink:href="#ib6" stroke="#000000"/>
<use transform="translate(403.5,393.5)" xlink:href="#ss"/>
<use transform="translate(465.5,467.5) rotate(180)" xlink:href="#ss"/>
<use transform="translate(418.5,390.5)" xlink:href="#sl"/>
<use transform="translate(418.5,430.5)" xlink:href="#sl"/>
<use transform="translate(418.5,470.5) rotate(180)" xlink:href="#sl"/>
<use transform="translate(450.5,390.5)" xlink:href="#sl"/>
<use transform="translate(450.5,430.5)" xlink:href="#sl"/>
<use transform="translate(450.5,470.5) rotate(180)" xlink:href="#sl"/>
</g>
<g id="club_7">
<use x="474" y="0" xlink:href="#cf"/>
<use x="1" y="-0.5" xlink:href="#it7" stroke="#000000"/>
<use x="-1" y="0.5" xlink:href="#ib7" stroke="#000000"/>
<use transform="translate(482.5,24.5)" xlink:href="#cs"/>
<use transform="translate(544.5,98.5) rotate(180)" xlink:href="#cs"/>
<use transform="translate(497.5,21.5)" xlink:href="#cl"/>
<use transform="translate(497.5,61.5)" xlink:href="#cl"/>
<use transform="translate(497.5,101.5) rotate(180)" xlink:href="#cl"/>
<use transform="translate(513.5,41.5)" xlink:href="#cl"/>
<use transform="translate(529.5,21.5)" xlink:href="#cl"/>
<use transform="translate(529.5,61.5)" xlink:href="#cl"/>
<use transform="translate(529.5,101.5) rotate(180)" xlink:href="#cl"/>
</g>
<g id="diamond_7">
<use x="474" y="123" xlink:href="#cf"/>
<use x="1" y="122.5" xlink:href="#it7" stroke="#DF0000"/>
<use x="-1" y="123.5" xlink:href="#ib7" stroke="#DF0000"/>
<use transform="translate(482.5,147.5)" xlink:href="#ds"/>
<use transform="translate(544.5,221.5)" xlink:href="#ds"/>
<use transform="translate(497.5,144.5)" xlink:href="#dl"/>
<use transform="translate(497.5,184.5)" xlink:href="#dl"/>
<use transform="translate(497.5,224.5)" xlink:href="#dl"/>
<use transform="translate(513.5,164.5)" xlink:href="#dl"/>
<use transform="translate(529.5,144.5)" xlink:href="#dl"/>
<use transform="translate(529.5,184.5)" xlink:href="#dl"/>
<use transform="translate(529.5,224.5)" xlink:href="#dl"/>
</g>
<g id="heart_7">
<use x="474" y="246" xlink:href="#cf"/>
<use x="1" y="245.5" xlink:href="#it7" stroke="#DF0000"/>
<use x="-1" y="246.5" xlink:href="#ib7" stroke="#DF0000"/>
<use transform="translate(482.5,270.5)" xlink:href="#hs"/>
<use transform="translate(544.5,344.5) rotate(180)" xlink:href="#hs"/>
<use transform="translate(497.5,267.5)" xlink:href="#hl"/>
<use transform="translate(497.5,307.5)" xlink:href="#hl"/>
<use transform="translate(497.5,347.5) rotate(180)" xlink:href="#hl"/>
<use transform="translate(513.5,287.5)" xlink:href="#hl"/>
<use transform="translate(529.5,267.5)" xlink:href="#hl"/>
<use transform="translate(529.5,307.5)" xlink:href="#hl"/>
<use transform="translate(529.5,347.5) rotate(180)" xlink:href="#hl"/>
</g>
<g id="spade_7">
<use x="474" y="369" xlink:href="#cf"/>
<use x="1" y="368.5" xlink:href="#it7" stroke="#000000"/>
<use x="-1" y="369.5" xlink:href="#ib7" stroke="#000000"/>
<use transform="translate(482.5,393.5)" xlink:href="#ss"/>
<use transform="translate(544.5,467.5) rotate(180)" xlink:href="#ss"/>
<use transform="translate(497.5,390.5)" xlink:href="#sl"/>
<use transform="translate(497.5,430.5)" xlink:href="#sl"/>
<use transform="translate(497.5,470.5) rotate(180)" xlink:href="#sl"/>
<use transform="translate(513.5,410.5)" xlink:href="#sl"/>
<use transform="translate(529.5,390.5)" xlink:href="#sl"/>
<use transform="translate(529.5,430.5)" xlink:href="#sl"/>
<use transform="translate(529.5,470.5) rotate(180)" xlink:href="#sl"/>
</g>
<g id="club_8">
<use x="553" y="0" xlink:href="#cf"/>
<use x="1" y="-0.5" xlink:href="#it8" stroke="#000000"/>
<use x="-1" y="0.5" xlink:href="#ib8" stroke="#000000"/>
<use transform="translate(561.5,24.5)" xlink:href="#cs"/>
<use transform="translate(623.5,98.5) rotate(180)" xlink:href="#cs"/>
<use transform="translate(576.5,21.5)" xlink:href="#cl"/>
<use transform="translate(576.5,61.5)" xlink:href="#cl"/>
<use transform="translate(576.5,101.5) rotate(180)" xlink:href="#cl"/>
<use transform="translate(592.5,41.5)" xlink:href="#cl"/>
<use transform="translate(592.5,81.5) rotate(180)" xlink:href="#cl"/>
<use transform="translate(608.5,21.5)" xlink:href="#cl"/>
<use transform="translate(608.5,61.5)" xlink:href="#cl"/>
<use transform="translate(608.5,101.5) rotate(180)" xlink:href="#cl"/>
</g>
<g id="diamond_8">
<use x="553" y="123" xlink:href="#cf"/>
<use x="1" y="122.5" xlink:href="#it8" stroke="#DF0000"/>
<use x="-1" y="123.5" xlink:href="#ib8" stroke="#DF0000"/>
<use transform="translate(561.5,147.5)" xlink:href="#ds"/>
<use transform="translate(623.5,221.5)" xlink:href="#ds"/>
<use transform="translate(576.5,144.5)" xlink:href="#dl"/>
<use transform="translate(576.5,184.5)" xlink:href="#dl"/>
<use transform="translate(576.5,224.5)" xlink:href="#dl"/>
<use transform="translate(592.5,164.5)" xlink:href="#dl"/>
<use transform="translate(592.5,204.5)" xlink:href="#dl"/>
<use transform="translate(608.5,144.5)" xlink:href="#dl"/>
<use transform="translate(608.5,184.5)" xlink:href="#dl"/>
<use transform="translate(608.5,224.5)" xlink:href="#dl"/>
</g>
<g id="heart_8">
<use x="553" y="246" xlink:href="#cf"/>
<use x="1" y="245.5" xlink:href="#it8" stroke="#DF0000"/>
<use x="-1" y="246.5" xlink:href="#ib8" stroke="#DF0000"/>
<use transform="translate(561.5,270.5)" xlink:href="#hs"/>
<use transform="translate(623.5,344.5) rotate(180)" xlink:href="#hs"/>
<use transform="translate(576.5,267.5)" xlink:href="#hl"/>
<use transform="translate(576.5,307.5)" xlink:href="#hl"/>
<use transform="translate(576.5,347.5) rotate(180)" xlink:href="#hl"/>
<use transform="translate(592.5,287.5)" xlink:href="#hl"/>
<use transform="translate(592.5,327.5) rotate(180)" xlink:href="#hl"/>
<use transform="translate(608.5,267.5)" xlink:href="#hl"/>
<use transform="translate(608.5,307.5)" xlink:href="#hl"/>
<use transform="translate(608.5,347.5) rotate(180)" xlink:href="#hl"/>
</g>
<g id="spade_8">
<use x="553" y="369" xlink:href="#cf"/>
<use x="1" y="368.5" xlink:href="#it8" stroke="#000000"/>
<use x="-1" y="369.5" xlink:href="#ib8" stroke="#000000"/>
<use transform="translate(561.5,393.5)" xlink:href="#ss"/>
<use transform="translate(623.5,467.5) rotate(180)" xlink:href="#ss"/>
<use transform="translate(576.5,390.5)" xlink:href="#sl"/>
<use transform="translate(576.5,430.5)" xlink:href="#sl"/>
<use transform="translate(576.5,470.5) rotate(180)" xlink:href="#sl"/>
<use transform="translate(592.5,410.5)" xlink:href="#sl"/>
<use transform="translate(592.5,450.5) rotate(180)" xlink:href="#sl"/>
<use transform="translate(608.5,390.5)" xlink:href="#sl"/>
<use transform="translate(608.5,430.5)" xlink:href="#sl"/>
<use transform="translate(608.5,470.5) rotate(180)" xlink:href="#sl"/>
</g>
<g id="club_9">
<use x="632" y="0" xlink:href="#cf"/>
<use x="1" y="-0.5" xlink:href="#it9" stroke="#000000"/>
<use x="-1" y="0.5" xlink:href="#ib9" stroke="#000000"/>
<use transform="translate(640.5,24.5)" xlink:href="#cs"/>
<use transform="translate(702.5,98.5) rotate(180)" xlink:href="#cs"/>
<use transform="translate(655.5,21.5)" xlink:href="#cl"/>
<use transform="translate(655.5,48.25)" xlink:href="#cl"/>
<use transform="translate(655.5,74.75) rotate(180)" xlink:href="#cl"/>
<use transform="translate(655.5,101.5) rotate(180)" xlink:href="#cl"/>
<use transform="translate(671.5,60.5)" xlink:href="#cl"/>
<use transform="translate(687.5,21.5)" xlink:href="#cl"/>
<use transform="translate(687.5,48.25)" xlink:href="#cl"/>
<use transform="translate(687.5,74.75) rotate(180)" xlink:href="#cl"/>
<use transform="translate(687.5,101.5) rotate(180)" xlink:href="#cl"/>
</g>
<g id="diamond_9">
<use x="632" y="123" xlink:href="#cf"/>
<use x="1" y="122.5" xlink:href="#it9" stroke="#DF0000"/>
<use x="-1" y="123.5" xlink:href="#ib9" stroke="#DF0000"/>
<use transform="translate(640.5,147.5)" xlink:href="#ds"/>
<use transform="translate(702.5,221.5)" xlink:href="#ds"/>
<use transform="translate(655.5,144.5)" xlink:href="#dl"/>
<use transform="translate(655.5,171.25)" xlink:href="#dl"/>
<use transform="translate(655.5,197.75)" xlink:href="#dl"/>
<use transform="translate(655.5,224.5)" xlink:href="#dl"/>
<use transform="translate(671.5,184.5)" xlink:href="#dl"/>
<use transform="translate(687.5,144.5)" xlink:href="#dl"/>
<use transform="translate(687.5,171.25)" xlink:href="#dl"/>
<use transform="translate(687.5,197.75)" xlink:href="#dl"/>
<use transform="translate(687.5,224.5)" xlink:href="#dl"/>
</g>
<g id="heart_9">
<use x="632" y="246" xlink:href="#cf"/>
<use x="1" y="245.5" xlink:href="#it9" stroke="#DF0000"/>
<use x="-1" y="246.5" xlink:href="#ib9" stroke="#DF0000"/>
<use transform="translate(640.5,270.5)" xlink:href="#hs"/>
<use transform="translate(702.5,344.5) rotate(180)" xlink:href="#hs"/>
<use transform="translate(655.5,267.5)" xlink:href="#hl"/>
<use transform="translate(655.5,294.25)" xlink:href="#hl"/>
<use transform="translate(655.5,320.75) rotate(180)" xlink:href="#hl"/>
<use transform="translate(655.5,347.5) rotate(180)" xlink:href="#hl"/>
<use transform="translate(671.5,307.5)" xlink:href="#hl"/>
<use transform="translate(687.5,267.5)" xlink:href="#hl"/>
<use transform="translate(687.5,294.25)" xlink:href="#hl"/>
<use transform="translate(687.5,320.75) rotate(180)" xlink:href="#hl"/>
<use transform="translate(687.5,347.5) rotate(180)" xlink:href="#hl"/>
</g>
<g id="spade_9">
<use x="632" y="369" xlink:href="#cf"/>
<use x="1" y="368.5" xlink:href="#it9" stroke="#000000"/>
<use x="-1" y="369.5" xlink:href="#ib9" stroke="#000000"/>
<use transform="translate(640.5,393.5)" xlink:href="#ss"/>
<use transform="translate(702.5,467.5) rotate(180)" xlink:href="#ss"/>
<use transform="translate(655.5,390.5)" xlink:href="#sl"/>
<use transform="translate(655.5,417.25)" xlink:href="#sl"/>
<use transform="translate(655.5,443.75) rotate(180)" xlink:href="#sl"/>
<use transform="translate(655.5,470.5) rotate(180)" xlink:href="#sl"/>
<use transform="translate(671.5,430.5)" xlink:href="#sl"/>
<use transform="translate(687.5,390.5)" xlink:href="#sl"/>
<use transform="translate(687.5,417.25)" xlink:href="#sl"/>
<use transform="translate(687.5,443.75) rotate(180)" xlink:href="#sl"/>
<use transform="translate(687.5,470.5) rotate(180)" xlink:href="#sl"/>
</g>
<g id="club_10">
<use x="711" y="0" xlink:href="#cf"/>
<use x="1" y="-0.5" xlink:href="#it10" stroke="#000000"/>
<use x="-1" y="0.5" xlink:href="#ib10" stroke="#000000"/>
<use transform="translate(719.5,24.5)" xlink:href="#cs"/>
<use transform="translate(781.5,98.5) rotate(180)" xlink:href="#cs"/>
<use transform="translate(734.5,21.5)" xlink:href="#cl"/>
<use transform="translate(734.5,48.25)" xlink:href="#cl"/>
<use transform="translate(734.5,74.75) rotate(180)" xlink:href="#cl"/>
<use transform="translate(734.5,101.5) rotate(180)" xlink:href="#cl"/>
<use transform="translate(750.5,34.875)" xlink:href="#cl"/>
<use transform="translate(750.5,88.125) rotate(180)" xlink:href="#cl"/>
<use transform="translate(766.5,21.5)" xlink:href="#cl"/>
<use transform="translate(766.5,48.25)" xlink:href="#cl"/>
<use transform="translate(766.5,74.75) rotate(180)" xlink:href="#cl"/>
<use transform="translate(766.5,101.5) rotate(180)" xlink:href="#cl"/>
</g>
<g id="diamond_10">
<use x="711" y="123" xlink:href="#cf"/>
<use x="1" y="122.5" xlink:href="#it10" stroke="#DF0000"/>
<use x="-1" y="123.5" xlink:href="#ib10" stroke="#DF0000"/>
<use transform="translate(719.5,147.5)" xlink:href="#ds"/>
<use transform="translate(781.5,221.5)" xlink:href="#ds"/>
<use transform="translate(734.5,144.5)" xlink:href="#dl"/>
<use transform="translate(734.5,171.25)" xlink:href="#dl"/>
<use transform="translate(734.5,197.75)" xlink:href="#dl"/>
<use transform="translate(734.5,224.5)" xlink:href="#dl"/>
<use transform="translate(750.5,157.875)" xlink:href="#dl"/>
<use transform="translate(750.5,211.125)" xlink:href="#dl"/>
<use transform="translate(766.5,144.5)" xlink:href="#dl"/>
<use transform="translate(766.5,171.25)" xlink:href="#dl"/>
<use transform="translate(766.5,197.75)" xlink:href="#dl"/>
<use transform="translate(766.5,224.5)" xlink:href="#dl"/>
</g>
<g id="heart_10">
<use x="711" y="246" xlink:href="#cf"/>
<use x="1" y="245.5" xlink:href="#it10" stroke="#DF0000"/>
<use x="-1" y="246.5" xlink:href="#ib10" stroke="#DF0000"/>
<use transform="translate(719.5,270.5)" xlink:href="#hs"/>
<use transform="translate(781.5,344.5) rotate(180)" xlink:href="#hs"/>
<use transform="translate(734.5,267.5)" xlink:href="#hl"/>
<use transform="translate(734.5,294.25)" xlink:href="#hl"/>
<use transform="translate(734.5,320.75) rotate(180)" xlink:href="#hl"/>
<use transform="translate(734.5,347.5) rotate(180)" xlink:href="#hl"/>
<use transform="translate(750.5,280.875)" xlink:href="#hl"/>
<use transform="translate(750.5,334.125) rotate(180)" xlink:href="#hl"/>
<use transform="translate(766.5,267.5)" xlink:href="#hl"/>
<use transform="translate(766.5,294.25)" xlink:href="#hl"/>
<use transform="translate(766.5,320.75) rotate(180)" xlink:href="#hl"/>
<use transform="translate(766.5,347.5) rotate(180)" xlink:href="#hl"/>
</g>
<g id="spade_10">
<use x="711" y="369" xlink:href="#cf"/>
<use x="1" y="368.5" xlink:href="#it10" stroke="#000000"/>
<use x="-1" y="369.5" xlink:href="#ib10" stroke="#000000"/>
<use transform="translate(719.5,393.5)" xlink:href="#ss"/>
<use transform="translate(781.5,467.5) rotate(180)" xlink:href="#ss"/>
<use transform="translate(734.5,390.5)" xlink:href="#sl"/>
<use transform="translate(734.5,417.25)" xlink:href="#sl"/>
<use transform="translate(734.5,443.75) rotate(180)" xlink:href="#sl"/>
<use transform="translate(734.5,470.5) rotate(180)" xlink:href="#sl"/>
<use transform="translate(750.5,403.875)" xlink:href="#sl"/>
<use transform="translate(750.5,457.125) rotate(180)" xlink:href="#sl"/>
<use transform="translate(766.5,390.5)" xlink:href="#sl"/>
<use transform="translate(766.5,417.25)" xlink:href="#sl"/>
<use transform="translate(766.5,443.75) rotate(180)" xlink:href="#sl"/>
<use transform="translate(766.5,470.5) rotate(180)" xlink:href="#sl"/>
</g>
<g id="club_jack">
<use x="790" y="0" xlink:href="#cf"/>
<use x="1" y="-0.5" xlink:href="#itj" stroke="#000000"/>
<use x="-1" y="0.5" xlink:href="#ibj" stroke="#000000"/>
<use transform="translate(798.5,24.5)" xlink:href="#cs"/>
<use transform="translate(860.5,98.5) rotate(180)" xlink:href="#cs"/>
</g>
<g id="diamond_jack">
<use x="790" y="123" xlink:href="#cf"/>
<use x="1" y="122.5" xlink:href="#itj" stroke="#DF0000"/>
<use x="-1" y="123.5" xlink:href="#ibj" stroke="#DF0000"/>
<use transform="translate(798.5,147.5)" xlink:href="#ds"/>
<use transform="translate(860.5,221.5)" xlink:href="#ds"/>
</g>
<g id="heart_jack">
<use x="790" y="246" xlink:href="#cf"/>
<use x="1" y="245.5" xlink:href="#itj" stroke="#DF0000"/>
<use x="-1" y="246.5" xlink:href="#ibj" stroke="#DF0000"/>
<use transform="translate(798.5,270.5)" xlink:href="#hs"/>
<use transform="translate(860.5,344.5) rotate(180)" xlink:href="#hs"/>
</g>
<g id="spade_jack">
<use x="790" y="369" xlink:href="#cf"/>
<use x="1" y="368.5" xlink:href="#itj" stroke="#000000"/>
<use x="-1" y="369.5" xlink:href="#ibj" stroke="#000000"/>
<use transform="translate(798.5,393.5)" xlink:href="#ss"/>
<use transform="translate(860.5,467.5) rotate(180)" xlink:href="#ss"/>
</g>
<g id="club_queen">
<use x="869" y="0" xlink:href="#cf"/>
<use x="1" y="-0.5" xlink:href="#itq" stroke="#000000"/>
<use x="-1" y="0.5" xlink:href="#ibq" stroke="#000000"/>
<use transform="translate(877.5,24.5)" xlink:href="#cs"/>
<use transform="translate(939.5,98.5) rotate(180)" xlink:href="#cs"/>
</g>
<g id="diamond_queen">
<use x="869" y="123" xlink:href="#cf"/>
<use x="1" y="122.5" xlink:href="#itq" stroke="#DF0000"/>
<use x="-1" y="123.5" xlink:href="#ibq" stroke="#DF0000"/>
<use transform="translate(877.5,147.5)" xlink:href="#ds"/>
<use transform="translate(939.5,221.5)" xlink:href="#ds"/>
</g>
<g id="heart_queen">
<use x="869" y="246" xlink:href="#cf"/>
<use x="1" y="245.5" xlink:href="#itq" stroke="#DF0000"/>
<use x="-1" y="246.5" xlink:href="#ibq" stroke="#DF0000"/>
<use transform="translate(877.5,270.5)" xlink:href="#hs"/>
<use transform="translate(939.5,344.5) rotate(180)" xlink:href="#hs"/>
</g>
<g id="spade_queen">
<use x="869" y="369" xlink:href="#cf"/>
<use x="1" y="368.5" xlink:href="#itq" stroke="#000000"/>
<use x="-1" y="369.5" xlink:href="#ibq" stroke="#000000"/>
<use transform="translate(877.5,393.5)" xlink:href="#ss"/>
<use transform="translate(939.5,467.5) rotate(180)" xlink:href="#ss"/>
</g>
<g id="club_king">
<use x="948" y="0" xlink:href="#cf"/>
<use x="1" y="-0.5" xlink:href="#itk" stroke="#000000"/>
<use x="-1" y="0.5" xlink:href="#ibk" stroke="#000000"/>
<use transform="translate(956.5,24.5)" xlink:href="#cs"/>
<use transform="translate(1018.5,98.5) rotate(180)" xlink:href="#cs"/>
</g>
<g id="diamond_king">
<use x="948" y="123" xlink:href="#cf"/>
<use x="1" y="122.5" xlink:href="#itk" stroke="#DF0000"/>
<use x="-1" y="123.5" xlink:href="#ibk" stroke="#DF0000"/>
<use transform="translate(956.5,147.5)" xlink:href="#ds"/>
<use transform="translate(1018.5,221.5)" xlink:href="#ds"/>
</g>
<g id="heart_king">
<use x="948" y="246" xlink:href="#cf"/>
<use x="1" y="245.5" xlink:href="#itk" stroke="#DF0000"/>
<use x="-1" y="246.5" xlink:href="#ibk" stroke="#DF0000"/>
<use transform="translate(956.5,270.5)" xlink:href="#hs"/>
<use transform="translate(1018.5,344.5) rotate(180)" xlink:href="#hs"/>
</g>
<g id="spade_king">
<use x="948" y="369" xlink:href="#cf"/>
<use x="1" y="368.5" xlink:href="#itk" stroke="#000000"/>
<use x="-1" y="369.5" xlink:href="#ibk" stroke="#000000"/>
<use transform="translate(956.5,393.5)" xlink:href="#ss"/>
<use transform="translate(1018.5,467.5) rotate(180)" xlink:href="#ss"/>
</g>
<g id="joker_black">
<use x="0" y="492" xlink:href="#cf"/>
</g>
<g id="joker_red">
<use x="79" y="492" xlink:href="#cf"/>
</g>
<g id="back">
<use x="158" y="492" xlink:href="#cf"/>
</g>
</svg>
